<svg xmlns="http://www.w3.org/2000/svg">
<defs>
<font id="PTSansPro-Cond" horiz-adv-x="387" >
  <font-face 
    font-family="PTSansPro-Cond"
    font-weight="400"
    font-stretch="condensed"
    units-per-em="1000"
    panose-1="2 11 5 6 2 2 3 2 2 4"
    ascent="769"
    descent="-231"
    x-height="500"
    cap-height="700"
    bbox="-373 -245 763 1000"
    underline-thickness="50"
    underline-position="-50"
    unicode-range="U+0020-U+FB04"
  />
<missing-glyph horiz-adv-x="750" 
d="M50 0v700h650v-700h-650zM620 570l-50 50l-195 -217l-195 217l-50 -50l197 -220l-197 -220l50 -50l195 217l195 -217l50 50l-198 220zM129 63v-36h8v12h4q16 0 16 12t-17 12h-11zM137 57h4q8 0 8 -5q0 -6 -9 -6h-3v11zM189 57v6h-31v-6h12v-30h7v30h12zM222 37
q0 -4 -7 -4q-5 0 -9 2l-3 -7q8 -2 13 -2q14 0 14 12q0 7 -9 10t-9 6t6 3q3 0 9 -2l2 7q-8 2 -11 2q-14 0 -14 -11q0 -7 9 -10.5t9 -5.5zM235 52l2 -5q6 2 9 2q5 0 5 -4v-2l-1 1h-4q-12 0 -12 -10q0 -8 8 -8q6 0 9 5l2 -4h6q-1 1 -1 7v11q0 10 -10 10q-4 0 -13 -3zM245 32
q-4 0 -4 4t5 4h4l1 -1v-3q-1 -4 -6 -4zM284 27h8v16q0 12 -9 12q-7 0 -10 -5l-2 4h-5v-27h7v17q1 4 6 4t5 -6v-15zM299 34l-2 -6q6 -2 10 -2q11 0 11 9q0 5 -8 9q-5 2 -5 3q0 2 3 2q2 0 8 -2l2 6q-6 2 -10 2q-10 0 -10 -9q0 -5 8 -9q5 -2 5 -3q0 -2 -3 -2t-9 2zM338 42
q0 -21 20 -21t20 21q0 20 -20 20q-8 0 -14 -5.5t-6 -14.5zM344 42q0 15 14 15t14 -15t-14 -15t-14 15zM365 33l-1 5q-2 -1 -4 -1q-4 0 -4 5q0 4 4 4h3l2 4q-3 2 -7 2q-9 0 -9 -10q0 -11 9 -11q5 0 7 2zM399 63v-36h8v12h4q16 0 16 12t-17 12h-11zM407 57h4q8 0 8 -5
q0 -6 -9 -6h-3v11zM430 52l2 -5q6 2 9 2q5 0 5 -4v-2l-2 1h-3q-13 0 -13 -10q0 -8 9 -8q6 0 9 5l2 -4h6q-1 1 -1 7v11q0 10 -10 10q-4 0 -13 -3zM440 32q-4 0 -4 4t5 4h3l2 -1v-3q-1 -4 -6 -4zM477 47l1 7q-1 1 -4 1q-4 0 -6 -5h-1l-1 4h-6v-27h8v17q0 4 6 4zM482 52l1 -5
q8 2 9 2q5 0 5 -4v-2l-1 1h-4q-13 0 -13 -10q0 -8 9 -8q7 0 9 5h1l1 -4h6q-1 1 -1 7v11q0 10 -10 10q-3 0 -12 -3zM491 32q-4 0 -4 4t5 4h4l1 -1v-3q-1 -4 -6 -4zM533 57v6h-31v-6h12v-30h7v30h12zM547 39l-6 15h-8l12 -27q-2 -5 -5 -5l-1 1l-2 -6q1 -1 5 -1q6 0 10 13

<glyph glyph-name="IJ" unicode="IJ" horiz-adv-x="392" 
d="M61 0v700h70v-700h-70zM267 169v531h70v-541q0 -88 -21.5 -128.5t-80.5 -40.5q-41 0 -68 16l16 61q17 -12 40 -12q29 0 36.5 26t7.5 88z" />
    <glyph glyph-name="ij" unicode="ij" horiz-adv-x="330" 
d="M207 2v498h67v-527q0 -185 -100 -185q-7 0 -23 2v63q35 0 45.5 34t10.5 115zM195 652q0 25 12 38.5t32 13.5t33 -13.5t13 -38.5q0 -24 -12.5 -36.5t-33.5 -12.5q-44 0 -44 49zM45 652q0 25 12 38.5t32 13.5t33 -13.5t13 -38.5q0 -24 -12.5 -36.5t-33.5 -12.5
q-44 0 -44 49zM57 0v500h67v-500h-67z" />
    <glyph glyph-name="uniF374.var.accented" unicode="&#xf374;`" horiz-adv-x="325" 
d="M284 78l14 -56q-34 -31 -101 -31q-164 0 -164 272q0 142 46 206.5t118 64.5q60 0 96 -20l-16 -61q-30 17 -74 17q-89 0 -98 -170h148v-62h-149q6 -183 107 -183q41 0 73 23zM166 596l37 149h71v-21l-69 -128h-39z" />
    <glyph glyph-name="uniF376.var.accented" unicode="&#xf376;`" horiz-adv-x="190" 
d="M67 596l37 149h71v-21l-69 -128h-39zM61 0v525h69v-525h-69z" />
    <glyph glyph-name="uniF377.var.accented" unicode="&#xf377;`" horiz-adv-x="241" 
d="M5 683q0 21 10 33.5t27 12.5q34 0 34 -46q0 -44 -34 -44q-17 0 -27 11.5t-10 32.5zM164 683q0 21 9.5 33.5t24.5 12.5q17 0 27 -12.5t10 -33.5t-10 -32.5t-27 -11.5q-15 0 -24.5 11.5t-9.5 32.5zM75 617l36 144h56v-21l-64 -123h-28zM86 0v525h69v-525h-69z" />
    <glyph glyph-name="uniF350.var.accented" unicode="&#xf350;`" horiz-adv-x="321" 
d="M248 0l-31 135h-118l-30 -135h-66l134 531h48l133 -531h-70zM146 337l-31 -140h88l-32 141l-11 82h-2zM145 596l37 149h71v-21l-69 -128h-39z" />
    <glyph glyph-name="uniF355.var.accented" unicode="&#xf355;`" horiz-adv-x="308" 
d="M50 0v525h218v-64h-149v-162h136v-64h-136v-171h152v-64h-221zM126 596l37 149h71v-21l-69 -128h-39z" />
    <glyph glyph-name="uniF358.var.accented" unicode="&#xf358;`" horiz-adv-x="382" 
d="M263 0v304l8 86h-3l-25 -89l-144 -301h-49v525h69v-303l-8 -86h4l26 89l143 300h48v-525h-69zM163 596l37 149h71v-21l-69 -128h-39z" />
    <glyph glyph-name="uniF35E.var.accented" unicode="&#xf35e;`" horiz-adv-x="378" 
d="M33 263q0 271 156 271t156 -271q0 -272 -156 -272q-84 0 -120 69.5t-36 202.5zM104 263q0 -208 84 -208q45 0 65.5 49.5t20.5 158.5q0 207 -86 207q-44 0 -64 -50t-20 -157zM150 596l37 149h71v-21l-69 -128h-39z" />
    <glyph glyph-name="uniF363.var.accented" unicode="&#xf363;`" horiz-adv-x="304" 
d="M78 525l77 -255l12 -70h4l8 72l58 253h69l-96 -352q-28 -104 -47.5 -140.5t-57.5 -36.5q-35 0 -56 17l19 59q16 -12 32 -12q24 0 36 79l-135 386h77zM122 596l37 149h71v-21l-69 -128h-39z" />
    <glyph glyph-name="uniF36B.var.accented" unicode="&#xf36b;`" horiz-adv-x="455" 
d="M336 0v525h69v-525h-69zM50 3v522h69v-196q21 6 46 6q128 0 128 -163q0 -91 -36 -135t-112 -44q-62 0 -95 10zM154 55q69 0 69 114q0 104 -71 104q-19 0 -33 -8v-205q11 -5 35 -5zM189 596l37 149h71v-21l-69 -128h-39z" />
    <glyph glyph-name="uniF36D.var.accented" unicode="&#xf36d;`" horiz-adv-x="324" 
d="M78 237v62h142q-2 83 -28.5 127t-75.5 44q-43 0 -79 -23l-19 57q51 30 106 30q167 0 167 -271q0 -142 -47 -207t-128 -65q-56 0 -96 23l20 61q36 -20 78 -20q47 0 74.5 46t28.5 136h-143zM90 596l37 149h71v-21l-69 -128h-39z" />
    <glyph glyph-name="uniF36E.var.accented" unicode="&#xf36e;`" horiz-adv-x="502" 
d="M119 525v-226h52q3 111 40.5 173t107.5 62q81 0 115.5 -68.5t34.5 -202.5q0 -137 -36.5 -204.5t-114.5 -67.5q-71 0 -108 66t-39 178h-52v-235h-69v525h69zM239 263q0 -207 80 -207q42 0 61 49.5t19 157.5q0 206 -80 206t-80 -206zM223 596l37 149h71v-21l-69 -128h-39z
" />
    <glyph glyph-name="uniF36F.var.accented" unicode="&#xf36f;`" horiz-adv-x="332" 
d="M282 520v-520h-69v224l-44 -15l-77 -209h-79l76 184l32 33q-38 10 -60 49t-22 103q0 163 153 163q57 0 90 -12zM180 470q-31 0 -51 -25.5t-20 -80.5q0 -100 74 -100h30v202q-12 4 -33 4zM150 596l37 149h71v-21l-69 -128h-39z" />
    <glyph glyph-name="uniF371.var.accented" unicode="&#xf371;`" horiz-adv-x="308" 
d="M44 683q0 21 10 33.5t27 12.5q34 0 34 -46q0 -44 -34 -44q-17 0 -27 11.5t-10 32.5zM203 683q0 21 9.5 33.5t24.5 12.5q17 0 27 -12.5t10 -33.5t-10 -32.5t-27 -11.5q-15 0 -24.5 11.5t-9.5 32.5zM114 617l36 144h56v-21l-64 -123h-28zM50 0v525h218v-64h-149v-162h136
v-64h-136v-171h152v-64h-221z" />
    <glyph glyph-name="uniF38A.var.accented" unicode="&#xf38a;`" horiz-adv-x="324" 
d="M275 385l-92 -391h-48l-138 531h76l78 -335l11 -85h2l9 87l36 179q19 98 39 129t59 31q33 0 56 -15l-18 -60q-15 8 -30 8q-13 0 -21.5 -18t-18.5 -61zM130 596l37 149h71v-21l-69 -128h-39z" />
    <glyph glyph-name="afii10053.var.accented" unicode="&#x404;`" horiz-adv-x="384" 
d="M341 85l16 -60q-40 -37 -124 -37q-200 0 -200 362q0 191 55 276.5t146 85.5q71 0 117 -24l-17 -64q-37 23 -93 23q-125 0 -135 -254h195v-65h-196q3 -135 41.5 -205t106.5 -70q43 0 88 32zM191 752l74 118h88v-21l-107 -97h-55z" />
    <glyph glyph-name="afii10055.var.accented" unicode="&#x406;`" horiz-adv-x="191" 
d="M63 752l74 118h88v-21l-107 -97h-55zM61 0v700h70v-700h-70z" />
    <glyph glyph-name="afii10056.var.accented" unicode="&#x407;`" horiz-adv-x="199" 
d="M70 853l47 80h81v-20l-84 -60h-44zM11 793q0 48 39 48q17 0 27.5 -13t10.5 -35t-10.5 -34.5t-27.5 -12.5q-39 0 -39 47zM107 793q0 22 10.5 35t28.5 13t28.5 -13t10.5 -35t-10.5 -34.5t-28.5 -12.5t-28.5 12.5t-10.5 34.5zM65 0v700h70v-700h-70z" />
    <glyph glyph-name="afii10017.var.accented" unicode="&#x410;`" horiz-adv-x="389" 
d="M314 0l-45 198h-154l-43 -198h-69l170 711h43l171 -711h-73zM177 477l-46 -217h124l-46 219l-15 105h-2zM172 752l74 118h88v-21l-107 -97h-55z" />
    <glyph glyph-name="afii10022.var.accented" unicode="&#x415;`" horiz-adv-x="350" 
d="M50 0v700h259v-65h-189v-243h173v-65h-173v-262h193v-65h-263zM124 752l74 118h88v-21l-107 -97h-55z" />
    <glyph glyph-name="afii10026.var.accented" unicode="&#x418;`" horiz-adv-x="444" 
d="M325 0v447l7 100h-4l-28 -104l-200 -443h-50v700h70v-453l-8 -100h3l29 104l202 449h49v-700h-70zM182 752l74 118h88v-21l-107 -97h-55z" />
    <glyph glyph-name="afii10032.var.accented" unicode="&#x41e;`" horiz-adv-x="447" 
d="M33 350q0 182 45.5 272t144.5 90q104 0 147.5 -92t43.5 -270q0 -182 -46 -272t-145 -90q-103 0 -146.5 92t-43.5 270zM105 350q0 -84 10.5 -147.5t38 -106.5t69.5 -43q119 0 119 297q0 131 -28 214t-91 83q-118 0 -118 -297zM192 752l74 118h88v-21l-107 -97h-55z" />
    <glyph glyph-name="afii10037.var.accented" unicode="&#x423;`" horiz-adv-x="369" 
d="M81 700l107 -351l14 -90h4l13 92l82 349h71l-118 -455q-39 -154 -62 -202t-68 -48q-39 0 -64 21l20 62q18 -16 42 -16q31 0 49 118l-170 520h80zM141 752l74 118h88v-21l-107 -97h-55z" />
    <glyph glyph-name="afii10045.var.accented" unicode="&#x42b;`" horiz-adv-x="516" 
d="M396 0v700h70v-700h-70zM50 5v695h70v-272q27 9 58 9q74 0 116.5 -45.5t42.5 -164.5q0 -122 -43.5 -178.5t-134.5 -56.5q-62 0 -109 13zM165 57q100 0 100 163q0 86 -25 119t-75 33q-31 0 -45 -9v-299q14 -7 45 -7zM207 752l74 118h88v-21l-107 -97h-55z" />
    <glyph glyph-name="afii10047.var.accented" unicode="&#x42d;`" horiz-adv-x="380" 
d="M94 326v62h181q-5 259 -136 259q-53 0 -97 -32l-23 59q54 38 126 38q99 0 150.5 -84.5t51.5 -274.5q0 -365 -211 -365q-68 0 -113 25l19 65q42 -25 97 -25q62 0 98.5 66.5t38.5 206.5h-182zM91 752l74 118h88v-21l-107 -97h-55z" />
    <glyph glyph-name="afii10048.var.accented" unicode="&#x42e;`" horiz-adv-x="590" 
d="M120 700v-309h73q3 160 46.5 240.5t135.5 80.5q52 0 88 -24.5t56 -73.5t29 -113t9 -151q0 -182 -43 -272t-140 -90q-96 0 -138 86.5t-44 251.5h-72v-326h-70v700h70zM260 350q0 -297 115 -297q60 0 85 71t25 226q0 137 -24 217t-86 80q-60 0 -87.5 -72.5t-27.5 -224.5z
M238 752l74 118h88v-21l-107 -97h-55z" />
    <glyph glyph-name="afii10049.var.accented" unicode="&#x42f;`" horiz-adv-x="380" 
d="M330 693v-693h-70v309l-60 -21l-107 -288h-80l99 255l39 42q-105 32 -105 200q0 211 179 211q63 0 105 -15zM218 643q-100 0 -100 -146q0 -147 102 -147h40v287q-12 6 -42 6zM184 752l74 118h88v-21l-107 -97h-55z" />
    <glyph glyph-name="afii10023.var.accented" unicode="&#x401;`" horiz-adv-x="350" 
d="M232 812q0 43 38 43q40 0 40 -43t-41 -43q-37 0 -37 43zM43 812q0 43 41 43q37 0 37 -43t-37 -43q-41 0 -41 43zM118 753l41 121h73v-21l-69 -100h-45zM50 0v700h259v-65h-189v-243h173v-65h-173v-262h193v-65h-263z" />
    <glyph glyph-name="afii10065.var.accented" unicode="&#x430;`" horiz-adv-x="327" 
d="M66 421l-22 53q49 34 130 34q63 0 86.5 -39t23.5 -113q0 -41 -2 -117.5t-2 -108.5q0 -84 10 -132h-51l-15 50h-3q-29 -54 -97 -54q-46 0 -74 37.5t-28 102.5q0 152 163 152q21 0 32 -1q2 40 2 54q0 58 -14 82.5t-48 24.5q-53 0 -91 -25zM144 56q52 0 74 51v123
q-11 2 -32 2q-96 0 -96 -90q0 -42 14.5 -64t39.5 -22zM133 571l37 149h71v-21l-69 -128h-39z" />
    <glyph glyph-name="afii10070.var.accented" unicode="&#x435;`" horiz-adv-x="334" 
d="M272 80l24 -51q-43 -41 -115 -41q-78 0 -115.5 69t-37.5 193q0 127 39 194.5t111 67.5q128 0 128 -183q0 -48 -5 -87h-205q2 -192 101 -192q47 0 75 30zM178 450q-73 0 -80 -151h145v18q0 65 -17.5 99t-47.5 34zM146 571l37 149h71v-21l-69 -128h-39z" />
    <glyph glyph-name="afii10074.var.accented" unicode="&#x438;`" horiz-adv-x="358" 
d="M246 0v281l9 88h-4l-30 -99l-128 -270h-48v500h67v-290l-9 -85h4l29 97l131 278h46v-500h-67zM155 571l37 149h71v-21l-69 -128h-39z" />
    <glyph glyph-name="afii10080.var.accented" unicode="&#x43e;`" horiz-adv-x="353" 
d="M28 250q0 262 149 262q77 0 112.5 -61.5t35.5 -200.5t-37.5 -200.5t-110.5 -61.5q-77 0 -113 61.5t-36 200.5zM96 250q0 -200 81 -200q41 0 60.5 47t19.5 153q0 200 -80 200q-81 0 -81 -200zM145 571l37 149h71v-21l-69 -128h-39z" />
    <glyph glyph-name="afii10085.var.accented" unicode="&#x443;`" horiz-adv-x="309" 
d="M78 500l74 -324l17 -96h3l11 97l60 323h66l-97 -449l-16 -73l-16 -60.5t-17.5 -52.5t-19.5 -37t-24 -25.5t-28 -7.5q-27 0 -42 9l11 65q10 -2 13 -2q45 0 63 133l-134 500h76zM139 571l37 149h71v-21l-69 -128h-39z" />
    <glyph glyph-name="afii10093.var.accented" unicode="&#x44b;`" horiz-adv-x="447" 
d="M112 250v-188q22 -6 42 -6q36 0 51.5 24.5t15.5 76.5q0 99 -65 99q-27 0 -44 -6zM112 500v-191q29 7 60 7q117 0 117 -149q0 -91 -34 -132t-112 -41q-53 0 -98 6v500h67zM335 0v500h67v-500h-67zM180 571l37 149h71v-21l-69 -128h-39z" />
    <glyph glyph-name="afii10095.var.accented" unicode="&#x44d;`" horiz-adv-x="302" 
d="M74 222v60h132q-3 168 -88 168q-45 0 -76 -24l-23 54q42 32 109 32q73 0 109 -63.5t36 -198.5q0 -262 -156 -262q-58 0 -98 20l18 61q32 -19 74 -19q92 0 95 172h-132zM93 571l37 149h71v-21l-69 -128h-39z" />
    <glyph glyph-name="afii10096.var.accented" unicode="&#x44e;`" horiz-adv-x="478" 
d="M310 -10q-70 0 -102.5 58t-36.5 178h-59v-226h-67v500h67v-212h60q6 114 39.5 168t100.5 54q72 0 105 -64.5t33 -195.5q0 -136 -34.5 -198t-105.5 -62zM236 250q0 -198 75 -198q37 0 54 45t17 153q0 198 -71 198q-75 0 -75 -198zM207 571l37 149h71v-21l-69 -128h-39z
" />
    <glyph glyph-name="afii10097.var.accented" unicode="&#x44f;`" horiz-adv-x="322" 
d="M213 0v207l-48 -12l-78 -195h-76l72 172l28 36q-35 9 -56.5 43.5t-21.5 90.5q0 88 38.5 128.5t113.5 40.5q49 0 95 -13v-498h-67zM183 250l30 2v190q-12 7 -36 7q-76 0 -76 -102q0 -46 22.5 -71.5t59.5 -25.5zM147 571l37 149h71v-21l-69 -128h-39z" />
    <glyph glyph-name="afii10071.var.accented" unicode="&#x451;`" horiz-adv-x="334" 
d="M272 80l24 -51q-43 -41 -115 -41q-78 0 -115.5 69t-37.5 193q0 127 39 194.5t111 67.5q128 0 128 -183q0 -48 -5 -87h-205q2 -192 101 -192q47 0 75 30zM178 450q-73 0 -80 -151h145v18q0 65 -17.5 99t-47.5 34zM62 632q0 21 10 33.5t27 12.5q16 0 25.5 -12t9.5 -34
q0 -44 -35 -44q-17 0 -27 11.5t-10 32.5zM221 632q0 21 9.5 33.5t24.5 12.5q17 0 27.5 -12t10.5 -34q0 -21 -10.5 -32.5t-27.5 -11.5q-15 0 -24.5 11.5t-9.5 32.5zM133 566l36 144h55v-21l-64 -123h-27z" />
    <glyph glyph-name="afii10101.var.accented" unicode="&#x454;`" horiz-adv-x="304" 
d="M269 74l17 -56q-34 -28 -101 -28q-79 0 -118 68.5t-39 191.5q0 125 43 192.5t120 67.5q56 0 90 -19l-18 -60q-26 17 -70 17q-42 0 -67.5 -42.5t-29.5 -122.5h144v-59h-145q4 -76 29.5 -124t74.5 -48q45 0 70 22zM154 571l37 149h71v-21l-69 -128h-39z" />
    <glyph glyph-name="afii10103.var.accented" unicode="&#x456;`" horiz-adv-x="178" 
d="M44 651q0 25 12 38.5t32 13.5t33 -13.5t13 -38.5q0 -24 -12.5 -36.5t-33.5 -12.5q-44 0 -44 49zM52 751l74 118h88v-21l-107 -97h-55zM55 0v500h67v-500h-67z" />
    <glyph glyph-name="afii10104.var.accented" unicode="&#x457;`" horiz-adv-x="184" 
d="M14 651q0 47 35 47q33 0 33 -47q0 -21 -9 -33t-24 -12q-35 0 -35 45zM99 651q0 47 33 47q34 0 34 -47q0 -45 -34 -45q-33 0 -33 45zM57 0v500h67v-500h-67zM61 751l74 118h88v-21l-107 -97h-55z" />
    <glyph glyph-name="afii10062.var.accented" unicode="&#x40e;`" horiz-adv-x="369" 
d="M81 700l107 -351l14 -90h4l13 92l82 349h71l-118 -455q-39 -154 -62 -202t-68 -48q-39 0 -64 21l20 62q18 -16 42 -16q31 0 49 118l-170 520h80zM75 850l64 20q5 -86 60 -86q52 0 61 83l53 -17q-8 -54 -38.5 -84.5t-80.5 -30.5q-51 0 -82.5 29t-36.5 86zM164 833l64 118
h86v-21l-106 -97h-44z" />
    <glyph glyph-name="afii10110.var.accented" unicode="&#x45e;`" horiz-adv-x="309" 
d="M78 500l74 -324l17 -96h3l11 97l60 323h66l-97 -449l-16 -73l-16 -60.5t-17.5 -52.5t-19.5 -37t-24 -25.5t-28 -7.5q-27 0 -42 9l11 65q10 -2 13 -2q45 0 63 133l-134 500h76zM50 678l56 23q8 -88 57 -88q51 0 62 87l46 -18q-7 -57 -37 -88.5t-73 -31.5t-74 29.5
t-37 86.5zM142 669l33 149h69v-21l-71 -128h-31z" />
    <glyph glyph-name="afii10148.var.accented" unicode="&#x474;`" horiz-adv-x="404" 
d="M329 519l-115 -530h-42l-175 711h79l104 -477l15 -107h1l11 108l48 251q20 102 36.5 151t35 65t51.5 16q37 0 64 -18l-19 -63q-21 14 -38 14q-30 0 -56 -121zM158 752l74 118h88v-21l-107 -97h-55z" />
    <glyph glyph-name="afii10196.var.accented" unicode="&#x475;`" horiz-adv-x="337" 
d="M275 356l-96 -367h-34l-143 511h76l72 -285l15 -103h2l12 105l19 86q12 55 21.5 88t22 62t28.5 41.5t37 12.5q30 0 45 -9l-10 -63q-12 5 -19 5q-26 0 -48 -84zM136 571l37 149h71v-21l-69 -128h-39z" />
    <glyph glyph-name="uni04AE.var.accented" unicode="&#x4ae;`" horiz-adv-x="377" 
d="M154 0v278l-151 422h80l98 -304l11 -61h2l10 63l96 302h74l-150 -421v-279h-70zM144 752l74 118h88v-21l-107 -97h-55z" />
    <glyph glyph-name="uni04AF.var.accented" unicode="&#x4af;`" horiz-adv-x="320" 
d="M130 0l-128 500h77l72 -316l15 -114h2l14 116l64 314h72l-121 -500v-200h-67v200zM127 571l37 149h71v-21l-69 -128h-39z" />
    <glyph glyph-name="uni04B0.var.accented" unicode="&#x4b0;`" horiz-adv-x="377" 
d="M54 228v56h98l-149 416h80l98 -304l11 -61h2l10 63l96 302h74l-148 -416h98v-56h-100v-228h-70v228h-100zM151 752l74 118h88v-21l-107 -97h-55z" />
    <glyph glyph-name="uni04B1.var.accented" unicode="&#x4b1;`" horiz-adv-x="320" 
d="M51 -57v57h79l-128 500h77l72 -316l15 -114h2l14 116l64 314h72l-121 -500h77v-57h-77v-143h-67v143h-79zM133 571l37 149h71v-21l-69 -128h-39z" />
    <glyph glyph-name="uni04D0.var.accented" unicode="&#x4d0;`" horiz-adv-x="389" 
d="M314 0l-45 198h-154l-43 -198h-69l170 711h43l171 -711h-73zM177 477l-46 -217h124l-46 219l-15 105h-2zM75 850l64 20q5 -86 60 -86q52 0 61 83l53 -17q-8 -54 -38.5 -84.5t-80.5 -30.5q-51 0 -82.5 29t-36.5 86zM164 833l64 118h86v-21l-106 -97h-44z" />
    <glyph glyph-name="uni04D1.var.accented" unicode="&#x4d1;`" horiz-adv-x="327" 
d="M66 421l-22 53q49 34 130 34q63 0 86.5 -39t23.5 -113q0 -41 -2 -117.5t-2 -108.5q0 -84 10 -132h-51l-15 50h-3q-29 -54 -97 -54q-46 0 -74 37.5t-28 102.5q0 152 163 152q21 0 32 -1q2 40 2 54q0 58 -14 82.5t-48 24.5q-53 0 -91 -25zM144 56q52 0 74 51v123
q-11 2 -32 2q-96 0 -96 -90q0 -42 14.5 -64t39.5 -22zM57 678l56 23q8 -88 57 -88q51 0 62 87l46 -18q-7 -57 -37 -88.5t-73 -31.5t-74 29.5t-37 86.5zM149 669l33 149h69v-21l-71 -128h-31z" />
    <glyph glyph-name="uni04D2.var.accented" unicode="&#x4d2;`" horiz-adv-x="389" 
d="M314 0l-45 198h-154l-43 -198h-69l170 711h43l171 -711h-73zM177 477l-46 -217h124l-46 219l-15 105h-2zM253 812q0 43 38 43q40 0 40 -43t-41 -43q-37 0 -37 43zM64 812q0 43 41 43q37 0 37 -43t-37 -43q-41 0 -41 43zM139 753l41 121h73v-21l-69 -100h-45z" />
    <glyph glyph-name="uni04D3.var.accented" unicode="&#x4d3;`" horiz-adv-x="327" 
d="M66 421l-22 53q49 34 130 34q63 0 86.5 -39t23.5 -113q0 -41 -2 -117.5t-2 -108.5q0 -84 10 -132h-51l-15 50h-3q-29 -54 -97 -54q-46 0 -74 37.5t-28 102.5q0 152 163 152q21 0 32 -1q2 40 2 54q0 58 -14 82.5t-48 24.5q-53 0 -91 -25zM144 56q52 0 74 51v123
q-11 2 -32 2q-96 0 -96 -90q0 -42 14.5 -64t39.5 -22zM46 632q0 21 10 33.5t27 12.5q16 0 25.5 -12t9.5 -34q0 -44 -35 -44q-17 0 -27 11.5t-10 32.5zM205 632q0 21 9.5 33.5t24.5 12.5q17 0 27.5 -12t10.5 -34q0 -21 -10.5 -32.5t-27.5 -11.5q-15 0 -24.5 11.5t-9.5 32.5z
M117 566l36 144h55v-21l-64 -123h-27z" />
    <glyph glyph-name="uni04D4.var.accented" unicode="&#x4d4;`" horiz-adv-x="561" 
d="M261 580h-2l-21 -94l-82 -223h105v317zM261 0v201h-130l-73 -201h-73l274 700h262v-65h-190v-243h173v-65h-173v-262h193v-65h-263zM270 752l74 118h88v-21l-107 -97h-55z" />
    <glyph glyph-name="uni04D5.var.accented" unicode="&#x4d5;`" horiz-adv-x="520" 
d="M145 54q29 0 47 19t26 47v115q-16 2 -25 2q-103 0 -103 -92q0 -37 15.5 -64t39.5 -27zM244 65h-4q-36 -73 -112 -73q-48 0 -77 40t-29 106q0 82 40.5 117.5t116.5 35.5q12 0 38 -2q2 38 2 51q0 59 -13.5 82.5t-48.5 23.5q-53 0 -96 -34l-19 53q49 43 131 43q68 0 89 -63
q32 67 103 67q127 0 127 -186q0 -48 -5 -87h-205q1 -98 23.5 -143.5t74.5 -45.5q49 0 78 27l24 -51q-45 -38 -119 -38q-87 0 -119 77zM365 450q-75 0 -81 -156h145v18q0 66 -17 102t-47 36zM241 571l37 149h71v-21l-69 -128h-39z" />
    <glyph glyph-name="uni04D6.var.accented" unicode="&#x4d6;`" horiz-adv-x="350" 
d="M64 850l64 20q5 -86 60 -86q52 0 61 83l53 -17q-8 -54 -38.5 -84.5t-80.5 -30.5q-51 0 -82.5 29t-36.5 86zM153 833l64 118h86v-21l-106 -97h-44zM50 0v700h259v-65h-189v-243h173v-65h-173v-262h193v-65h-263z" />
    <glyph glyph-name="uni04D7.var.accented" unicode="&#x4d7;`" horiz-adv-x="334" 
d="M272 80l24 -51q-43 -41 -115 -41q-78 0 -115.5 69t-37.5 193q0 127 39 194.5t111 67.5q128 0 128 -183q0 -48 -5 -87h-205q2 -192 101 -192q47 0 75 30zM178 450q-73 0 -80 -151h145v18q0 65 -17.5 99t-47.5 34zM67 678l56 23q8 -88 57 -88q51 0 62 87l46 -18
q-7 -57 -37 -88.5t-73 -31.5t-74 29.5t-37 86.5zM159 669l33 149h69v-21l-71 -128h-31z" />
    <glyph glyph-name="uni04D8.var.accented" unicode="&#x4d8;`" horiz-adv-x="420" 
d="M318 326h-214q-3 -39 -3 -72q0 -90 25.5 -147t76.5 -57q113 0 115 276zM39 388h278q-5 131 -35.5 195t-95.5 64q-50 0 -102 -40l-22 61q66 44 135 44q98 0 144 -85.5t46 -276.5q0 -362 -186 -362q-84 0 -127 72.5t-43 201.5q0 54 8 126zM154 752l74 118h88v-21l-107 -97
h-55z" />
    <glyph glyph-name="afii10846.var.accented" unicode="&#x4d9;`" horiz-adv-x="334" 
d="M63 423l-24 51q45 38 119 38q148 0 148 -262t-145 -262q-61 0 -97 51t-36 158q0 29 5 79h206q-2 91 -24.5 132.5t-73.5 41.5q-47 0 -78 -27zM162 50q76 0 76 169h-146v-22q0 -67 19.5 -107t50.5 -40zM127 571l37 149h71v-21l-69 -128h-39z" />
    <glyph glyph-name="uni04DA.var.accented" unicode="&#x4da;`" horiz-adv-x="420" 
d="M318 326h-214q-3 -39 -3 -72q0 -90 25.5 -147t76.5 -57q113 0 115 276zM39 388h278q-5 131 -35.5 195t-95.5 64q-50 0 -102 -40l-22 61q66 44 135 44q98 0 144 -85.5t46 -276.5q0 -362 -186 -362q-84 0 -127 72.5t-43 201.5q0 54 8 126zM258 812q0 43 38 43q40 0 40 -43
t-41 -43q-37 0 -37 43zM69 812q0 43 41 43q37 0 37 -43t-37 -43q-41 0 -41 43zM144 753l41 121h73v-21l-69 -100h-45z" />
    <glyph glyph-name="uni04DB.var.accented" unicode="&#x4db;`" horiz-adv-x="334" 
d="M63 423l-24 51q45 38 119 38q148 0 148 -262t-145 -262q-61 0 -97 51t-36 158q0 29 5 79h206q-2 91 -24.5 132.5t-73.5 41.5q-47 0 -78 -27zM162 50q76 0 76 169h-146v-22q0 -67 19.5 -107t50.5 -40zM44 632q0 21 10 33.5t27 12.5q16 0 25.5 -12t9.5 -34q0 -44 -35 -44
q-17 0 -27 11.5t-10 32.5zM203 632q0 21 9.5 33.5t24.5 12.5q17 0 27.5 -12t10.5 -34q0 -21 -10.5 -32.5t-27.5 -11.5q-15 0 -24.5 11.5t-9.5 32.5zM115 566l36 144h55v-21l-64 -123h-27z" />
    <glyph glyph-name="uni04E2.var.accented" unicode="&#x4e2;`" horiz-adv-x="444" 
d="M325 0v447l7 100h-4l-28 -104l-200 -443h-50v700h70v-453l-8 -100h3l29 104l202 449h49v-700h-70zM186 825l74 118h88v-21l-107 -97h-55zM124 733v62h216v-62h-216z" />
    <glyph glyph-name="uni04E3.var.accented" unicode="&#x4e3;`" horiz-adv-x="358" 
d="M246 0v281l9 88h-4l-30 -99l-128 -270h-48v500h67v-290l-9 -85h4l29 97l131 278h46v-500h-67zM82 583v58h203v-58h-203zM151 681l37 149h71v-21l-69 -128h-39z" />
    <glyph glyph-name="uni04E4.var.accented" unicode="&#x4e4;`" horiz-adv-x="444" 
d="M325 0v447l7 100h-4l-28 -104l-200 -443h-50v700h70v-453l-8 -100h3l29 104l202 449h49v-700h-70zM279 812q0 43 38 43q40 0 40 -43t-41 -43q-37 0 -37 43zM90 812q0 43 41 43q37 0 37 -43t-37 -43q-41 0 -41 43zM165 753l41 121h73v-21l-69 -100h-45z" />
    <glyph glyph-name="uni04E5.var.accented" unicode="&#x4e5;`" horiz-adv-x="358" 
d="M246 0v281l9 88h-4l-30 -99l-128 -270h-48v500h67v-290l-9 -85h4l29 97l131 278h46v-500h-67zM67 632q0 21 10 33.5t27 12.5q16 0 25.5 -12t9.5 -34q0 -44 -35 -44q-17 0 -27 11.5t-10 32.5zM226 632q0 21 9.5 33.5t24.5 12.5q17 0 27.5 -12t10.5 -34q0 -21 -10.5 -32.5
t-27.5 -11.5q-15 0 -24.5 11.5t-9.5 32.5zM138 566l36 144h55v-21l-64 -123h-27z" />
    <glyph glyph-name="uni04E6.var.accented" unicode="&#x4e6;`" horiz-adv-x="447" 
d="M33 350q0 182 45.5 272t144.5 90q104 0 147.5 -92t43.5 -270q0 -182 -46 -272t-145 -90q-103 0 -146.5 92t-43.5 270zM105 350q0 -84 10.5 -147.5t38 -106.5t69.5 -43q119 0 119 297q0 131 -28 214t-91 83q-118 0 -118 -297zM278 812q0 43 38 43q40 0 40 -43t-41 -43
q-37 0 -37 43zM89 812q0 43 41 43q37 0 37 -43t-37 -43q-41 0 -41 43zM164 753l41 121h73v-21l-69 -100h-45z" />
    <glyph glyph-name="uni04E7.var.accented" unicode="&#x4e7;`" horiz-adv-x="353" 
d="M62 632q0 21 10 33.5t27 12.5q16 0 25.5 -12t9.5 -34q0 -44 -35 -44q-17 0 -27 11.5t-10 32.5zM221 632q0 21 9.5 33.5t24.5 12.5q17 0 27.5 -12t10.5 -34q0 -21 -10.5 -32.5t-27.5 -11.5q-15 0 -24.5 11.5t-9.5 32.5zM133 566l36 144h55v-21l-64 -123h-27zM28 250
q0 262 149 262q77 0 112.5 -61.5t35.5 -200.5t-37.5 -200.5t-110.5 -61.5q-77 0 -113 61.5t-36 200.5zM96 250q0 -200 81 -200q41 0 60.5 47t19.5 153q0 200 -80 200q-81 0 -81 -200z" />
    <glyph glyph-name="uni04E8.var.accented" unicode="&#x4e8;`" horiz-adv-x="447" 
d="M33 350q0 182 45.5 272t144.5 90q104 0 147.5 -92t43.5 -270q0 -182 -46 -272t-145 -90q-103 0 -146.5 92t-43.5 270zM223 53q113 0 119 270h-237q2 -120 31 -195t87 -75zM223 647q-110 0 -118 -259h236q-3 116 -31.5 187.5t-86.5 71.5zM193 752l74 118h88v-21l-107 -97
h-55z" />
    <glyph glyph-name="uni04E9.var.accented" unicode="&#x4e9;`" horiz-adv-x="353" 
d="M28 250q0 262 149 262q148 0 148 -262t-148 -262q-149 0 -149 262zM96 278h161q-4 172 -80 172q-75 0 -81 -172zM257 220h-161q2 -85 24.5 -127.5t56.5 -42.5q77 0 80 170zM155 571l37 149h71v-21l-69 -128h-39z" />
    <glyph glyph-name="uni04EA.var.accented" unicode="&#x4ea;`" horiz-adv-x="447" 
d="M33 350q0 182 45.5 272t144.5 90q104 0 147.5 -92t43.5 -270q0 -182 -46 -272t-145 -90q-103 0 -146.5 92t-43.5 270zM223 53q113 0 119 270h-237q2 -120 31 -195t87 -75zM223 647q-110 0 -118 -259h236q-3 116 -31.5 187.5t-86.5 71.5zM280 812q0 43 38 43q40 0 40 -43
t-41 -43q-37 0 -37 43zM91 812q0 43 41 43q37 0 37 -43t-37 -43q-41 0 -41 43zM166 753l41 121h73v-21l-69 -100h-45z" />
    <glyph glyph-name="uni04EB.var.accented" unicode="&#x4eb;`" horiz-adv-x="353" 
d="M62 632q0 21 10 33.5t27 12.5q16 0 25.5 -12t9.5 -34q0 -44 -35 -44q-17 0 -27 11.5t-10 32.5zM221 632q0 21 9.5 33.5t24.5 12.5q17 0 27.5 -12t10.5 -34q0 -21 -10.5 -32.5t-27.5 -11.5q-15 0 -24.5 11.5t-9.5 32.5zM133 566l36 144h55v-21l-64 -123h-27zM28 250
q0 262 149 262q148 0 148 -262t-148 -262q-149 0 -149 262zM96 278h161q-4 172 -80 172q-75 0 -81 -172zM257 220h-161q2 -85 24.5 -127.5t56.5 -42.5q77 0 80 170z" />
    <glyph glyph-name="uni04EC.var.accented" unicode="&#x4ec;`" horiz-adv-x="380" 
d="M94 326v62h181q-5 259 -136 259q-53 0 -97 -32l-23 59q54 38 126 38q99 0 150.5 -84.5t51.5 -274.5q0 -365 -211 -365q-68 0 -113 25l19 65q42 -25 97 -25q62 0 98.5 66.5t38.5 206.5h-182zM216 812q0 43 38 43q40 0 40 -43t-41 -43q-37 0 -37 43zM27 812q0 43 41 43
q37 0 37 -43t-37 -43q-41 0 -41 43zM102 753l41 121h73v-21l-69 -100h-45z" />
    <glyph glyph-name="uni04ED.var.accented" unicode="&#x4ed;`" horiz-adv-x="302" 
d="M19 632q0 21 10 33.5t27 12.5q16 0 25.5 -12t9.5 -34q0 -44 -35 -44q-17 0 -27 11.5t-10 32.5zM178 632q0 21 9.5 33.5t24.5 12.5q17 0 27.5 -12t10.5 -34q0 -21 -10.5 -32.5t-27.5 -11.5q-15 0 -24.5 11.5t-9.5 32.5zM90 566l36 144h55v-21l-64 -123h-27zM74 222v60h132
q-3 168 -88 168q-45 0 -76 -24l-23 54q42 32 109 32q73 0 109 -63.5t36 -198.5q0 -262 -156 -262q-58 0 -98 20l18 61q32 -19 74 -19q92 0 95 172h-132z" />
    <glyph glyph-name="uni04EE.var.accented" unicode="&#x4ee;`" horiz-adv-x="369" 
d="M81 700l107 -351l14 -90h4l13 92l82 349h71l-118 -455q-39 -154 -62 -202t-68 -48q-39 0 -64 21l20 62q18 -16 42 -16q31 0 49 118l-170 520h80zM146 825l74 118h88v-21l-107 -97h-55zM81 733v62h216v-62h-216z" />
    <glyph glyph-name="uni04EF.var.accented" unicode="&#x4ef;`" horiz-adv-x="309" 
d="M78 500l74 -324l17 -96h3l11 97l60 323h66l-97 -449l-16 -73l-16 -60.5t-17.5 -52.5t-19.5 -37t-24 -25.5t-28 -7.5q-27 0 -42 9l11 65q10 -2 13 -2q45 0 63 133l-134 500h76zM61 583v58h203v-58h-203zM130 681l37 149h71v-21l-69 -128h-39z" />
    <glyph glyph-name="uni04F0.var.accented" unicode="&#x4f0;`" horiz-adv-x="369" 
d="M81 700l107 -351l14 -90h4l13 92l82 349h71l-118 -455q-39 -154 -62 -202t-68 -48q-39 0 -64 21l20 62q18 -16 42 -16q31 0 49 118l-170 520h80zM245 812q0 43 38 43q40 0 40 -43t-41 -43q-37 0 -37 43zM56 812q0 43 41 43q37 0 37 -43t-37 -43q-41 0 -41 43zM131 753
l41 121h73v-21l-69 -100h-45z" />
    <glyph glyph-name="uni04F1.var.accented" unicode="&#x4f1;`" horiz-adv-x="309" 
d="M78 500l74 -324l17 -96h3l11 97l60 323h66l-97 -449l-16 -73l-16 -60.5t-17.5 -52.5t-19.5 -37t-24 -25.5t-28 -7.5q-27 0 -42 9l11 65q10 -2 13 -2q45 0 63 133l-134 500h76zM44 632q0 21 10 33.5t27 12.5q16 0 25.5 -12t9.5 -34q0 -44 -35 -44q-17 0 -27 11.5t-10 32.5
zM203 632q0 21 9.5 33.5t24.5 12.5q17 0 27.5 -12t10.5 -34q0 -21 -10.5 -32.5t-27.5 -11.5q-15 0 -24.5 11.5t-9.5 32.5zM115 566l36 144h55v-21l-64 -123h-27z" />
    <glyph glyph-name="uni04F2.var.accented" unicode="&#x4f2;`" horiz-adv-x="369" 
d="M82 700l107 -351l14 -90h4l13 92l82 349h71l-118 -455q-39 -154 -62 -202t-68 -48q-39 0 -64 21l20 62q18 -16 42 -16q31 0 49 118l-170 520h80zM73 731l17 89h64v-16l-39 -73h-42zM208 731l87 89h76v-16l-114 -73h-49zM145 752l66 118h78v-19l-90 -99h-54z" />
    <glyph glyph-name="uni04F3.var.accented" unicode="&#x4f3;`" horiz-adv-x="309" 
d="M78 500l74 -324l17 -96h3l11 97l60 323h66l-97 -449l-16 -73l-16 -60.5t-17.5 -52.5t-19.5 -37t-24 -25.5t-28 -7.5q-27 0 -42 9l11 65q10 -2 13 -2q45 0 63 133l-134 500h76zM77 571l10 129h61v-16l-35 -113h-36zM186 571l68 129h66v-16l-95 -113h-39zM152 622l38 148
h63v-19l-66 -129h-35z" />
    <glyph glyph-name="uni04F8.var.accented" unicode="&#x4f8;`" horiz-adv-x="516" 
d="M396 0v700h70v-700h-70zM50 5v695h70v-272q27 9 58 9q74 0 116.5 -45.5t42.5 -164.5q0 -122 -43.5 -178.5t-134.5 -56.5q-62 0 -109 13zM165 57q100 0 100 163q0 86 -25 119t-75 33q-31 0 -45 -9v-299q14 -7 45 -7zM310 812q0 43 38 43q40 0 40 -43t-41 -43q-37 0 -37 43
zM121 812q0 43 41 43q37 0 37 -43t-37 -43q-41 0 -41 43zM196 753l41 121h73v-21l-69 -100h-45z" />
    <glyph glyph-name="uni04F9.var.accented" unicode="&#x4f9;`" horiz-adv-x="447" 
d="M112 250v-188q22 -6 42 -6q36 0 51.5 24.5t15.5 76.5q0 99 -65 99q-27 0 -44 -6zM112 500v-191q29 7 60 7q117 0 117 -149q0 -91 -34 -132t-112 -41q-53 0 -98 6v500h67zM335 0v500h67v-500h-67zM107 632q0 21 10 33.5t27 12.5q16 0 25.5 -12t9.5 -34q0 -44 -35 -44
q-17 0 -27 11.5t-10 32.5zM266 632q0 21 9.5 33.5t24.5 12.5q17 0 27.5 -12t10.5 -34q0 -21 -10.5 -32.5t-27.5 -11.5q-15 0 -24.5 11.5t-9.5 32.5zM178 566l36 144h55v-21l-64 -123h-27z" />
    <glyph glyph-name="uniF37E.var.accented" unicode="&#xf37e;`" horiz-adv-x="304" 
d="M78 525l77 -255l12 -70h4l8 72l58 253h69l-96 -352q-28 -104 -47.5 -140.5t-57.5 -36.5q-35 0 -56 17l19 59q16 -12 32 -12q24 0 36 79l-135 386h77zM43 703l56 23q8 -88 57 -88q51 0 62 87l46 -18q-7 -57 -37 -88.5t-73 -31.5t-74 29.5t-37 86.5zM135 694l33 149h69v-21
l-71 -128h-31z" />
    <glyph glyph-name="uniF3A2.var.accented" unicode="&#xf3a2;`" horiz-adv-x="314" 
d="M123 0v201l-120 324h78l71 -217l8 -52h2l10 53l68 216h72l-120 -323v-202h-69zM132 596l37 149h71v-21l-69 -128h-39z" />
    <glyph glyph-name="uniF3A3.var.accented" unicode="&#xf3a3;`" horiz-adv-x="314" 
d="M49 148v54h73l-119 323h78l71 -217l8 -52h2l10 53l68 216h72l-120 -323h74v-54h-74v-148h-69v148h-74zM133 596l37 149h71v-21l-69 -128h-39z" />
    <glyph glyph-name="uniF3B2.var.accented" unicode="&#xf3b2;`" horiz-adv-x="321" 
d="M248 0l-31 135h-118l-30 -135h-66l134 531h48l133 -531h-70zM146 337l-31 -140h88l-32 141l-11 82h-2zM50 703l56 23q8 -88 57 -88q51 0 62 87l46 -18q-7 -57 -37 -88.5t-73 -31.5t-74 29.5t-37 86.5zM142 694l33 149h69v-21l-71 -128h-31z" />
    <glyph glyph-name="uniF3B3.var.accented" unicode="&#xf3b3;`" horiz-adv-x="321" 
d="M248 0l-31 135h-118l-30 -135h-66l134 531h48l133 -531h-70zM146 337l-31 -140h88l-32 141l-11 82h-2zM45 683q0 21 10 33.5t27 12.5q34 0 34 -46q0 -44 -34 -44q-17 0 -27 11.5t-10 32.5zM204 683q0 21 9.5 33.5t24.5 12.5q17 0 27 -12.5t10 -33.5t-10 -32.5t-27 -11.5
q-15 0 -24.5 11.5t-9.5 32.5zM115 617l36 144h56v-21l-64 -123h-28z" />
    <glyph glyph-name="uniF3B4.var.accented" unicode="&#xf3b4;`" horiz-adv-x="465" 
d="M209 423h-3l-16 -74l-57 -147h76v221zM209 0v140h-101l-54 -140h-69l219 525h221v-64h-147v-162h134v-64h-134v-171h150v-64h-219zM215 596l37 149h71v-21l-69 -128h-39z" />
    <glyph glyph-name="uniF3B5.var.accented" unicode="&#xf3b5;`" horiz-adv-x="308" 
d="M51 703l56 23q8 -88 57 -88q51 0 62 87l46 -18q-7 -57 -37 -88.5t-73 -31.5t-74 29.5t-37 86.5zM143 694l33 149h69v-21l-71 -128h-31zM50 0v525h218v-64h-149v-162h136v-64h-136v-171h152v-64h-221z" />
    <glyph glyph-name="uniF3B6.var.accented" unicode="&#xf3b6;`" horiz-adv-x="354" 
d="M254 237h-153q-2 -32 -2 -47q1 -59 18.5 -97t54.5 -38q80 0 82 182zM38 297h216q-4 86 -27 129.5t-72 43.5q-42 0 -80 -29l-19 58q51 35 110 35q78 0 116.5 -65t38.5 -206q0 -272 -152 -272q-69 0 -103 57t-34 158q0 43 6 91zM139 596l37 149h71v-21l-69 -128h-39z" />
    <glyph glyph-name="uniF3B7.var.accented" unicode="&#xf3b7;`" horiz-adv-x="354" 
d="M254 237h-153q-2 -32 -2 -47q1 -59 18.5 -97t54.5 -38q80 0 82 182zM38 297h216q-4 86 -27 129.5t-72 43.5q-42 0 -80 -29l-19 58q51 35 110 35q78 0 116.5 -65t38.5 -206q0 -272 -152 -272q-69 0 -103 57t-34 158q0 43 6 91zM50 683q0 21 10 33.5t27 12.5q34 0 34 -46
q0 -44 -34 -44q-17 0 -27 11.5t-10 32.5zM209 683q0 21 9.5 33.5t24.5 12.5q17 0 27 -12.5t10 -33.5t-10 -32.5t-27 -11.5q-15 0 -24.5 11.5t-9.5 32.5zM120 617l36 144h56v-21l-64 -123h-28z" />
    <glyph glyph-name="uniF3BB.var.accented" unicode="&#xf3bb;`" horiz-adv-x="382" 
d="M263 0v304l8 86h-3l-25 -89l-144 -301h-49v525h69v-303l-8 -86h4l26 89l143 300h48v-525h-69zM160 706l37 149h71v-21l-69 -128h-39zM93 608v58h203v-58h-203z" />
    <glyph glyph-name="uniF3BC.var.accented" unicode="&#xf3bc;`" horiz-adv-x="382" 
d="M77 683q0 21 10 33.5t27 12.5q34 0 34 -46q0 -44 -34 -44q-17 0 -27 11.5t-10 32.5zM236 683q0 21 9.5 33.5t24.5 12.5q17 0 27 -12.5t10 -33.5t-10 -32.5t-27 -11.5q-15 0 -24.5 11.5t-9.5 32.5zM147 617l36 144h56v-21l-64 -123h-28zM263 0v304l8 86h-3l-25 -89
l-144 -301h-49v525h69v-303l-8 -86h4l26 89l143 300h48v-525h-69z" />
    <glyph glyph-name="uniF3BD.var.accented" unicode="&#xf3bd;`" horiz-adv-x="378" 
d="M75 683q0 21 10 33.5t27 12.5q34 0 34 -46q0 -44 -34 -44q-17 0 -27 11.5t-10 32.5zM234 683q0 21 9.5 33.5t24.5 12.5q17 0 27 -12.5t10 -33.5t-10 -32.5t-27 -11.5q-15 0 -24.5 11.5t-9.5 32.5zM145 617l36 144h56v-21l-64 -123h-28zM33 263q0 271 156 271t156 -271
q0 -272 -156 -272q-84 0 -120 69.5t-36 202.5zM104 263q0 -208 84 -208q45 0 65.5 49.5t20.5 158.5q0 207 -86 207q-44 0 -64 -50t-20 -157z" />
    <glyph glyph-name="uniF3BE.var.accented" unicode="&#xf3be;`" horiz-adv-x="378" 
d="M33 263q0 271 156 271t156 -271q0 -272 -156 -272q-84 0 -120 69.5t-36 202.5zM188 55q42 0 62.5 42.5t23.5 136.5h-170q7 -179 84 -179zM188 470q-41 0 -61 -42.5t-23 -131.5h169q-5 174 -85 174zM161 596l37 149h71v-21l-69 -128h-39z" />
    <glyph glyph-name="uniF3BF.var.accented" unicode="&#xf3bf;`" horiz-adv-x="378" 
d="M74 683q0 21 10 33.5t27 12.5q34 0 34 -46q0 -44 -34 -44q-17 0 -27 11.5t-10 32.5zM233 683q0 21 9.5 33.5t24.5 12.5q17 0 27 -12.5t10 -33.5t-10 -32.5t-27 -11.5q-15 0 -24.5 11.5t-9.5 32.5zM144 617l36 144h56v-21l-64 -123h-28zM33 263q0 271 156 271t156 -271
q0 -272 -156 -272q-84 0 -120 69.5t-36 202.5zM188 55q42 0 62.5 42.5t23.5 136.5h-170q7 -179 84 -179zM188 470q-41 0 -61 -42.5t-23 -131.5h169q-5 174 -85 174z" />
    <glyph glyph-name="uniF3C0.var.accented" unicode="&#xf3c0;`" horiz-adv-x="324" 
d="M78 237v62h142q-2 83 -28.5 127t-75.5 44q-43 0 -79 -23l-19 57q51 30 106 30q167 0 167 -271q0 -142 -47 -207t-128 -65q-56 0 -96 23l20 61q36 -20 78 -20q47 0 74.5 46t28.5 136h-143zM15 683q0 21 10 33.5t27 12.5q34 0 34 -46q0 -44 -34 -44q-17 0 -27 11.5
t-10 32.5zM174 683q0 21 9.5 33.5t24.5 12.5q17 0 27 -12.5t10 -33.5t-10 -32.5t-27 -11.5q-15 0 -24.5 11.5t-9.5 32.5zM85 617l36 144h56v-21l-64 -123h-28z" />
    <glyph glyph-name="uniF3C1.var.accented" unicode="&#xf3c1;`" horiz-adv-x="304" 
d="M78 525l77 -255l12 -70h4l8 72l58 253h69l-96 -352q-28 -104 -47.5 -140.5t-57.5 -36.5q-35 0 -56 17l19 59q16 -12 32 -12q24 0 36 79l-135 386h77zM54 608v58h203v-58h-203zM123 706l37 149h71v-21l-69 -128h-39z" />
    <glyph glyph-name="uniF3C2.var.accented" unicode="&#xf3c2;`" horiz-adv-x="304" 
d="M78 525l77 -255l12 -70h4l8 72l58 253h69l-96 -352q-28 -104 -47.5 -140.5t-57.5 -36.5q-35 0 -56 17l19 59q16 -12 32 -12q24 0 36 79l-135 386h77zM43 683q0 21 10 33.5t27 12.5q34 0 34 -46q0 -44 -34 -44q-17 0 -27 11.5t-10 32.5zM202 683q0 21 9.5 33.5t24.5 12.5
q17 0 27 -12.5t10 -33.5t-10 -32.5t-27 -11.5q-15 0 -24.5 11.5t-9.5 32.5zM113 617l36 144h56v-21l-64 -123h-28z" />
    <glyph glyph-name="uniF3C3.var.accented" unicode="&#xf3c3;`" horiz-adv-x="304" 
d="M78 525l77 -255l12 -70h4l8 72l58 253h69l-96 -352q-28 -104 -47.5 -140.5t-57.5 -36.5q-35 0 -56 17l19 59q16 -12 32 -12q24 0 36 79l-135 386h77zM70 596l10 129h61v-16l-35 -113h-36zM179 596l68 129h66v-16l-95 -113h-39zM145 647l38 148h63v-19l-66 -129h-35z" />
    <glyph glyph-name="uniF3C6.var.accented" unicode="&#xf3c6;`" horiz-adv-x="455" 
d="M336 0v525h69v-525h-69zM50 3v522h69v-196q21 6 46 6q128 0 128 -163q0 -91 -36 -135t-112 -44q-62 0 -95 10zM154 55q69 0 69 114q0 104 -71 104q-19 0 -33 -8v-205q11 -5 35 -5zM111 683q0 21 10 33.5t27 12.5q34 0 34 -46q0 -44 -34 -44q-17 0 -27 11.5t-10 32.5z
M270 683q0 21 9.5 33.5t24.5 12.5q17 0 27 -12.5t10 -33.5t-10 -32.5t-27 -11.5q-15 0 -24.5 11.5t-9.5 32.5zM181 617l36 144h56v-21l-64 -123h-28z" />
    <glyph glyph-name="uniF684" unicode="&#xf769;&#xf76a;" horiz-adv-x="363" 
d="M239 140v385h69v-397q0 -137 -88 -137q-38 0 -63 13l15 60q14 -8 32 -8q21 0 28 20.5t7 63.5zM61 0v525h69v-525h-69z" />
    <glyph glyph-name="f_f" unicode="ff" horiz-adv-x="398" 
d="M247 438h-120v-438h-67v438h-48v62h48v28q0 94 23 136t75 42q41 0 70 -14l-14 -58q-18 10 -44 10q-29 0 -36 -31.5t-7 -112.5h120v28q0 94 23 136t76 42q46 0 78 -16l-14 -57q-20 11 -52 11q-30 0 -37 -32t-7 -112h81v-62h-81v-438h-67v438z" />
    <glyph glyph-name="fi" unicode="fi" horiz-adv-x="359" 
d="M127 500h185v-500h-67v438h-118v-438h-67v438h-48v62h48v28q0 179 124 179q66 0 120 -25l-20 -58q-38 21 -93 21q-21 0 -34 -9.5t-19.5 -30.5t-8.5 -44.5t-2 -60.5z" />
    <glyph glyph-name="fl" unicode="fl" horiz-adv-x="383" 
d="M242 89v553q-24 8 -56 8q-37 0 -48 -34.5t-11 -115.5h60v-62h-60v-438h-67v438h-48v62h48v28q0 95 28.5 139.5t94.5 44.5q81 0 126 -18v-587q0 -57 28 -57q20 0 40 10l4 -54q-23 -18 -69 -18q-70 0 -70 101z" />
    <glyph glyph-name="f_f_i" unicode="ffi" horiz-adv-x="545" 
d="M247 438h-120v-438h-67v438h-48v62h48v29q0 93 23 135t75 42q42 0 70 -14l-14 -58q-18 10 -44 10q-29 0 -36 -31.5t-7 -112.5h120v29q0 96 30.5 137t92.5 41q81 0 126 -32l-20 -57q-38 27 -94 27q-42 0 -55 -31.5t-13 -113.5h186v-500h-67v438h-119v-438h-67v438z" />
    <glyph glyph-name="f_f_l" unicode="ffl" horiz-adv-x="569" 
d="M247 438h-120v-438h-67v438h-48v62h48v29q0 93 23 135t75 42q41 0 70 -14l-14 -57q-16 9 -44 9q-29 0 -36 -31.5t-7 -112.5h120v29q0 95 29 139t95 44q81 0 126 -18v-579q0 -65 28 -65q19 0 38 10l4 -56q-19 -16 -65 -16q-72 0 -72 112v543q-21 7 -58 7q-36 0 -47 -36
t-11 -114h67v-62h-67v-438h-67v438z" />
    <glyph glyph-name=".notdef" horiz-adv-x="750" 
d="M50 0v700h650v-700h-650zM620 570l-50 50l-195 -217l-195 217l-50 -50l197 -220l-197 -220l50 -50l195 217l195 -217l50 50l-198 220zM129 63v-36h8v12h4q16 0 16 12t-17 12h-11zM137 57h4q8 0 8 -5q0 -6 -9 -6h-3v11zM189 57v6h-31v-6h12v-30h7v30h12zM222 37
q0 -4 -7 -4q-5 0 -9 2l-3 -7q8 -2 13 -2q14 0 14 12q0 7 -9 10t-9 6t6 3q3 0 9 -2l2 7q-8 2 -11 2q-14 0 -14 -11q0 -7 9 -10.5t9 -5.5zM235 52l2 -5q6 2 9 2q5 0 5 -4v-2l-1 1h-4q-12 0 -12 -10q0 -8 8 -8q6 0 9 5l2 -4h6q-1 1 -1 7v11q0 10 -10 10q-4 0 -13 -3zM245 32
q-4 0 -4 4t5 4h4l1 -1v-3q-1 -4 -6 -4zM284 27h8v16q0 12 -9 12q-7 0 -10 -5l-2 4h-5v-27h7v17q1 4 6 4t5 -6v-15zM299 34l-2 -6q6 -2 10 -2q11 0 11 9q0 5 -8 9q-5 2 -5 3q0 2 3 2q2 0 8 -2l2 6q-6 2 -10 2q-10 0 -10 -9q0 -5 8 -9q5 -2 5 -3q0 -2 -3 -2t-9 2zM338 42
q0 -21 20 -21t20 21q0 20 -20 20q-8 0 -14 -5.5t-6 -14.5zM344 42q0 15 14 15t14 -15t-14 -15t-14 15zM365 33l-1 5q-2 -1 -4 -1q-4 0 -4 5q0 4 4 4h3l2 4q-3 2 -7 2q-9 0 -9 -10q0 -11 9 -11q5 0 7 2zM399 63v-36h8v12h4q16 0 16 12t-17 12h-11zM407 57h4q8 0 8 -5
q0 -6 -9 -6h-3v11zM430 52l2 -5q6 2 9 2q5 0 5 -4v-2l-2 1h-3q-13 0 -13 -10q0 -8 9 -8q6 0 9 5l2 -4h6q-1 1 -1 7v11q0 10 -10 10q-4 0 -13 -3zM440 32q-4 0 -4 4t5 4h3l2 -1v-3q-1 -4 -6 -4zM477 47l1 7q-1 1 -4 1q-4 0 -6 -5h-1l-1 4h-6v-27h8v17q0 4 6 4zM482 52l1 -5
q8 2 9 2q5 0 5 -4v-2l-1 1h-4q-13 0 -13 -10q0 -8 9 -8q7 0 9 5h1l1 -4h6q-1 1 -1 7v11q0 10 -10 10q-3 0 -12 -3zM491 32q-4 0 -4 4t5 4h4l1 -1v-3q-1 -4 -6 -4zM533 57v6h-31v-6h12v-30h7v30h12zM547 39l-6 15h-8l12 -27q-2 -5 -5 -5l-1 1l-2 -6q1 -1 5 -1q6 0 10 13
l10 25h-8l-5 -15v-5h-1zM565 54v-38h8v12q2 -2 5 -2q14 0 14 15q0 14 -11 14q-5 0 -9 -4h-1l-1 3h-5zM579 49q5 0 5 -8q0 -9 -7 -9q-2 0 -4 2v10q0 5 6 5zM621 29l-3 5q-2 -2 -7 -2q-7 0 -7 6h18v6q0 11 -12 11q-14 0 -14 -15q0 -14 14 -14q5 0 11 3zM610 49q6 0 5 -6h-11
q0 6 6 6z" />
    <glyph glyph-name=".null" horiz-adv-x="0" 
 />
    <glyph glyph-name="nonmarkingreturn" horiz-adv-x="333" 
 />
    <glyph glyph-name="space" unicode=" " horiz-adv-x="171" 
 />
    <glyph glyph-name="exclam" unicode="!" horiz-adv-x="203" 
d="M81 353v347h67v-347l-14 -176h-39zM70 43q0 55 44 55q45 0 45 -55t-45 -55q-44 0 -44 55z" />
    <glyph glyph-name="quotedbl" unicode="&#x22;" horiz-adv-x="248" 
d="M154 507v193h62l-22 -193h-40zM59 507v193h62l-22 -193h-40z" />
    <glyph glyph-name="numbersign" unicode="#" 
d="M179 58l26 167h-65l-26 -167h-55l26 167h-51l11 58h49l23 143h-51l12 58h48l25 158h55l-25 -158h65l25 158h56l-25 -158h51l-13 -58h-47l-22 -143h49l-13 -58h-45l-26 -167h-57zM172 426l-23 -143h65l23 143h-65z" />
    <glyph glyph-name="dollar" unicode="$" 
d="M166 -100v88q-69 3 -109 29l20 64q35 -27 89 -31v291q-35 31 -54 51.5t-37 62.5t-18 94q0 62 28.5 105t80.5 54v92h55v-88q50 -2 92 -22l-21 -62q-36 20 -71 22v-265q37 -33 56 -53.5t38 -63t19 -93.5q0 -70 -30 -118.5t-83 -62.5v-94h-55zM266 170q0 75 -60 135v-251
q28 10 44 40.5t16 75.5zM125 551q0 -70 56 -128v225q-29 -8 -42.5 -36.5t-13.5 -60.5z" />
    <glyph glyph-name="percent" unicode="%" horiz-adv-x="535" 
d="M42 542q0 170 108 170t108 -170q0 -169 -108 -169t-108 169zM102 542q0 -116 48 -116q25 0 36.5 24t11.5 92q0 67 -12 92t-36 25t-36 -25t-12 -92zM289 169q0 170 108 170t108 -170q0 -169 -108 -169t-108 169zM349 169q0 -116 48 -116q25 0 36.5 24t11.5 92q0 67 -12 92
t-36 25t-36 -25t-12 -92zM68 12l361 701l44 -24l-360 -701z" />
    <glyph glyph-name="ampersand" unicode="&#x26;" horiz-adv-x="537" 
d="M71 187q0 131 115 240q-44 103 -44 157q0 53 26.5 90.5t79.5 37.5t78.5 -32t25.5 -80q0 -88 -90 -180q57 -143 111 -233q25 42 47 144l53 -18q-8 -36 -27.5 -91t-34.5 -84q42 -66 83 -100l-42 -50q-39 27 -80 93q-63 -93 -145 -93q-69 0 -112.5 50.5t-43.5 148.5z
M333 128q-78 131 -118 248q-38 -46 -57.5 -87.5t-19.5 -99.5q0 -66 27.5 -102.5t69.5 -36.5q29 0 56 24t42 54zM209 584q0 -54 28 -118q54 59 54 119q0 68 -40 68q-20 0 -31 -19t-11 -50z" />
    <glyph glyph-name="quotesingle" unicode="'" horiz-adv-x="153" 
d="M59 507v193h62l-22 -193h-40z" />
    <glyph glyph-name="parenleft" unicode="(" horiz-adv-x="198" 
d="M193 -195l-44 -25q-57 90 -83.5 214.5t-26.5 248.5q0 123 27 248t85 221l43 -21q-88 -177 -88 -448q0 -109 22 -232.5t65 -205.5z" />
    <glyph glyph-name="parenright" unicode=")" horiz-adv-x="198" 
d="M4 690l45 22q57 -89 84 -213.5t27 -249.5q0 -123 -27 -248t-85 -221l-42 23q87 174 87 446q0 108 -23 233.5t-66 207.5z" />
    <glyph glyph-name="asterisk" unicode="*" horiz-adv-x="245" 
d="M51 670l40 23l17 -34l13 -49l12 48l19 34l40 -22l-20 -36l-33 -40l45 9h38v-46h-34l-45 10l33 -40l17 -33l-38 -23l-18 35l-16 51l-12 -49l-18 -34l-41 22l20 36l31 35l-40 -10h-38v47h38l43 -10l-34 37z" />
    <glyph glyph-name="plus" unicode="+" horiz-adv-x="347" 
d="M32 311v62h110v138h63v-138h110v-62h-110v-138h-63v138h-110z" />
    <glyph glyph-name="comma" unicode="," horiz-adv-x="157" 
d="M27 43q0 25 13 40t34 15q52 0 52 -86q0 -57 -25 -100t-54 -57l-24 29q20 14 35.5 45.5t15.5 60.5q-3 -1 -8 -1q-16 0 -27.5 14.5t-11.5 39.5z" />
    <glyph glyph-name="hyphen" unicode="-" horiz-adv-x="239" 
d="M39 251v65h162v-65h-162z" />
    <glyph glyph-name="period" unicode="." horiz-adv-x="151" 
d="M31 43q0 55 44 55q45 0 45 -55t-45 -55q-44 0 -44 55z" />
    <glyph glyph-name="slash" unicode="/" horiz-adv-x="250" 
d="M-21 -123l240 835l52 -18l-238 -834z" />
    <glyph glyph-name="zero" unicode="0" 
d="M39 350q0 197 38 279.5t116 82.5q82 0 118.5 -82t36.5 -280q0 -197 -38 -279.5t-115 -82.5q-83 0 -119.5 81t-36.5 281zM106 350q0 -153 21.5 -226.5t68.5 -73.5q45 0 65 69.5t20 230.5q0 155 -20.5 227.5t-67.5 72.5q-45 0 -66 -69.5t-21 -230.5z" />
    <glyph glyph-name="one" unicode="1" 
d="M88 0v62h90v488l9 59l-28 -47l-64 -60l-38 40l152 170h36v-650h90v-62h-247z" />
    <glyph glyph-name="two" unicode="2" 
d="M313 551q0 -103 -45 -232.5t-99 -217.5l-34 -44v-3l45 8h143v-62h-268v35q65 96 128 243.5t63 260.5q0 53 -20.5 82t-58.5 29q-41 0 -80 -29l-24 50q48 41 121 41q62 0 95.5 -43.5t33.5 -117.5z" />
    <glyph glyph-name="three" unicode="3" 
d="M166 50q42 0 69 43t27 110q0 145 -98 145h-49v28l95 226l33 41l-46 -5h-128v62h241v-29l-106 -239l-25 -29v-2l25 6q54 -1 89.5 -50.5t35.5 -143.5q0 -105 -46 -165t-116 -60q-63 0 -101 22l18 62q33 -22 82 -22z" />
    <glyph glyph-name="four" unicode="4" 
d="M365 277v-62h-75v-215h-65v215h-201v33l214 463h52v-434h75zM225 277v226l12 90h-4l-26 -82l-86 -192l-32 -49l44 7h92z" />
    <glyph glyph-name="five" unicode="5" 
d="M148 50q48 0 76 44t28 119q0 153 -108 153l-53 -5v339h213v-67h-154v-207l28 2q65 0 103 -55t38 -154q0 -109 -47 -170t-119 -61q-58 0 -94 18l15 60q27 -16 74 -16z" />
    <glyph glyph-name="six" unicode="6" 
d="M343 211q0 -107 -38 -165t-107 -58q-149 0 -149 247q0 208 64 326.5t162 150.5l23 -54q-72 -29 -119 -108.5t-61 -196.5q26 63 98 63q59 0 93 -51t34 -154zM276 203q0 151 -81 151q-28 0 -49.5 -22.5t-30.5 -54.5q-2 -17 -2 -53q0 -73 22 -123.5t63 -50.5q36 0 57 39.5
t21 113.5z" />
    <glyph glyph-name="seven" unicode="7" 
d="M153 0h-66l166 595l29 49l-39 -11h-187v67h284v-27z" />
    <glyph glyph-name="eight" unicode="8" 
d="M53 158q0 121 89 204q-37 33 -57.5 73t-20.5 102q0 83 35.5 129t97.5 46q58 0 91.5 -42t33.5 -117q0 -104 -75 -188q42 -36 64 -79t22 -114q0 -86 -38 -135t-104 -49q-64 0 -101 46t-37 124zM268 168q0 59 -21 94.5t-62 70.5q-67 -63 -67 -163q0 -54 19.5 -87t55.5 -33
q33 0 54 29t21 89zM129 539q0 -50 19.5 -83t56.5 -65q55 77 55 146q0 55 -18 84t-46 29q-31 0 -49 -31t-18 -80z" />
    <glyph glyph-name="nine" unicode="9" 
d="M44 488q0 109 37.5 166.5t109.5 57.5q149 0 149 -252q0 -213 -62.5 -328.5t-165.5 -143.5l-21 56q155 57 178 290q-17 -27 -37.5 -38.5t-52.5 -11.5q-57 0 -96 52.5t-39 151.5zM111 496q0 -70 22.5 -110t59.5 -40q28 0 49.5 16.5t30.5 42.5q2 17 2 51q0 85 -22 139.5
t-65 54.5q-36 0 -56.5 -42t-20.5 -112z" />
    <glyph glyph-name="colon" unicode=":" horiz-adv-x="168" 
d="M65 446q0 55 44 55q45 0 45 -55t-45 -55q-44 0 -44 55zM65 55q0 55 44 55q45 0 45 -55t-45 -55q-44 0 -44 55z" />
    <glyph glyph-name="semicolon" unicode=";" horiz-adv-x="183" 
d="M65 43q0 25 13 40t34 15q52 0 52 -86q0 -57 -25 -100t-54 -57l-24 29q20 14 35.5 45.5t15.5 60.5q-3 -1 -8 -1q-16 0 -27.5 14.5t-11.5 39.5zM76 446q0 55 44 55q45 0 45 -55t-45 -55q-44 0 -44 55z" />
    <glyph glyph-name="less" unicode="&#x3c;" horiz-adv-x="347" 
d="M277 95l-246 210v29l241 217l41 -48l-157 -145l-60 -38l59 -32l161 -144z" />
    <glyph glyph-name="equal" unicode="=" horiz-adv-x="347" 
d="M32 393v62h283v-62h-283zM32 227v62h283v-62h-283z" />
    <glyph glyph-name="greater" unicode="&#x3e;" horiz-adv-x="347" 
d="M73 551l243 -207v-29l-239 -216l-44 46l160 145l60 38l-59 32l-163 144z" />
    <glyph glyph-name="question" unicode="?" horiz-adv-x="298" 
d="M157 177h-56q0 4 -0.5 10.5t-0.5 9.5q0 51 17 98.5t37.5 79.5t37.5 79t17 96q0 100 -70 100q-44 0 -84 -32l-28 51q55 43 127 43q60 0 91.5 -39t31.5 -114q0 -56 -18.5 -108.5t-41 -87t-41.5 -84.5t-19 -102zM88 43q0 55 44 55q45 0 45 -55t-45 -55q-44 0 -44 55z" />
    <glyph glyph-name="at" unicode="@" horiz-adv-x="701" 
d="M439 464l20 27h32l-33 -293q-5 -47 -5 -75q0 -58 26 -58q43 0 77 70t34 191q0 130 -59.5 197t-166.5 67q-108 0 -180.5 -95.5t-72.5 -252.5q0 -162 67.5 -241t179.5 -79q56 0 94 21l16 -50q-51 -26 -118 -26q-128 0 -212.5 89.5t-84.5 279.5t90.5 299.5t222.5 109.5
q129 0 205.5 -80t76.5 -239q0 -142 -54 -232t-132 -90q-63 0 -63 76v9h-2q-45 -85 -108 -85q-39 0 -63.5 37t-24.5 106q0 159 49 255t122 96q38 0 67 -34zM396 163l24 242q-17 32 -47 32q-45 0 -76.5 -80t-31.5 -191q0 -101 47 -101q21 0 44 29.5t40 68.5z" />
    <glyph glyph-name="A" unicode="A" horiz-adv-x="389" 
d="M314 0l-45 198h-154l-43 -198h-69l170 711h43l171 -711h-73zM177 477l-46 -217h124l-46 219l-15 105h-2z" />
    <glyph glyph-name="B" unicode="B" 
d="M341 541q0 -57 -21 -105t-65 -66v-4q100 -26 100 -167q0 -104 -48 -155.5t-128 -51.5q-87 0 -129 13v689q58 14 131 14q74 0 117 -35t43 -132zM184 57q45 0 72 37t27 101q0 76 -29.5 103t-81.5 27h-52v-261q15 -7 64 -7zM120 387h32q28 0 50 5q30 14 48.5 49t18.5 82
q0 120 -87 120q-48 0 -62 -5v-251z" />
    <glyph glyph-name="C" unicode="C" horiz-adv-x="372" 
d="M336 85l16 -60q-38 -37 -119 -37q-200 0 -200 362q0 191 55 276.5t146 85.5q66 0 112 -24l-17 -64q-37 23 -88 23q-62 0 -99 -71t-37 -226q0 -146 37 -221.5t107 -75.5q42 0 87 32z" />
    <glyph glyph-name="D" unicode="D" horiz-adv-x="430" 
d="M50 -1v701q51 8 124 8q124 0 173.5 -89t49.5 -263q0 -79 -10.5 -140.5t-35 -114.5t-71 -81.5t-112.5 -28.5q-78 0 -118 8zM179 643q-45 0 -59 -5v-578q16 -4 56 -4q149 0 149 300q0 63 -5.5 110t-20.5 89.5t-45 65t-75 22.5z" />
    <glyph glyph-name="E" unicode="E" horiz-adv-x="350" 
d="M50 0v700h259v-65h-189v-243h173v-65h-173v-262h193v-65h-263z" />
    <glyph glyph-name="F" unicode="F" horiz-adv-x="338" 
d="M50 0v700h259v-65h-189v-253h176v-65h-176v-317h-70z" />
    <glyph glyph-name="G" unicode="G" horiz-adv-x="402" 
d="M209 307v42h161v-309q-47 -52 -136 -52q-201 0 -201 362q0 186 57 274t149 88q69 0 114 -24l-16 -64q-37 23 -90 23q-64 0 -103 -71t-39 -226q0 -297 139 -297q40 0 68 25v211z" />
    <glyph glyph-name="H" unicode="H" horiz-adv-x="437" 
d="M317 0v326h-197v-326h-70v700h70v-309h197v309h70v-700h-70z" />
    <glyph glyph-name="I" unicode="I" horiz-adv-x="191" 
d="M61 0v700h70v-700h-70z" />
    <glyph glyph-name="J" unicode="J" horiz-adv-x="205" 
d="M79 169v531h70v-541q0 -88 -21.5 -128.5t-80.5 -40.5q-41 0 -68 16l16 61q16 -12 40 -12q29 0 36.5 26t7.5 88z" />
    <glyph glyph-name="K" unicode="K" horiz-adv-x="406" 
d="M302 0l-155 324h-27v-324h-70v700h70v-326l26 14l142 312h80l-145 -302l-31 -32l35 -40l161 -326h-86z" />
    <glyph glyph-name="L" unicode="L" horiz-adv-x="340" 
d="M330 65v-65h-280v700h70v-635h210z" />
    <glyph glyph-name="M" unicode="M" horiz-adv-x="524" 
d="M404 0v452l10 108h-4l-27 -103l-110 -294h-24l-115 294l-27 103h-4l14 -108v-452h-67v700h65l130 -333l20 -85h1l19 86l124 332h65v-700h-70z" />
    <glyph glyph-name="N" unicode="N" horiz-adv-x="439" 
d="M343 -11l-201 444l-34 118h-3l12 -118v-433h-67v711h46l202 -444l32 -113h4l-11 113v433h67v-711h-47z" />
    <glyph glyph-name="O" unicode="O" horiz-adv-x="447" 
d="M33 350q0 182 45.5 272t144.5 90q104 0 147.5 -92t43.5 -270q0 -182 -46 -272t-145 -90q-103 0 -146.5 92t-43.5 270zM105 350q0 -84 10.5 -147.5t38 -106.5t69.5 -43q119 0 119 297q0 131 -28 214t-91 83q-118 0 -118 -297z" />
    <glyph glyph-name="P" unicode="P" horiz-adv-x="372" 
d="M50 0v692q48 16 117 16q184 0 184 -215q0 -118 -51 -174.5t-128 -56.5q-40 0 -52 4v-266h-70zM172 643q-37 0 -52 -5v-306q9 -5 45 -5q114 0 114 167q0 149 -107 149z" />
    <glyph glyph-name="Q" unicode="Q" horiz-adv-x="447" 
d="M463 -98v-65q-28 -12 -63 -12q-47 0 -125 33t-107 33q-16 0 -31 -6v65q19 6 38 6q35 0 109.5 -32t119.5 -32q29 0 59 10zM33 350q0 182 45.5 272t144.5 90q104 0 148 -92t44 -270q0 -182 -46 -272t-146 -90q-103 0 -146.5 92t-43.5 270zM105 350q0 -84 10.5 -147.5
t38 -106.5t69.5 -43q120 0 120 297q0 62 -6 113t-19.5 93.5t-37.5 66.5t-57 24q-118 0 -118 -297z" />
    <glyph glyph-name="R" unicode="R" horiz-adv-x="395" 
d="M50 0v693q55 15 120 15q164 0 164 -192q0 -164 -102 -197l32 -39l110 -280h-79l-118 307l-57 15v-322h-70zM176 643q-40 0 -56 -6v-268h45q97 0 97 143q0 59 -21.5 95t-64.5 36z" />
    <glyph glyph-name="S" unicode="S" horiz-adv-x="350" 
d="M253 165q0 41 -22 79.5t-54 69.5l-64 66q-32 34 -54 79.5t-22 97.5q0 79 42.5 117t111.5 38q76 0 123 -31l-22 -63q-39 29 -100 29q-43 0 -64 -23.5t-21 -64.5q0 -35 22 -70.5t54 -67t64 -66.5t54 -83t22 -102q0 -86 -44.5 -134t-125.5 -48q-83 0 -129 35l24 66
q45 -36 104 -36q49 0 75 28.5t26 83.5z" />
    <glyph glyph-name="T" unicode="T" horiz-adv-x="370" 
d="M360 700v-65h-140v-635h-70v635h-140v65h350z" />
    <glyph glyph-name="U" unicode="U" horiz-adv-x="421" 
d="M307 251v449h67v-470q0 -126 -39 -182.5t-120 -56.5q-90 0 -129 53.5t-39 168.5v487h70v-449q0 -108 21 -151.5t78 -43.5q53 0 72 44.5t19 150.5z" />
    <glyph glyph-name="V" unicode="V" horiz-adv-x="384" 
d="M76 700l105 -477l15 -107h1l16 109l101 475h73l-173 -711h-42l-175 711h79z" />
    <glyph glyph-name="W" unicode="W" horiz-adv-x="554" 
d="M79 700l72 -459l10 -118h2l9 120l88 457h46l85 -458l10 -119h1l11 120l68 457h70l-128 -711h-46l-87 455l-10 108h-3l-11 -109l-87 -454h-47l-129 711h76z" />
    <glyph glyph-name="X" unicode="X" horiz-adv-x="412" 
d="M14 0l147 356l-134 344h82l85 -237l16 -60l16 60l89 237h76l-139 -337l145 -363h-80l-94 251l-18 63l-18 -63l-96 -251h-77z" />
    <glyph glyph-name="Y" unicode="Y" horiz-adv-x="377" 
d="M154 0v278l-151 422h80l98 -304l11 -61h2l10 63l96 302h74l-150 -421v-279h-70z" />
    <glyph glyph-name="Z" unicode="Z" horiz-adv-x="360" 
d="M23 0v65l221 530l27 40h-248v65h314v-65l-222 -533l-26 -37h248v-65h-314z" />
    <glyph glyph-name="bracketleft" unicode="[" horiz-adv-x="208" 
d="M50 -230v930h135v-62h-68v-806h68v-62h-135z" />
    <glyph glyph-name="backslash" unicode="\" horiz-adv-x="267" 
d="M35 712l243 -833l-56 -19l-243 834z" />
    <glyph glyph-name="bracketright" unicode="]" horiz-adv-x="208" 
d="M159 700v-930h-136v62h69v806h-69v62h136z" />
    <glyph glyph-name="asciicircum" unicode="^" horiz-adv-x="345" 
d="M34 435l125 276h31l115 -276h-68l-49 135l-15 70l-19 -71l-56 -134h-64z" />
    <glyph glyph-name="underscore" unicode="_" horiz-adv-x="279" 
d="M0 -205v60h279v-60h-279z" />
    <glyph glyph-name="grave" unicode="`" horiz-adv-x="236" 
d="M134 720l42 -149h-38l-78 128v21h74z" />
    <glyph glyph-name="a" unicode="a" horiz-adv-x="327" 
d="M66 421l-22 53q49 34 130 34q63 0 86.5 -39t23.5 -113q0 -41 -2 -117.5t-2 -108.5q0 -84 10 -132h-51l-15 50h-3q-29 -54 -97 -54q-46 0 -74 37.5t-28 102.5q0 152 163 152q21 0 32 -1q2 40 2 54q0 58 -14 82.5t-48 24.5q-53 0 -91 -25zM144 56q52 0 74 51v123
q-11 2 -32 2q-96 0 -96 -90q0 -42 14.5 -64t39.5 -22z" />
    <glyph glyph-name="b" unicode="b" horiz-adv-x="355" 
d="M45 24v676h67v-229h2q35 41 88 41q125 0 125 -254q0 -134 -42.5 -200.5t-120.5 -66.5t-119 33zM182 450q-50 0 -70 -58v-326q20 -13 59 -13q41 0 64.5 52t23.5 153q0 192 -77 192z" />
    <glyph glyph-name="c" unicode="c" horiz-adv-x="285" 
d="M255 73l18 -53q-39 -32 -100 -32q-145 0 -145 262q0 127 37.5 194.5t107.5 67.5q61 0 95 -23l-18 -56q-31 17 -68 17q-86 0 -86 -200t94 -200q38 0 65 23z" />
    <glyph glyph-name="d" unicode="d" horiz-adv-x="354" 
d="M309 700v-528q0 -121 7 -174h-46l-13 51h-3q-11 -27 -36 -44t-58 -17q-132 0 -132 260q0 126 39 193t110 67q39 0 65 -13v205h67zM172 50q53 0 70 68v308q-20 20 -59 20q-41 0 -64 -50t-23 -148q0 -198 76 -198z" />
    <glyph glyph-name="e" unicode="e" horiz-adv-x="334" 
d="M272 80l24 -51q-43 -41 -115 -41q-78 0 -115.5 69t-37.5 193q0 127 39 194.5t111 67.5q128 0 128 -183q0 -48 -5 -87h-205q2 -192 101 -192q47 0 75 30zM178 450q-73 0 -80 -151h145v18q0 65 -17.5 99t-47.5 34z" />
    <glyph glyph-name="f" unicode="f" horiz-adv-x="211" 
d="M12 438v62h48v28q0 93 24 135.5t76 42.5q47 0 76 -15l-17 -58q-22 11 -49 11t-35 -29t-8 -115h81v-62h-81v-438h-67v438h-48z" />
    <glyph glyph-name="g" unicode="g" horiz-adv-x="353" 
d="M309 479v-502q0 -189 -140 -189q-74 0 -116 28l21 59q46 -25 87 -25q45 0 63.5 34t18.5 117v29h-3q-27 -41 -84 -41q-65 0 -96.5 63t-31.5 196q0 128 41.5 194t120.5 66q66 0 119 -29zM174 51q51 0 68 61v320q-21 14 -56 14q-42 0 -66 -48.5t-24 -148.5q0 -198 78 -198z
" />
    <glyph glyph-name="h" unicode="h" horiz-adv-x="359" 
d="M319 0h-67v318q0 69 -13 100.5t-49 31.5q-27 0 -48.5 -20.5t-29.5 -51.5v-378h-67v700h67v-239h2q40 51 100 51q55 0 80 -39.5t25 -133.5v-339z" />
    <glyph glyph-name="i" unicode="i" horiz-adv-x="178" 
d="M55 0v500h67v-500h-67zM44 652q0 25 12 38.5t32 13.5t33 -13.5t13 -38.5q0 -24 -12.5 -36.5t-33.5 -12.5q-44 0 -44 49z" />
    <glyph glyph-name="j" unicode="j" horiz-adv-x="177" 
d="M56 2v498h67v-527q0 -185 -100 -185q-7 0 -23 2v63q35 0 45.5 34t10.5 115zM44 652q0 25 12 38.5t32 13.5t33 -13.5t13 -38.5q0 -24 -12.5 -36.5t-33.5 -12.5q-44 0 -44 49z" />
    <glyph glyph-name="k" unicode="k" horiz-adv-x="319" 
d="M238 0l-97 225h-29v-225h-67v700h67v-426l26 14l89 212h75l-92 -203l-29 -32l34 -38l100 -227h-77z" />
    <glyph glyph-name="l" unicode="l" horiz-adv-x="191" 
d="M116 700v-585q0 -62 28 -62q21 0 38 9l6 -54q-20 -17 -67 -17q-72 0 -72 101v608h67z" />
    <glyph glyph-name="m" unicode="m" horiz-adv-x="531" 
d="M302 0h-67v308q0 82 -10.5 112t-43.5 30q-25 0 -43.5 -23.5t-25.5 -54.5v-372h-67v500h49l11 -48h2q35 60 101 60q32 0 50.5 -15t30.5 -54q15 32 43 50.5t60 18.5q55 0 77.5 -35.5t22.5 -129.5v-347h-67v332q0 63 -11 90.5t-42 27.5q-27 0 -45 -19.5t-25 -51.5v-379z" />
    <glyph glyph-name="n" unicode="n" horiz-adv-x="359" 
d="M319 0h-67v320q0 72 -13.5 101t-47.5 29q-55 0 -79 -69v-381h-67v500h50l10 -47h3q38 59 105 59q54 0 80 -38.5t26 -133.5v-340z" />
    <glyph glyph-name="o" unicode="o" horiz-adv-x="353" 
d="M28 250q0 262 149 262q77 0 112.5 -61.5t35.5 -200.5t-37.5 -200.5t-110.5 -61.5q-77 0 -113 61.5t-36 200.5zM96 250q0 -200 81 -200q41 0 60.5 47t19.5 153q0 200 -80 200q-81 0 -81 -200z" />
    <glyph glyph-name="p" unicode="p" horiz-adv-x="356" 
d="M45 -200v700h48l10 -49h2q33 61 96 61q65 0 96 -60t31 -192q0 -127 -40 -199.5t-110 -72.5q-40 0 -66 15v-203h-67zM184 450q-54 0 -72 -75v-301q22 -24 59 -24q42 0 65.5 55.5t23.5 155.5q0 189 -76 189z" />
    <glyph glyph-name="q" unicode="q" horiz-adv-x="353" 
d="M309 478v-678h-67v234h-3q-29 -46 -83 -46q-128 0 -128 260q0 128 42 194t123 66q69 0 116 -30zM171 50q53 0 71 71v310q-20 15 -60 15q-41 0 -63.5 -49.5t-22.5 -147.5q0 -90 18.5 -144.5t56.5 -54.5z" />
    <glyph glyph-name="r" unicode="r" horiz-adv-x="225" 
d="M223 500l-12 -70q-19 8 -37 8q-24 0 -40.5 -15t-21.5 -41v-382h-67v500h48l11 -48h3q24 56 75 56q21 0 41 -8z" />
    <glyph glyph-name="s" unicode="s" horiz-adv-x="276" 
d="M186 113q0 35 -16 62.5t-38 47.5l-46 41q-23 21 -39 53t-16 74q0 58 30.5 89.5t84.5 31.5q62 0 100 -25l-18 -57q-35 20 -73 20q-57 0 -57 -58q0 -27 16 -50.5t38 -43.5l46 -42q23 -23 39 -59.5t16 -81.5q0 -53 -33.5 -90t-93.5 -37q-62 0 -104 26l19 61q41 -25 81 -25
q28 0 46 16.5t18 46.5z" />
    <glyph glyph-name="t" unicode="t" horiz-adv-x="226" 
d="M7 438v62h49v99l67 23v-122h85v-62h-85v-313q0 -72 35 -72q24 0 51 11l12 -54q-35 -19 -86 -19q-41 0 -60 30.5t-19 96.5v320h-49z" />
    <glyph glyph-name="u" unicode="u" horiz-adv-x="355" 
d="M40 500h67v-323q0 -70 12 -98.5t39 -28.5q30 0 51.5 27.5t32.5 65.5v357h67v-358q0 -84 9 -142h-48l-15 64h-3q-15 -32 -42 -54t-63 -22q-55 0 -81 35.5t-26 136.5v340z" />
    <glyph glyph-name="v" unicode="v" horiz-adv-x="317" 
d="M75 500l73 -293l15 -101h3l14 103l68 291h69l-138 -511h-37l-142 511h75z" />
    <glyph glyph-name="w" unicode="w" horiz-adv-x="481" 
d="M221 500h49l69 -292l14 -96h2l11 98l53 290h60l-106 -511h-42l-79 327l-9 85h-3l-9 -87l-76 -325h-43l-110 511h70l60 -291l10 -97h2l13 99z" />
    <glyph glyph-name="x" unicode="x" horiz-adv-x="336" 
d="M13 0l113 256l-105 244h77l58 -147l14 -55l16 55l59 147h71l-106 -240l113 -260h-72l-69 161l-16 59l-16 -59l-67 -161h-70z" />
    <glyph glyph-name="y" unicode="y" horiz-adv-x="309" 
d="M78 500l74 -324l17 -96h3l11 97l60 323h66l-97 -449l-16 -73l-16 -60.5t-17.5 -52.5t-19.5 -37t-24 -25.5t-28 -7.5q-27 0 -42 9l11 65q10 -2 13 -2q45 0 63 133l-134 500h76z" />
    <glyph glyph-name="z" unicode="z" horiz-adv-x="295" 
d="M25 0v62l151 333l30 43h-181v62h244v-62l-153 -336l-29 -40h182v-62h-244z" />
    <glyph glyph-name="braceleft" unicode="{" horiz-adv-x="235" 
d="M85 -132v248q0 49 -13 69t-40 20v60q53 0 53 85v252q0 49 15 74t51 25h67v-62h-33q-19 0 -26 -11.5t-7 -43.5v-249q0 -85 -47 -95v-6q20 -4 33.5 -31t13.5 -68v-248q0 -32 7 -43.5t27 -11.5h32v-62h-67q-34 0 -50 23.5t-16 74.5z" />
    <glyph glyph-name="bar" unicode="|" horiz-adv-x="155" 
d="M50 -130v830h55v-830h-55z" />
    <glyph glyph-name="braceright" unicode="}" horiz-adv-x="235" 
d="M158 603v-248q0 -49 13 -69t40 -20v-60q-53 0 -53 -85v-252q0 -99 -67 -99h-66v62h33q20 0 26.5 11t6.5 44v249q0 85 47 95v6q-20 4 -33.5 31t-13.5 68v248q0 32 -7 43.5t-27 11.5h-32v62h67q34 0 50 -23.5t16 -74.5z" />
    <glyph glyph-name="asciitilde" unicode="~" horiz-adv-x="347" 
d="M50 303l-32 58q55 60 101 60q28 0 69 -27t58 -27q24 0 49 32l34 -59q-47 -48 -87 -48q-26 1 -65.5 28t-60.5 27q-30 0 -66 -44z" />
    <glyph glyph-name="uni00A0" unicode="&#xa0;" horiz-adv-x="171" 
 />
    <glyph glyph-name="exclamdown" unicode="&#xa1;" horiz-adv-x="202" 
d="M120 147v-347h-67v347l14 176h39zM41 450q0 55 44 55q45 0 45 -55t-45 -55q-44 0 -44 55z" />
    <glyph glyph-name="cent" unicode="&#xa2;" 
d="M310 76l16 -53q-28 -28 -72 -35v-88h-61v88q-122 24 -122 262q0 112 31.5 178.5t90.5 79.5v92h61v-90q44 -5 67 -21l-17 -58q-27 14 -56 17v-398q34 4 62 26zM138 250q0 -166 66 -195v391q-66 -24 -66 -196z" />
    <glyph glyph-name="sterling" unicode="&#xa3;" 
d="M43 321v60h46q-21 68 -21 147q0 184 141 184q73 0 120 -26l-22 -56q-35 20 -94 20q-77 0 -77 -130q0 -63 24 -139h103v-60h-85q15 -62 15 -111q0 -30 -8 -65.5t-20 -55.5l-39 -35v-5l57 13h161v-62h-301v62q40 0 61 43.5t21 98.5q0 56 -18 117h-64z" />
    <glyph glyph-name="currency" unicode="&#xa4;" 
d="M-8 528l40 39l62 -61l17 -28q34 26 82 26q45 0 82 -25l18 27l62 61l39 -39l-61 -63l-28 -17q25 -34 25 -81q0 -50 -25 -82l28 -17l61 -62l-39 -39l-62 61l-17 27q-34 -25 -83 -25q-48 0 -82 25l-17 -27l-62 -61l-40 39l62 62l27 17q-25 34 -25 82q0 46 25 82l-27 16z
M112 367q0 -36 22.5 -60t58.5 -24q35 0 58 24t23 60t-23 60t-58 24q-36 0 -58.5 -24t-22.5 -60z" />
    <glyph glyph-name="yen" unicode="&#xa5;" 
d="M76 268v56h66l-134 376h80l98 -304l11 -61h2l10 63l96 302h74l-134 -376h67v-56h-83v-67h83v-56h-83v-145h-70v145h-83v56h83v67h-83z" />
    <glyph glyph-name="brokenbar" unicode="&#xa6;" horiz-adv-x="155" 
d="M50 0v276h55v-276h-55zM105 700v-276h-55v276h55z" />
    <glyph glyph-name="section" unicode="&#xa7;" horiz-adv-x="336" 
d="M36 353q0 70 43 116l30 15q-49 45 -49 109q0 53 29.5 86t85.5 33q66 0 104 -25l-17 -58q-44 21 -80 21q-27 0 -41 -16.5t-14 -41.5q0 -29 18 -49.5t43 -35.5t50.5 -32.5t43.5 -49.5t18 -78q0 -76 -41 -121l-29 -14q46 -42 46 -105q0 -57 -31.5 -88t-88.5 -31
q-64 0 -101 25l19 59q29 -22 75 -22q60 0 60 62q0 26 -18 45t-43.5 34t-50.5 33t-43 51t-18 78zM233 345q0 28 -13 49t-27.5 31.5t-44.5 27.5q-45 -32 -45 -98q0 -39 23 -64.5t65 -47.5q18 14 30 42t12 60z" />
    <glyph glyph-name="dieresis" unicode="&#xa8;" horiz-adv-x="330" 
d="M60 653q0 22 11 35t28 13t27.5 -13t10.5 -35q0 -21 -10.5 -33.5t-27.5 -12.5t-28 12.5t-11 33.5zM194 653q0 22 10.5 35t27.5 13t27.5 -13t10.5 -35q0 -21 -10.5 -33.5t-27.5 -12.5t-27.5 12.5t-10.5 33.5z" />
    <glyph glyph-name="copyright" unicode="&#xa9;" horiz-adv-x="609" 
d="M48 295q0 117 73.5 186.5t183.5 69.5q109 0 182.5 -69.5t73.5 -186.5t-73.5 -186.5t-182.5 -69.5q-118 0 -187.5 68t-69.5 188zM101 295q0 -98 57.5 -153t146.5 -55t146 55t57 153q0 97 -57.5 152.5t-145.5 55.5q-89 0 -146.5 -55.5t-57.5 -152.5zM376 227l15 -50
q-34 -20 -86 -20q-58 0 -89.5 37t-31.5 101q0 65 32.5 101.5t88.5 36.5q36 0 81 -20l-19 -51q-33 15 -55 15q-63 0 -63 -82t69 -82q33 0 58 14z" />
    <glyph glyph-name="ordfeminine" unicode="&#xaa;" horiz-adv-x="264" 
d="M59 639l-18 44q42 25 110 25q44 0 61.5 -24.5t17.5 -76.5q0 -27 -1 -74.5t-1 -67.5q0 -54 5 -85h-45l-10 40h-3q-20 -44 -66 -44q-38 0 -59.5 25.5t-21.5 69.5q0 58 35 84.5t92 26.5q3 0 9 -0.5t9 -0.5v16q0 32 -8 45.5t-30 13.5q-42 0 -76 -17zM122 428q35 0 51 37v68
q-7 1 -20 1q-67 0 -67 -58q0 -20 9.5 -34t26.5 -14z" />
    <glyph glyph-name="guillemotleft" unicode="&#xab;" horiz-adv-x="318" 
d="M253 40l-107 219l103 228l45 -26l-68 -160l-30 -41l30 -36l73 -157zM132 38l-109 221l105 230l48 -27l-70 -161l-32 -41l32 -36l75 -158z" />
    <glyph glyph-name="logicalnot" unicode="&#xac;" horiz-adv-x="347" 
d="M32 324v64h283v-188h-61v124h-222z" />
    <glyph glyph-name="uni00AD" unicode="&#xad;" horiz-adv-x="237" 
d="M36 251v74h165v-74h-165z" />
    <glyph glyph-name="registered" unicode="&#xae;" horiz-adv-x="509" 
d="M62 519q0 90 55 141t138 51t137.5 -51t54.5 -141t-55 -142t-137 -52q-84 0 -138.5 51.5t-54.5 142.5zM109 519q0 -73 41 -111.5t105 -38.5q65 0 105 38t40 112q0 72 -41 110t-104 38q-66 0 -106 -38t-40 -110zM179 424v189q26 7 73 7q74 0 74 -57q0 -22 -14.5 -35
t-36.5 -14l20 -10l54 -80h-45l-52 76l-35 11v-87h-38zM244 588q-21 0 -27 -4v-51h25q43 0 43 29q0 26 -41 26z" />
    <glyph glyph-name="macron" unicode="&#xaf;" horiz-adv-x="323" 
d="M60 585v58h203v-58h-203z" />
    <glyph glyph-name="macron" unicode="&#x2c9;" horiz-adv-x="323" 
d="M60 585v58h203v-58h-203z" />
    <glyph glyph-name="degree" unicode="&#xb0;" horiz-adv-x="281" 
d="M45 571q0 65 26 103t73 38q48 0 74 -36.5t26 -104.5t-26.5 -104.5t-74.5 -36.5q-47 0 -72.5 36.5t-25.5 104.5zM97 571q0 -41 12 -66.5t35 -25.5t35.5 26t12.5 66t-12.5 66t-35.5 26q-47 0 -47 -92z" />
    <glyph glyph-name="plusminus" unicode="&#xb1;" horiz-adv-x="347" 
d="M32 387v62h110v138h63v-138h110v-62h-110v-94h-63v94h-110zM32 182v62h283v-62h-283z" />
    <glyph glyph-name="twosuperior" unicode="&#xb2;" horiz-adv-x="284" 
d="M228 698q0 -104 -87 -243l-31 -32v-2l39 15h91v-56h-198v31q47 55 87 134t40 144q0 29 -11.5 45.5t-29.5 16.5q-38 0 -63 -20l-18 48q32 28 91 28q90 0 90 -109z" />
    <glyph glyph-name="threesuperior" unicode="&#xb3;" horiz-adv-x="284" 
d="M121 429q60 0 60 79q0 72 -61 72h-35v23l62 121l25 27l-35 -7h-84v56h175v-32l-65 -127l-19 -17v-3l19 3q35 0 56 -31.5t21 -84.5q0 -60 -32 -97.5t-81 -37.5q-44 0 -77 18l13 53q24 -15 58 -15z" />
    <glyph glyph-name="acute" unicode="&#xb4;" horiz-adv-x="228" 
d="M60 571l37 149h71v-21l-69 -128h-39z" />
    <glyph glyph-name="mu" unicode="&#xb5;" horiz-adv-x="373" 
d="M42 500h67v-316q0 -134 70 -134q62 0 84 72v378h67v-337q0 -105 9 -163h-47l-20 54h-3q-12 -30 -37 -48t-59 -18q-46 0 -75 43h-3l14 -98v-133h-67v700z" />
    <glyph glyph-name="mu" unicode="&#x3bc;" horiz-adv-x="373" 
d="M42 500h67v-316q0 -134 70 -134q62 0 84 72v378h67v-337q0 -105 9 -163h-47l-20 54h-3q-12 -30 -37 -48t-59 -18q-46 0 -75 43h-3l14 -98v-133h-67v700z" />
    <glyph glyph-name="paragraph" unicode="&#xb6;" horiz-adv-x="336" 
d="M231 -130v830h56v-830h-56zM120 -130v440q-45 0 -71.5 55.5t-26.5 140.5q0 84 31.5 139t84.5 55h38v-830h-56z" />
    <glyph glyph-name="periodcentered" unicode="&#xb7;" horiz-adv-x="173" 
d="M42 293q0 55 44 55q45 0 45 -55t-45 -55q-44 0 -44 55z" />
    <glyph glyph-name="cedilla" unicode="&#xb8;" horiz-adv-x="242" 
d="M144 0l-16 -43q54 -15 54 -75q0 -40 -25 -65t-65 -25q-12 0 -32 4l6 39q5 -1 15 -1q40 0 40 39q0 28 -56 37l34 90h45z" />
    <glyph glyph-name="onesuperior" unicode="&#xb9;" horiz-adv-x="284" 
d="M58 380v56h67v257l5 36l-19 -28l-45 -34l-26 35l104 105h39v-371h61v-56h-186z" />
    <glyph glyph-name="ordmasculine" unicode="&#xba;" horiz-adv-x="270" 
d="M27 542q0 170 108 170t108 -170q0 -169 -108 -169t-108 169zM87 542q0 -116 48 -116q25 0 36.5 24t11.5 92q0 67 -12 92t-36 25t-36 -25t-12 -92z" />
    <glyph glyph-name="guillemotright" unicode="&#xbb;" horiz-adv-x="318" 
d="M65 487l107 -219l-103 -228l-46 24l69 162l30 41l-30 36l-73 158zM186 489l109 -221l-105 -230l-48 25l70 163l32 41l-32 36l-74 159z" />
    <glyph glyph-name="onequarter" unicode="&#xbc;" horiz-adv-x="567" 
d="M529 150v-53h-51v-97h-58v97h-135v31l146 298h47v-276h51zM420 150v123l7 55h-4l-15 -53l-45 -99l-23 -30l34 4h46zM103 10l309 703l47 -20l-308 -705zM115 280v315l5 36l-19 -31l-45 -35l-25 40l102 102h40v-427h-58z" />
    <glyph glyph-name="onehalf" unicode="&#xbd;" horiz-adv-x="589" 
d="M540 318q0 -104 -87 -243l-31 -32v-2l39 15h91v-56h-198v31q47 55 87 134t40 144q0 29 -11.5 45.5t-29.5 16.5q-38 0 -63 -20l-18 48q32 28 91 28q90 0 90 -109zM103 10l309 703l47 -20l-308 -705zM115 280v315l5 36l-19 -31l-45 -35l-25 40l102 102h40v-427h-58z" />
    <glyph glyph-name="threequarters" unicode="&#xbe;" horiz-adv-x="586" 
d="M108 329q60 0 60 79q0 72 -61 72h-35v23l62 121l25 27l-35 -7h-84v56h175v-32l-65 -127l-19 -17v-3l19 3q35 0 56 -31.5t21 -84.5q0 -60 -32 -97.5t-81 -37.5q-44 0 -77 18l13 53q24 -15 58 -15zM549 150v-53h-51v-97h-58v97h-135v31l146 298h47v-276h51zM440 150v123
l7 55h-4l-15 -53l-45 -99l-23 -30l34 4h46zM124 10l309 703l47 -20l-308 -705z" />
    <glyph glyph-name="questiondown" unicode="&#xbf;" horiz-adv-x="299" 
d="M141 323h56q0 -4 0.5 -12t0.5 -12q0 -55 -16.5 -104t-37 -79t-37 -73t-16.5 -87q0 -46 17.5 -76t55.5 -30q51 0 87 31l21 -54q-46 -39 -121 -39q-62 0 -96 44.5t-34 113.5q0 47 12.5 88t30.5 71l34 61q18 31 30.5 71t12.5 86zM123 450q0 55 44 55q45 0 45 -55t-45 -55
q-44 0 -44 55z" />
    <glyph glyph-name="Agrave" unicode="&#xc0;" horiz-adv-x="389" 
d="M314 0l-45 198h-154l-43 -198h-69l170 711h43l171 -711h-73zM177 477l-46 -217h124l-46 219l-15 105h-2zM143 870l74 -118h-57l-104 97v21h87z" />
    <glyph glyph-name="Aacute" unicode="&#xc1;" horiz-adv-x="389" 
d="M314 0l-45 198h-154l-43 -198h-69l170 711h43l171 -711h-73zM177 477l-46 -217h124l-46 219l-15 105h-2zM172 752l74 118h88v-21l-107 -97h-55z" />
    <glyph glyph-name="Acircumflex" unicode="&#xc2;" horiz-adv-x="389" 
d="M314 0l-45 198h-154l-43 -198h-69l170 711h43l171 -711h-73zM177 477l-46 -217h124l-46 219l-15 105h-2zM87 769l87 101h44l83 -102v-21h-55l-39 49l-12 35l-13 -34l-42 -50h-53v22z" />
    <glyph glyph-name="Atilde" unicode="&#xc3;" horiz-adv-x="389" 
d="M314 0l-45 198h-154l-43 -198h-69l170 711h43l171 -711h-73zM177 477l-46 -217h124l-46 219l-15 105h-2zM99 746l-25 30q44 61 88 61q18 0 48 -15.5t43 -15.5q19 0 37 22l26 -33q-37 -51 -75 -51q-17 0 -47 15.5t-45 15.5q-24 0 -50 -29z" />
    <glyph glyph-name="Adieresis" unicode="&#xc4;" horiz-adv-x="389" 
d="M314 0l-45 198h-154l-43 -198h-69l170 711h43l171 -711h-73zM177 477l-46 -217h124l-46 219l-15 105h-2zM87 794q0 21 11 34t31 13q19 0 30 -13t11 -34t-11 -33.5t-30 -12.5q-42 0 -42 46zM220 794q0 21 11 34t30 13q41 0 41 -47q0 -46 -41 -46q-19 0 -30 12.5t-11 33.5z
" />
    <glyph glyph-name="Aring" unicode="&#xc5;" horiz-adv-x="389" 
d="M117 768q0 39 19.5 62t58.5 23q38 0 58 -22t20 -63q0 -65 -52 -80l166 -688h-73l-45 198h-154l-43 -198h-69l164 688q-50 15 -50 80zM177 477l-46 -217h124l-46 219l-15 105h-2zM166 768q0 -43 29 -43t29 43q0 45 -29 45t-29 -45z" />
    <glyph glyph-name="AE" unicode="&#xc6;" horiz-adv-x="561" 
d="M261 580h-2l-21 -94l-82 -223h105v317zM261 0v201h-130l-73 -201h-73l274 700h262v-65h-190v-243h173v-65h-173v-262h193v-65h-263z" />
    <glyph glyph-name="Ccedilla" unicode="&#xc7;" horiz-adv-x="372" 
d="M336 85l16 -60q-30 -30 -95 -37l-12 -31q54 -15 54 -75q0 -40 -25 -65t-65 -25q-12 0 -32 4l6 39q5 -1 15 -1q40 0 40 39q0 28 -56 37l30 78q-179 18 -179 362q0 191 55 276.5t146 85.5q66 0 112 -24l-17 -64q-37 23 -88 23q-62 0 -99 -71t-37 -226q0 -146 37 -221.5
t107 -75.5q42 0 87 32z" />
    <glyph glyph-name="Egrave" unicode="&#xc8;" horiz-adv-x="350" 
d="M50 0v700h259v-65h-189v-243h173v-65h-173v-262h193v-65h-263zM149 870l74 -118h-57l-104 97v21h87z" />
    <glyph glyph-name="Eacute" unicode="&#xc9;" horiz-adv-x="350" 
d="M50 0v700h259v-65h-189v-243h173v-65h-173v-262h193v-65h-263zM131 752l74 118h88v-21l-107 -97h-55z" />
    <glyph glyph-name="Ecircumflex" unicode="&#xca;" horiz-adv-x="350" 
d="M50 0v700h259v-65h-189v-243h173v-65h-173v-262h193v-65h-263zM69 769l87 101h44l83 -102v-21h-55l-39 49l-12 35l-13 -34l-42 -50h-53v22z" />
    <glyph glyph-name="Edieresis" unicode="&#xcb;" horiz-adv-x="350" 
d="M50 0v700h259v-65h-189v-243h173v-65h-173v-262h193v-65h-263zM70 794q0 21 11 34t31 13q19 0 30 -13t11 -34t-11 -33.5t-30 -12.5q-42 0 -42 46zM203 794q0 21 11 34t30 13q41 0 41 -47q0 -46 -41 -46q-19 0 -30 12.5t-11 33.5z" />
    <glyph glyph-name="Igrave" unicode="&#xcc;" horiz-adv-x="191" 
d="M61 0v700h70v-700h-70zM60 870l74 -118h-57l-104 97v21h87z" />
    <glyph glyph-name="Iacute" unicode="&#xcd;" horiz-adv-x="191" 
d="M59 752l74 118h88v-21l-107 -97h-55zM61 0v700h70v-700h-70z" />
    <glyph glyph-name="Icircumflex" unicode="&#xce;" horiz-adv-x="191" 
d="M-12 769l87 101h44l83 -102v-21h-55l-39 49l-12 35l-13 -34l-42 -50h-53v22zM61 0v700h70v-700h-70z" />
    <glyph glyph-name="Idieresis" unicode="&#xcf;" horiz-adv-x="191" 
d="M-12 794q0 21 11 34t31 13q19 0 30 -13t11 -34t-11 -33.5t-30 -12.5q-42 0 -42 46zM121 794q0 21 11 34t30 13q41 0 41 -47q0 -46 -41 -46q-19 0 -30 12.5t-11 33.5zM61 0v700h70v-700h-70z" />
    <glyph glyph-name="Eth" unicode="&#xd0;" horiz-adv-x="435" 
d="M-1 335v57h56v308q51 8 124 8q124 0 173.5 -89t49.5 -263q0 -79 -10.5 -140.5t-35 -114.5t-71 -81.5t-112.5 -28.5q-78 0 -118 8v336h-56zM184 643q-45 0 -59 -5v-246h94v-57h-94v-275q16 -4 56 -4q149 0 149 300q0 63 -5.5 110t-20.5 89.5t-45 65t-75 22.5z" />
    <glyph glyph-name="Ntilde" unicode="&#xd1;" horiz-adv-x="439" 
d="M343 -11l-201 444l-34 118h-3l12 -118v-433h-67v711h46l202 -444l32 -113h4l-11 113v433h67v-711h-47zM128 746l-25 30q44 61 88 61q18 0 48 -15.5t43 -15.5q19 0 37 22l26 -33q-37 -51 -75 -51q-17 0 -47 15.5t-45 15.5q-24 0 -50 -29z" />
    <glyph glyph-name="Ograve" unicode="&#xd2;" horiz-adv-x="447" 
d="M33 350q0 182 45.5 272t144.5 90q104 0 147.5 -92t43.5 -270q0 -182 -46 -272t-145 -90q-103 0 -146.5 92t-43.5 270zM105 350q0 -84 10.5 -147.5t38 -106.5t69.5 -43q119 0 119 297q0 131 -28 214t-91 83q-118 0 -118 -297zM200 870l74 -118h-57l-104 97v21h87z" />
    <glyph glyph-name="Oacute" unicode="&#xd3;" horiz-adv-x="447" 
d="M33 350q0 182 45.5 272t144.5 90q104 0 147.5 -92t43.5 -270q0 -182 -46 -272t-145 -90q-103 0 -146.5 92t-43.5 270zM105 350q0 -84 10.5 -147.5t38 -106.5t69.5 -43q119 0 119 297q0 131 -28 214t-91 83q-118 0 -118 -297zM200 752l74 118h88v-21l-107 -97h-55z" />
    <glyph glyph-name="Ocircumflex" unicode="&#xd4;" horiz-adv-x="447" 
d="M33 350q0 182 45.5 272t144.5 90q104 0 147.5 -92t43.5 -270q0 -182 -46 -272t-145 -90q-103 0 -146.5 92t-43.5 270zM105 350q0 -84 10.5 -147.5t38 -106.5t69.5 -43q119 0 119 297q0 131 -28 214t-91 83q-118 0 -118 -297zM116 769l87 101h44l83 -102v-21h-55l-39 49
l-12 35l-13 -34l-42 -50h-53v22z" />
    <glyph glyph-name="Otilde" unicode="&#xd5;" horiz-adv-x="447" 
d="M33 350q0 182 45.5 272t144.5 90q104 0 147.5 -92t43.5 -270q0 -182 -46 -272t-145 -90q-103 0 -146.5 92t-43.5 270zM105 350q0 -84 10.5 -147.5t38 -106.5t69.5 -43q119 0 119 297q0 131 -28 214t-91 83q-118 0 -118 -297zM127 746l-25 30q44 61 88 61q18 0 48 -15.5
t43 -15.5q19 0 37 22l26 -33q-37 -51 -75 -51q-17 0 -47 15.5t-45 15.5q-24 0 -50 -29z" />
    <glyph glyph-name="Odieresis" unicode="&#xd6;" horiz-adv-x="447" 
d="M33 350q0 182 45.5 272t144.5 90q104 0 147.5 -92t43.5 -270q0 -182 -46 -272t-145 -90q-103 0 -146.5 92t-43.5 270zM105 350q0 -84 10.5 -147.5t38 -106.5t69.5 -43q119 0 119 297q0 131 -28 214t-91 83q-118 0 -118 -297zM116 794q0 21 11 34t31 13q19 0 30 -13
t11 -34t-11 -33.5t-30 -12.5q-42 0 -42 46zM249 794q0 21 11 34t30 13q41 0 41 -47q0 -46 -41 -46q-19 0 -30 12.5t-11 33.5z" />
    <glyph glyph-name="multiply" unicode="&#xd7;" horiz-adv-x="347" 
d="M38 470l48 40l88 -118l88 118l48 -40l-96 -132l96 -131l-48 -40l-88 118l-88 -119l-49 39l98 134z" />
    <glyph glyph-name="Oslash" unicode="&#xd8;" horiz-adv-x="447" 
d="M33 350q0 182 45.5 272t144.5 90q71 0 114 -46l21 47l45 -21l-33 -73q44 -87 44 -269t-46 -272t-145 -90q-69 0 -112 43l-19 -43l-48 22l32 71q-43 86 -43 269zM105 350q0 -103 15 -170l182 409q-29 58 -79 58q-118 0 -118 -297zM342 350q0 98 -16 169l-181 -411
q31 -55 78 -55q119 0 119 297z" />
    <glyph glyph-name="Ugrave" unicode="&#xd9;" horiz-adv-x="421" 
d="M307 251v449h67v-470q0 -126 -39 -182.5t-120 -56.5q-90 0 -129 53.5t-39 168.5v487h70v-449q0 -108 21 -151.5t78 -43.5q53 0 72 44.5t19 150.5zM189 870l74 -118h-57l-104 97v21h87z" />
    <glyph glyph-name="Uacute" unicode="&#xda;" horiz-adv-x="421" 
d="M307 251v449h67v-470q0 -126 -39 -182.5t-120 -56.5q-90 0 -129 53.5t-39 168.5v487h70v-449q0 -108 21 -151.5t78 -43.5q53 0 72 44.5t19 150.5zM176 752l74 118h88v-21l-107 -97h-55z" />
    <glyph glyph-name="Ucircumflex" unicode="&#xdb;" horiz-adv-x="421" 
d="M307 251v449h67v-470q0 -126 -39 -182.5t-120 -56.5q-90 0 -129 53.5t-39 168.5v487h70v-449q0 -108 21 -151.5t78 -43.5q53 0 72 44.5t19 150.5zM104 769l87 101h44l83 -102v-21h-55l-39 49l-12 35l-13 -34l-42 -50h-53v22z" />
    <glyph glyph-name="Udieresis" unicode="&#xdc;" horiz-adv-x="421" 
d="M307 251v449h67v-470q0 -126 -39 -182.5t-120 -56.5q-90 0 -129 53.5t-39 168.5v487h70v-449q0 -108 21 -151.5t78 -43.5q53 0 72 44.5t19 150.5zM104 794q0 21 11 34t31 13q19 0 30 -13t11 -34t-11 -33.5t-30 -12.5q-42 0 -42 46zM237 794q0 21 11 34t30 13q41 0 41 -47
q0 -46 -41 -46q-19 0 -30 12.5t-11 33.5z" />
    <glyph glyph-name="Yacute" unicode="&#xdd;" horiz-adv-x="377" 
d="M154 0v278l-151 422h80l98 -304l11 -61h2l10 63l96 302h74l-150 -421v-279h-70zM153 752l74 118h88v-21l-107 -97h-55z" />
    <glyph glyph-name="Thorn" unicode="&#xde;" horiz-adv-x="372" 
d="M50 0v800h70v-94q30 2 47 2q184 0 184 -215q0 -118 -51 -174.5t-128 -56.5q-40 0 -52 4v-266h-70zM172 643q-37 0 -52 -5v-306q9 -5 45 -5q114 0 114 167q0 149 -107 149z" />
    <glyph glyph-name="germandbls" unicode="&#xdf;" horiz-adv-x="410" 
d="M60 500v26q0 96 35 138t101 42q57 0 96 -33.5t39 -96.5q0 -35 -21.5 -66.5t-43.5 -59.5t-22 -54q0 -27 14.5 -50t35.5 -42.5t42.5 -42t36 -58.5t14.5 -81q0 -54 -35 -94t-95 -40q-57 0 -91 24l18 59q35 -21 69 -21q27 0 47 20t20 51q0 35 -14.5 63t-35.5 48l-42 40
q-22 20 -36.5 51t-14.5 70q0 33 21.5 64.5t43.5 60t22 53.5q0 32 -20 52.5t-47 20.5q-38 0 -54.5 -29.5t-16.5 -114.5v-500h-66v438h-48v62h48z" />
    <glyph glyph-name="agrave" unicode="&#xe0;" horiz-adv-x="327" 
d="M66 421l-22 53q49 34 130 34q63 0 86.5 -39t23.5 -113q0 -41 -2 -117.5t-2 -108.5q0 -84 10 -132h-51l-15 50h-3q-29 -54 -97 -54q-46 0 -74 37.5t-28 102.5q0 152 163 152q21 0 32 -1q2 40 2 54q0 58 -14 82.5t-48 24.5q-53 0 -91 -25zM144 56q52 0 74 51v123
q-11 2 -32 2q-96 0 -96 -90q0 -42 14.5 -64t39.5 -22zM155 720l42 -149h-38l-78 128v21h74z" />
    <glyph glyph-name="aacute" unicode="&#xe1;" horiz-adv-x="327" 
d="M66 421l-22 53q49 34 130 34q63 0 86.5 -39t23.5 -113q0 -41 -2 -117.5t-2 -108.5q0 -84 10 -132h-51l-15 50h-3q-29 -54 -97 -54q-46 0 -74 37.5t-28 102.5q0 152 163 152q21 0 32 -1q2 40 2 54q0 58 -14 82.5t-48 24.5q-53 0 -91 -25zM144 56q52 0 74 51v123
q-11 2 -32 2q-96 0 -96 -90q0 -42 14.5 -64t39.5 -22zM124 571l37 149h71v-21l-69 -128h-39z" />
    <glyph glyph-name="acircumflex" unicode="&#xe2;" horiz-adv-x="327" 
d="M66 421l-22 53q49 34 130 34q63 0 86.5 -39t23.5 -113q0 -41 -2 -117.5t-2 -108.5q0 -84 10 -132h-51l-15 50h-3q-29 -54 -97 -54q-46 0 -74 37.5t-28 102.5q0 152 163 152q21 0 32 -1q2 40 2 54q0 58 -14 82.5t-48 24.5q-53 0 -91 -25zM144 56q52 0 74 51v123
q-11 2 -32 2q-96 0 -96 -90q0 -42 14.5 -64t39.5 -22zM73 550l81 182h37l72 -182h-56l-26 66l-12 58l-13 -58l-30 -66h-53z" />
    <glyph glyph-name="atilde" unicode="&#xe3;" horiz-adv-x="327" 
d="M66 421l-22 53q49 34 130 34q63 0 86.5 -39t23.5 -113q0 -41 -2 -117.5t-2 -108.5q0 -84 10 -132h-51l-15 50h-3q-29 -54 -97 -54q-46 0 -74 37.5t-28 102.5q0 152 163 152q21 0 32 -1q2 40 2 54q0 58 -14 82.5t-48 24.5q-53 0 -91 -25zM144 56q52 0 74 51v123
q-11 2 -32 2q-96 0 -96 -90q0 -42 14.5 -64t39.5 -22zM81 621l-24 30q43 60 78 60q17 0 42 -19.5t39 -19.5q17 0 33 19l22 -31q-38 -52 -71 -52q-16 0 -41.5 18.5t-37.5 18.5q-20 0 -40 -24z" />
    <glyph glyph-name="adieresis" unicode="&#xe4;" horiz-adv-x="327" 
d="M66 421l-22 53q49 34 130 34q63 0 86.5 -39t23.5 -113q0 -41 -2 -117.5t-2 -108.5q0 -84 10 -132h-51l-15 50h-3q-29 -54 -97 -54q-46 0 -74 37.5t-28 102.5q0 152 163 152q21 0 32 -1q2 40 2 54q0 58 -14 82.5t-48 24.5q-53 0 -91 -25zM144 56q52 0 74 51v123
q-11 2 -32 2q-96 0 -96 -90q0 -42 14.5 -64t39.5 -22zM59 653q0 22 10.5 35t28.5 13q17 0 27.5 -13t10.5 -35q0 -21 -10.5 -33.5t-27.5 -12.5t-28 12.5t-11 33.5zM193 653q0 22 10.5 35t27.5 13t27.5 -13t10.5 -35q0 -21 -10.5 -33.5t-27.5 -12.5t-27.5 12.5t-10.5 33.5z
" />
    <glyph glyph-name="aring" unicode="&#xe5;" horiz-adv-x="327" 
d="M66 421l-22 53q49 34 130 34q63 0 86.5 -39t23.5 -113q0 -41 -2 -117.5t-2 -108.5q0 -84 10 -132h-51l-15 50h-3q-29 -54 -97 -54q-46 0 -74 37.5t-28 102.5q0 152 163 152q21 0 32 -1q2 40 2 54q0 58 -14 82.5t-48 24.5q-53 0 -91 -25zM144 56q52 0 74 51v123
q-11 2 -32 2q-96 0 -96 -90q0 -42 14.5 -64t39.5 -22zM93 643q0 42 18.5 65t52.5 23q71 0 71 -88q0 -40 -19 -63.5t-52 -23.5q-71 0 -71 87zM137 643q0 -48 27 -48t27 48q0 49 -27 49t-27 -49z" />
    <glyph glyph-name="ae" unicode="&#xe6;" horiz-adv-x="520" 
d="M145 54q29 0 47 19t26 47v115q-16 2 -25 2q-103 0 -103 -92q0 -37 15.5 -64t39.5 -27zM244 65h-4q-36 -73 -112 -73q-48 0 -77 40t-29 106q0 82 40.5 117.5t116.5 35.5q12 0 38 -2q2 38 2 51q0 59 -13.5 82.5t-48.5 23.5q-53 0 -96 -34l-19 53q49 43 131 43q68 0 89 -63
q32 67 103 67q127 0 127 -186q0 -48 -5 -87h-205q1 -98 23.5 -143.5t74.5 -45.5q49 0 78 27l24 -51q-45 -38 -119 -38q-87 0 -119 77zM365 450q-75 0 -81 -156h145v18q0 66 -17 102t-47 36z" />
    <glyph glyph-name="ccedilla" unicode="&#xe7;" horiz-adv-x="285" 
d="M255 73l18 -53q-30 -25 -74 -31l-12 -32q54 -15 54 -75q0 -40 -25 -65t-65 -25q-12 0 -32 4l6 39q5 -1 15 -1q40 0 40 39q0 28 -56 37l30 78q-126 15 -126 262q0 127 37.5 194.5t107.5 67.5q61 0 95 -23l-18 -56q-31 17 -68 17q-86 0 -86 -200t94 -200q38 0 65 23z" />
    <glyph glyph-name="egrave" unicode="&#xe8;" horiz-adv-x="334" 
d="M272 80l24 -51q-43 -41 -115 -41q-78 0 -115.5 69t-37.5 193q0 127 39 194.5t111 67.5q128 0 128 -183q0 -48 -5 -87h-205q2 -192 101 -192q47 0 75 30zM178 450q-73 0 -80 -151h145v18q0 65 -17.5 99t-47.5 34zM166 720l42 -149h-38l-78 128v21h74z" />
    <glyph glyph-name="eacute" unicode="&#xe9;" horiz-adv-x="334" 
d="M272 80l24 -51q-43 -41 -115 -41q-78 0 -115.5 69t-37.5 193q0 127 39 194.5t111 67.5q128 0 128 -183q0 -48 -5 -87h-205q2 -192 101 -192q47 0 75 30zM178 450q-73 0 -80 -151h145v18q0 65 -17.5 99t-47.5 34zM150 571l37 149h71v-21l-69 -128h-39z" />
    <glyph glyph-name="ecircumflex" unicode="&#xea;" horiz-adv-x="334" 
d="M272 80l24 -51q-43 -41 -115 -41q-78 0 -115.5 69t-37.5 193q0 127 39 194.5t111 67.5q128 0 128 -183q0 -48 -5 -87h-205q2 -192 101 -192q47 0 75 30zM178 450q-73 0 -80 -151h145v18q0 65 -17.5 99t-47.5 34zM79 550l81 182h37l72 -182h-56l-26 66l-12 58l-13 -58
l-30 -66h-53z" />
    <glyph glyph-name="edieresis" unicode="&#xeb;" horiz-adv-x="334" 
d="M272 80l24 -51q-43 -41 -115 -41q-78 0 -115.5 69t-37.5 193q0 127 39 194.5t111 67.5q128 0 128 -183q0 -48 -5 -87h-205q2 -192 101 -192q47 0 75 30zM178 450q-73 0 -80 -151h145v18q0 65 -17.5 99t-47.5 34zM75 653q0 22 10.5 35t28.5 13q17 0 27.5 -13t10.5 -35
q0 -21 -10.5 -33.5t-27.5 -12.5t-28 12.5t-11 33.5zM209 653q0 22 10.5 35t27.5 13t27.5 -13t10.5 -35q0 -21 -10.5 -33.5t-27.5 -12.5t-27.5 12.5t-10.5 33.5z" />
    <glyph glyph-name="igrave" unicode="&#xec;" horiz-adv-x="178" 
d="M56 0v500h67v-500h-67zM75 720l42 -149h-38l-78 128v21h74z" />
    <glyph glyph-name="iacute" unicode="&#xed;" horiz-adv-x="178" 
d="M62 571l37 149h71v-21l-69 -128h-39zM56 0v500h67v-500h-67z" />
    <glyph glyph-name="icircumflex" unicode="&#xee;" horiz-adv-x="178" 
d="M-7 550l81 182h37l72 -182h-56l-26 66l-12 58l-13 -58l-30 -66h-53zM56 0v500h67v-500h-67z" />
    <glyph glyph-name="idieresis" unicode="&#xef;" horiz-adv-x="178" 
d="M-16 653q0 22 11 35t28 13t27.5 -13t10.5 -35q0 -21 -10.5 -33.5t-27.5 -12.5t-28 12.5t-11 33.5zM118 653q0 22 10.5 35t27.5 13t27.5 -13t10.5 -35q0 -21 -10.5 -33.5t-27.5 -12.5t-27.5 12.5t-10.5 33.5zM56 0v500h67v-500h-67z" />
    <glyph glyph-name="eth" unicode="&#xf0;" horiz-adv-x="366" 
d="M167 554l-38 15l27 76q-28 12 -68 12v55q50 0 88 -13l19 51l38 -17l-19 -53q122 -77 122 -383q0 -309 -155 -309q-151 0 -151 263q0 121 39.5 190t108.5 69q57 0 85 -38q-16 107 -70 152zM97 251q0 -201 89 -201q83 0 83 240q0 78 -6 111q-26 47 -77 47q-89 0 -89 -197z
" />
    <glyph glyph-name="ntilde" unicode="&#xf1;" horiz-adv-x="359" 
d="M319 0h-67v320q0 72 -13.5 101t-47.5 29q-55 0 -79 -69v-381h-67v500h50l10 -47h3q38 59 105 59q54 0 80 -38.5t26 -133.5v-340zM99 621l-24 30q43 60 78 60q16 0 41.5 -19.5t39.5 -19.5q17 0 33 19l22 -31q-38 -52 -71 -52q-16 0 -41.5 18.5t-37.5 18.5q-20 0 -40 -24z
" />
    <glyph glyph-name="ograve" unicode="&#xf2;" horiz-adv-x="353" 
d="M28 250q0 262 149 262q77 0 112.5 -61.5t35.5 -200.5t-37.5 -200.5t-110.5 -61.5q-77 0 -113 61.5t-36 200.5zM96 250q0 -200 81 -200q41 0 60.5 47t19.5 153q0 200 -80 200q-81 0 -81 -200zM165 720l42 -149h-38l-78 128v21h74z" />
    <glyph glyph-name="oacute" unicode="&#xf3;" horiz-adv-x="353" 
d="M28 250q0 262 149 262q77 0 112.5 -61.5t35.5 -200.5t-37.5 -200.5t-110.5 -61.5q-77 0 -113 61.5t-36 200.5zM96 250q0 -200 81 -200q41 0 60.5 47t19.5 153q0 200 -80 200q-81 0 -81 -200zM145 571l37 149h71v-21l-69 -128h-39z" />
    <glyph glyph-name="ocircumflex" unicode="&#xf4;" horiz-adv-x="353" 
d="M82 550l81 182h37l72 -182h-56l-26 66l-12 58l-13 -58l-30 -66h-53zM28 250q0 262 149 262q77 0 112.5 -61.5t35.5 -200.5t-37.5 -200.5t-110.5 -61.5q-77 0 -113 61.5t-36 200.5zM96 250q0 -200 81 -200q41 0 60.5 47t19.5 153q0 200 -80 200q-81 0 -81 -200z" />
    <glyph glyph-name="otilde" unicode="&#xf5;" horiz-adv-x="353" 
d="M28 250q0 262 149 262q77 0 112.5 -61.5t35.5 -200.5t-37.5 -200.5t-110.5 -61.5q-77 0 -113 61.5t-36 200.5zM96 250q0 -200 81 -200q41 0 60.5 47t19.5 153q0 200 -80 200q-81 0 -81 -200zM94 621l-24 30q43 60 78 60q16 0 42 -19.5t39 -19.5q17 0 33 19l22 -31
q-38 -52 -71 -52q-16 0 -41.5 18.5t-37.5 18.5q-20 0 -40 -24z" />
    <glyph glyph-name="odieresis" unicode="&#xf6;" horiz-adv-x="353" 
d="M28 250q0 262 149 262q77 0 112.5 -61.5t35.5 -200.5t-37.5 -200.5t-110.5 -61.5q-77 0 -113 61.5t-36 200.5zM96 250q0 -200 81 -200q41 0 60.5 47t19.5 153q0 200 -80 200q-81 0 -81 -200zM70 653q0 22 11 35t28 13t27.5 -13t10.5 -35q0 -21 -10.5 -33.5t-27.5 -12.5
t-28 12.5t-11 33.5zM204 653q0 22 10.5 35t27.5 13t27.5 -13t10.5 -35q0 -21 -10.5 -33.5t-27.5 -12.5t-27.5 12.5t-10.5 33.5z" />
    <glyph glyph-name="divide" unicode="&#xf7;" horiz-adv-x="347" 
d="M130 502q0 55 44 55q45 0 45 -55t-45 -55q-44 0 -44 55zM130 176q0 55 44 55q45 0 45 -55t-45 -55q-44 0 -44 55zM32 310v62h283v-62h-283z" />
    <glyph glyph-name="oslash" unicode="&#xf8;" horiz-adv-x="361" 
d="M34 250q0 262 148 262q47 0 80 -27l15 30l47 -25l-26 -52q33 -66 33 -188q0 -262 -149 -262q-50 0 -84 29l-17 -31l-47 27l28 56q-28 63 -28 181zM263 250q0 59 -8 107l-128 -271q20 -36 55 -36q41 0 61 47.5t20 152.5zM102 250q0 -68 6 -102l125 271q-20 31 -51 31
q-80 0 -80 -200z" />
    <glyph glyph-name="ugrave" unicode="&#xf9;" horiz-adv-x="355" 
d="M40 500h67v-323q0 -70 12 -98.5t39 -28.5q30 0 51.5 27.5t32.5 65.5v357h67v-358q0 -84 9 -142h-48l-15 64h-3q-15 -32 -42 -54t-63 -22q-55 0 -81 35.5t-26 136.5v340zM163 720l42 -149h-38l-78 128v21h74z" />
    <glyph glyph-name="uacute" unicode="&#xfa;" horiz-adv-x="355" 
d="M40 500h67v-323q0 -70 12 -98.5t39 -28.5q30 0 51.5 27.5t32.5 65.5v357h67v-358q0 -84 9 -142h-48l-15 64h-3q-15 -32 -42 -54t-63 -22q-55 0 -81 35.5t-26 136.5v340zM144 571l37 149h71v-21l-69 -128h-39z" />
    <glyph glyph-name="ucircumflex" unicode="&#xfb;" horiz-adv-x="355" 
d="M40 500h67v-323q0 -70 12 -98.5t39 -28.5q30 0 51.5 27.5t32.5 65.5v357h67v-358q0 -84 9 -142h-48l-15 64h-3q-15 -32 -42 -54t-63 -22q-55 0 -81 35.5t-26 136.5v340zM80 550l81 182h37l72 -182h-56l-26 66l-12 58l-13 -58l-30 -66h-53z" />
    <glyph glyph-name="udieresis" unicode="&#xfc;" horiz-adv-x="355" 
d="M40 500h67v-323q0 -70 12 -98.5t39 -28.5q30 0 51.5 27.5t32.5 65.5v357h67v-358q0 -84 9 -142h-48l-15 64h-3q-15 -32 -42 -54t-63 -22q-55 0 -81 35.5t-26 136.5v340zM67 653q0 22 10.5 35t28.5 13q17 0 27.5 -13t10.5 -35q0 -21 -10.5 -33.5t-27.5 -12.5t-28 12.5
t-11 33.5zM201 653q0 22 10.5 35t27.5 13t27.5 -13t10.5 -35q0 -21 -10.5 -33.5t-27.5 -12.5t-27.5 12.5t-10.5 33.5z" />
    <glyph glyph-name="yacute" unicode="&#xfd;" horiz-adv-x="309" 
d="M78 500l74 -324l17 -96h3l11 97l60 323h66l-97 -449l-16 -73l-16 -60.5t-17.5 -52.5t-19.5 -37t-24 -25.5t-28 -7.5q-27 0 -42 9l11 65q10 -2 13 -2q45 0 63 133l-134 500h76zM137 571l37 149h71v-21l-69 -128h-39z" />
    <glyph glyph-name="thorn" unicode="&#xfe;" horiz-adv-x="355" 
d="M45 -200v900h67v-233h2q28 45 87 45q65 0 95.5 -60t30.5 -192q0 -126 -40 -199t-110 -73q-43 0 -65 15v-203h-67zM182 450q-24 0 -43 -19t-27 -49v-310q21 -22 60 -22q41 0 64 55.5t23 155.5q0 189 -77 189z" />
    <glyph glyph-name="ydieresis" unicode="&#xff;" horiz-adv-x="309" 
d="M78 500l74 -324l17 -96h3l11 97l60 323h66l-97 -449l-16 -73l-16 -60.5t-17.5 -52.5t-19.5 -37t-24 -25.5t-28 -7.5q-27 0 -42 9l11 65q10 -2 13 -2q45 0 63 133l-134 500h76zM50 653q0 22 11 35t28 13t27.5 -13t10.5 -35q0 -21 -10.5 -33.5t-27.5 -12.5t-28 12.5
t-11 33.5zM184 653q0 22 10.5 35t27.5 13t27.5 -13t10.5 -35q0 -21 -10.5 -33.5t-27.5 -12.5t-27.5 12.5t-10.5 33.5z" />
    <glyph glyph-name="Amacron" unicode="&#x100;" horiz-adv-x="389" 
d="M314 0l-45 198h-154l-43 -198h-69l170 711h43l171 -711h-73zM177 477l-46 -217h124l-46 219l-15 105h-2zM87 761v62h216v-62h-216z" />
    <glyph glyph-name="amacron" unicode="&#x101;" horiz-adv-x="327" 
d="M66 421l-22 53q49 34 130 34q63 0 86.5 -39t23.5 -113q0 -41 -2 -117.5t-2 -108.5q0 -84 10 -132h-51l-15 50h-3q-29 -54 -97 -54q-46 0 -74 37.5t-28 102.5q0 152 163 152q21 0 32 -1q2 40 2 54q0 58 -14 82.5t-48 24.5q-53 0 -91 -25zM144 56q52 0 74 51v123
q-11 2 -32 2q-96 0 -96 -90q0 -42 14.5 -64t39.5 -22zM57 585v58h203v-58h-203z" />
    <glyph glyph-name="Abreve" unicode="&#x102;" horiz-adv-x="389" 
d="M314 0l-45 198h-154l-43 -198h-69l170 711h43l171 -711h-73zM177 477l-46 -217h124l-46 219l-15 105h-2zM75 853l34 18q13 -35 36 -57t53 -22q55 0 84 79l33 -14q-13 -62 -45.5 -94.5t-72.5 -32.5q-38 0 -72.5 31.5t-49.5 91.5z" />
    <glyph glyph-name="abreve" unicode="&#x103;" horiz-adv-x="327" 
d="M66 421l-22 53q49 34 130 34q63 0 86.5 -39t23.5 -113q0 -41 -2 -117.5t-2 -108.5q0 -84 10 -132h-51l-15 50h-3q-29 -54 -97 -54q-46 0 -74 37.5t-28 102.5q0 152 163 152q21 0 32 -1q2 40 2 54q0 58 -14 82.5t-48 24.5q-53 0 -91 -25zM144 56q52 0 74 51v123
q-11 2 -32 2q-96 0 -96 -90q0 -42 14.5 -64t39.5 -22zM59 700l35 15q24 -78 74 -78q46 0 68 78l34 -13q-4 -56 -32.5 -92.5t-70.5 -36.5q-40 0 -70 33.5t-38 93.5z" />
    <glyph glyph-name="Aogonek" unicode="&#x104;" horiz-adv-x="389" 
d="M314 0l-45 198h-154l-43 -198h-69l170 711h43l171 -711h-21q-38 -32 -38 -88q0 -52 38 -52q11 0 23 5l10 -38q-21 -23 -60 -23q-36 0 -57 23.5t-21 60.5q0 72 59 112h-6zM177 477l-46 -217h124l-46 219l-15 105h-2z" />
    <glyph glyph-name="aogonek" unicode="&#x105;" horiz-adv-x="327" 
d="M66 421l-22 53q49 34 130 34q63 0 86.5 -39t23.5 -113q0 -41 -2 -117.5t-2 -108.5q0 -84 10 -132h-17q-35 -32 -35 -86q0 -52 38 -52q11 0 23 5l10 -38q-21 -23 -60 -23q-36 0 -57 23.5t-21 60.5q0 77 66 116l-13 44h-3q-29 -54 -97 -54q-46 0 -74 37.5t-28 102.5
q0 152 163 152q21 0 32 -1q2 40 2 54q0 58 -14 82.5t-48 24.5q-53 0 -91 -25zM144 56q52 0 74 51v123q-11 2 -32 2q-96 0 -96 -90q0 -42 14.5 -64t39.5 -22z" />
    <glyph glyph-name="Cacute" unicode="&#x106;" horiz-adv-x="372" 
d="M336 85l16 -60q-38 -37 -119 -37q-200 0 -200 362q0 191 55 276.5t146 85.5q66 0 112 -24l-17 -64q-37 23 -88 23q-62 0 -99 -71t-37 -226q0 -146 37 -221.5t107 -75.5q42 0 87 32zM192 752l74 118h88v-21l-107 -97h-55z" />
    <glyph glyph-name="cacute" unicode="&#x107;" horiz-adv-x="285" 
d="M255 73l18 -53q-39 -32 -100 -32q-145 0 -145 262q0 127 37.5 194.5t107.5 67.5q61 0 95 -23l-18 -56q-31 17 -68 17q-86 0 -86 -200t94 -200q38 0 65 23zM151 571l37 149h71v-21l-69 -128h-39z" />
    <glyph glyph-name="Ccircumflex" unicode="&#x108;" horiz-adv-x="372" 
d="M336 85l16 -60q-38 -37 -119 -37q-200 0 -200 362q0 191 55 276.5t146 85.5q66 0 112 -24l-17 -64q-37 23 -88 23q-62 0 -99 -71t-37 -226q0 -146 37 -221.5t107 -75.5q42 0 87 32zM118 769l87 101h44l83 -102v-21h-55l-39 49l-12 35l-13 -34l-42 -50h-53v22z" />
    <glyph glyph-name="ccircumflex" unicode="&#x109;" horiz-adv-x="285" 
d="M68 550l81 182h37l72 -182h-56l-26 66l-12 58l-13 -58l-30 -66h-53zM255 73l18 -53q-39 -32 -100 -32q-145 0 -145 262q0 127 37.5 194.5t107.5 67.5q61 0 95 -23l-18 -56q-31 17 -68 17q-86 0 -86 -200t94 -200q38 0 65 23z" />
    <glyph glyph-name="Cdotaccent" unicode="&#x10a;" horiz-adv-x="372" 
d="M336 85l16 -60q-38 -37 -119 -37q-200 0 -200 362q0 191 55 276.5t146 85.5q66 0 112 -24l-17 -64q-37 23 -88 23q-62 0 -99 -71t-37 -226q0 -146 37 -221.5t107 -75.5q42 0 87 32zM183 797q0 22 13 37t35 15t35.5 -15t13.5 -37q0 -23 -13 -38t-36 -15t-35.5 15t-12.5 38
z" />
    <glyph glyph-name="cdotaccent" unicode="&#x10b;" horiz-adv-x="285" 
d="M255 73l18 -53q-39 -32 -100 -32q-145 0 -145 262q0 127 37.5 194.5t107.5 67.5q61 0 95 -23l-18 -56q-31 17 -68 17q-86 0 -86 -200t94 -200q38 0 65 23zM125 652q0 25 12 38.5t32 13.5t33 -13.5t13 -38.5q0 -24 -12.5 -36.5t-33.5 -12.5q-44 0 -44 49z" />
    <glyph glyph-name="Ccaron" unicode="&#x10c;" horiz-adv-x="372" 
d="M336 85l16 -60q-38 -37 -119 -37q-200 0 -200 362q0 191 55 276.5t146 85.5q66 0 112 -24l-17 -64q-37 23 -88 23q-62 0 -99 -71t-37 -226q0 -146 37 -221.5t107 -75.5q42 0 87 32zM339 848l-87 -102h-49l-83 103v21h60l37 -50l12 -34l13 33l39 51h58v-22z" />
    <glyph glyph-name="ccaron" unicode="&#x10d;" horiz-adv-x="285" 
d="M255 73l18 -53q-39 -32 -100 -32q-145 0 -145 262q0 127 37.5 194.5t107.5 67.5q61 0 95 -23l-18 -56q-31 17 -68 17q-86 0 -86 -200t94 -200q38 0 65 23zM268 732l-82 -182h-39l-76 182h61l25 -66l13 -58l13 58l29 66h56z" />
    <glyph glyph-name="Dcaron" unicode="&#x10e;" horiz-adv-x="430" 
d="M50 -1v701q51 8 124 8q124 0 173.5 -89t49.5 -263q0 -79 -10.5 -140.5t-35 -114.5t-71 -81.5t-112.5 -28.5q-78 0 -118 8zM179 643q-45 0 -59 -5v-578q16 -4 56 -4q149 0 149 300q0 63 -5.5 110t-20.5 89.5t-45 65t-75 22.5zM285 848l-87 -102h-49l-83 103v21h60l37 -50
l12 -34l13 33l39 51h58v-22z" />
    <glyph glyph-name="dcaron" unicode="&#x10f;" horiz-adv-x="354" 
d="M309 700v-528q0 -121 7 -174h-46l-13 51h-3q-11 -27 -36 -44t-58 -17q-132 0 -132 260q0 126 39 193t110 67q39 0 65 -13v205h67zM172 50q53 0 70 68v308q-20 20 -59 20q-41 0 -64 -50t-23 -148q0 -198 76 -198zM357 700h66q-3 -52 -23.5 -108t-37.5 -79l-28 13
q23 74 23 174z" />
    <glyph glyph-name="Dcroat" unicode="&#x110;" horiz-adv-x="435" 
d="M-1 335v57h56v308q51 8 124 8q124 0 173.5 -89t49.5 -263q0 -79 -10.5 -140.5t-35 -114.5t-71 -81.5t-112.5 -28.5q-78 0 -118 8v336h-56zM184 643q-45 0 -59 -5v-246h94v-57h-94v-275q16 -4 56 -4q149 0 149 300q0 63 -5.5 110t-20.5 89.5t-45 65t-75 22.5z" />
    <glyph glyph-name="dcroat" unicode="&#x111;" horiz-adv-x="354" 
d="M309 700v-68h52v-57h-52v-403q0 -121 7 -174h-46l-13 51h-3q-11 -27 -36 -44t-58 -17q-132 0 -132 260q0 126 39 193t110 67q39 0 65 -13v80h-101v57h101v68h67zM172 50q53 0 70 68v308q-20 20 -59 20q-41 0 -64 -50t-23 -148q0 -198 76 -198z" />
    <glyph glyph-name="Emacron" unicode="&#x112;" horiz-adv-x="350" 
d="M50 0v700h259v-65h-189v-243h173v-65h-173v-262h193v-65h-263zM68 761v62h216v-62h-216z" />
    <glyph glyph-name="emacron" unicode="&#x113;" horiz-adv-x="334" 
d="M272 80l24 -51q-43 -41 -115 -41q-78 0 -115.5 69t-37.5 193q0 127 39 194.5t111 67.5q128 0 128 -183q0 -48 -5 -87h-205q2 -192 101 -192q47 0 75 30zM178 450q-73 0 -80 -151h145v18q0 65 -17.5 99t-47.5 34zM69 585v58h203v-58h-203z" />
    <glyph glyph-name="Ebreve" unicode="&#x114;" horiz-adv-x="350" 
d="M50 0v700h259v-65h-189v-243h173v-65h-173v-262h193v-65h-263zM60 853l34 18q13 -35 36 -57t53 -22q55 0 84 79l33 -14q-13 -62 -45.5 -94.5t-72.5 -32.5q-38 0 -72.5 31.5t-49.5 91.5z" />
    <glyph glyph-name="ebreve" unicode="&#x115;" horiz-adv-x="334" 
d="M272 80l24 -51q-43 -41 -115 -41q-78 0 -115.5 69t-37.5 193q0 127 39 194.5t111 67.5q128 0 128 -183q0 -48 -5 -87h-205q2 -192 101 -192q47 0 75 30zM178 450q-73 0 -80 -151h145v18q0 65 -17.5 99t-47.5 34zM65 700l35 15q24 -78 74 -78q46 0 68 78l34 -13
q-4 -56 -32.5 -92.5t-70.5 -36.5q-40 0 -70 33.5t-38 93.5z" />
    <glyph glyph-name="Edotaccent" unicode="&#x116;" horiz-adv-x="350" 
d="M50 0v700h259v-65h-189v-243h173v-65h-173v-262h193v-65h-263zM134 797q0 22 13 37t35 15t35.5 -15t13.5 -37q0 -23 -13 -38t-36 -15t-35.5 15t-12.5 38z" />
    <glyph glyph-name="edotaccent" unicode="&#x117;" horiz-adv-x="334" 
d="M272 80l24 -51q-43 -41 -115 -41q-78 0 -115.5 69t-37.5 193q0 127 39 194.5t111 67.5q128 0 128 -183q0 -48 -5 -87h-205q2 -192 101 -192q47 0 75 30zM178 450q-73 0 -80 -151h145v18q0 65 -17.5 99t-47.5 34zM131 652q0 25 12 38.5t32 13.5t33 -13.5t13 -38.5
q0 -24 -12.5 -36.5t-33.5 -12.5q-44 0 -44 49z" />
    <glyph glyph-name="Eogonek" unicode="&#x118;" horiz-adv-x="356" 
d="M50 0v700h259v-65h-189v-243h173v-65h-173v-262h193v-65h-27q-38 -32 -38 -88q0 -52 38 -52q11 0 23 5l10 -38q-21 -23 -60 -23q-36 0 -57 23.5t-21 60.5q0 72 59 112h-190z" />
    <glyph glyph-name="eogonek" unicode="&#x119;" horiz-adv-x="335" 
d="M272 80l24 -51q-18 -16 -39 -26q-45 -36 -45 -92q0 -21 9.5 -36t26.5 -15t27 6l10 -38q-20 -24 -65 -24q-32 0 -51 24t-19 64q0 58 44 97q-5 -1 -13 -1q-78 0 -115.5 69t-37.5 193q0 127 39 194.5t111 67.5q128 0 128 -183q0 -48 -5 -87h-205q2 -192 101 -192q47 0 75 30
zM178 450q-73 0 -80 -151h145v18q0 65 -17.5 99t-47.5 34z" />
    <glyph glyph-name="Ecaron" unicode="&#x11a;" horiz-adv-x="350" 
d="M50 0v700h259v-65h-189v-243h173v-65h-173v-262h193v-65h-263zM290 848l-87 -102h-49l-83 103v21h60l37 -50l12 -34l13 33l39 51h58v-22z" />
    <glyph glyph-name="ecaron" unicode="&#x11b;" horiz-adv-x="334" 
d="M272 80l24 -51q-43 -41 -115 -41q-78 0 -115.5 69t-37.5 193q0 127 39 194.5t111 67.5q128 0 128 -183q0 -48 -5 -87h-205q2 -192 101 -192q47 0 75 30zM178 450q-73 0 -80 -151h145v18q0 65 -17.5 99t-47.5 34zM273 732l-82 -182h-39l-76 182h61l25 -66l13 -58l13 58
l29 66h56z" />
    <glyph glyph-name="Gcircumflex" unicode="&#x11c;" horiz-adv-x="402" 
d="M209 307v42h161v-309q-47 -52 -136 -52q-201 0 -201 362q0 186 57 274t149 88q69 0 114 -24l-16 -64q-37 23 -90 23q-64 0 -103 -71t-39 -226q0 -297 139 -297q40 0 68 25v211zM131 769l87 101h44l83 -102v-21h-55l-39 49l-12 35l-13 -34l-42 -50h-53v22z" />
    <glyph glyph-name="gcircumflex" unicode="&#x11d;" horiz-adv-x="353" 
d="M309 479v-502q0 -189 -140 -189q-74 0 -116 28l21 59q46 -25 87 -25q45 0 63.5 34t18.5 117v29h-3q-27 -41 -84 -41q-65 0 -96.5 63t-31.5 196q0 128 41.5 194t120.5 66q66 0 119 -29zM174 51q51 0 68 61v320q-21 14 -56 14q-42 0 -66 -48.5t-24 -148.5q0 -198 78 -198z
M88 550l81 182h37l72 -182h-56l-26 66l-12 58l-13 -58l-30 -66h-53z" />
    <glyph glyph-name="Gbreve" unicode="&#x11e;" horiz-adv-x="402" 
d="M209 307v42h161v-309q-47 -52 -136 -52q-201 0 -201 362q0 186 57 274t149 88q69 0 114 -24l-16 -64q-37 23 -90 23q-64 0 -103 -71t-39 -226q0 -297 139 -297q40 0 68 25v211zM110 853l34 18q13 -35 36 -57t53 -22q55 0 84 79l33 -14q-13 -62 -45.5 -94.5t-72.5 -32.5
q-38 0 -72.5 31.5t-49.5 91.5z" />
    <glyph glyph-name="gbreve" unicode="&#x11f;" horiz-adv-x="353" 
d="M309 479v-502q0 -189 -140 -189q-74 0 -116 28l21 59q46 -25 87 -25q45 0 63.5 34t18.5 117v29h-3q-27 -41 -84 -41q-65 0 -96.5 63t-31.5 196q0 128 41.5 194t120.5 66q66 0 119 -29zM174 51q51 0 68 61v320q-21 14 -56 14q-42 0 -66 -48.5t-24 -148.5q0 -198 78 -198z
M78 700l35 15q24 -78 74 -78q46 0 68 78l34 -13q-4 -56 -32.5 -92.5t-70.5 -36.5q-40 0 -70 33.5t-38 93.5z" />
    <glyph glyph-name="Gdotaccent" unicode="&#x120;" horiz-adv-x="402" 
d="M209 307v42h161v-309q-47 -52 -136 -52q-201 0 -201 362q0 186 57 274t149 88q69 0 114 -24l-16 -64q-37 23 -90 23q-64 0 -103 -71t-39 -226q0 -297 139 -297q40 0 68 25v211zM197 797q0 22 13 37t35 15t35.5 -15t13.5 -37q0 -23 -13 -38t-36 -15t-35.5 15t-12.5 38z
" />
    <glyph glyph-name="gdotaccent" unicode="&#x121;" horiz-adv-x="353" 
d="M309 479v-502q0 -189 -140 -189q-74 0 -116 28l21 59q46 -25 87 -25q45 0 63.5 34t18.5 117v29h-3q-27 -41 -84 -41q-65 0 -96.5 63t-31.5 196q0 128 41.5 194t120.5 66q66 0 119 -29zM174 51q51 0 68 61v320q-21 14 -56 14q-42 0 -66 -48.5t-24 -148.5q0 -198 78 -198z
M137 652q0 25 12 38.5t32 13.5t33 -13.5t13 -38.5q0 -24 -12.5 -36.5t-33.5 -12.5q-44 0 -44 49z" />
    <glyph glyph-name="Gcommaaccent" unicode="&#x122;" horiz-adv-x="402" 
d="M209 307v42h161v-309q-47 -52 -136 -52q-201 0 -201 362q0 186 57 274t149 88q69 0 114 -24l-16 -64q-37 23 -90 23q-64 0 -103 -71t-39 -226q0 -297 139 -297q40 0 68 25v211zM196 -102q0 21 11 34t27 13q47 0 47 -75q0 -45 -19.5 -75t-40.5 -40l-25 23q34 32 34 78h-4
q-12 0 -21 11t-9 31z" />
    <glyph glyph-name="gcommaaccent" unicode="&#x123;" horiz-adv-x="353" 
d="M309 479v-502q0 -189 -140 -189q-74 0 -116 28l21 59q46 -25 87 -25q45 0 63.5 34t18.5 117v29h-3q-27 -41 -84 -41q-65 0 -96.5 63t-31.5 196q0 128 41.5 194t120.5 66q66 0 119 -29zM174 51q51 0 68 61v320q-21 14 -56 14q-42 0 -66 -48.5t-24 -148.5q0 -198 78 -198z
M232 609q0 -21 -11 -34t-27 -13q-47 0 -47 75q0 45 19.5 75t40.5 40l25 -23q-34 -32 -34 -78h4q12 0 21 -11t9 -31z" />
    <glyph glyph-name="Hcircumflex" unicode="&#x124;" horiz-adv-x="437" 
d="M317 0v326h-197v-326h-70v700h70v-309h197v309h70v-700h-70zM110 769l87 101h44l83 -102v-21h-55l-39 49l-12 35l-13 -34l-42 -50h-53v22z" />
    <glyph glyph-name="hcircumflex" unicode="&#x125;" horiz-adv-x="359" 
d="M319 0h-67v318q0 69 -13 100.5t-49 31.5q-27 0 -48.5 -20.5t-29.5 -51.5v-378h-67v700h67v-239h2q40 51 100 51q55 0 80 -39.5t25 -133.5v-339zM-24 769l87 101h44l83 -102v-21h-55l-39 49l-12 35l-13 -34l-42 -50h-53v22z" />
    <glyph glyph-name="Hbar" unicode="&#x126;" horiz-adv-x="454" 
d="M7 526v57h52v117h70v-117h197v117h70v-117h50v-57h-50v-526h-70v326h-197v-326h-70v526h-52zM129 391h197v135h-197v-135z" />
    <glyph glyph-name="hbar" unicode="&#x127;" horiz-adv-x="360" 
d="M-5 575v57h51v68h67v-68h105v-57h-105v-114h2q40 51 100 51q55 0 80 -39.5t25 -133.5v-339h-67v318q0 69 -13 100.5t-49 31.5q-27 0 -48.5 -20.5t-29.5 -51.5v-378h-67v575h-51z" />
    <glyph glyph-name="Itilde" unicode="&#x128;" horiz-adv-x="191" 
d="M0 746l-25 30q44 61 88 61q18 0 48 -15.5t43 -15.5q19 0 37 22l26 -33q-37 -51 -75 -51q-17 0 -47 15.5t-45 15.5q-24 0 -50 -29zM61 0v700h70v-700h-70z" />
    <glyph glyph-name="itilde" unicode="&#x129;" horiz-adv-x="178" 
d="M6 621l-24 30q43 60 78 60q16 0 42 -19.5t39 -19.5q17 0 33 19l22 -31q-38 -52 -71 -52q-16 0 -41.5 18.5t-37.5 18.5q-20 0 -40 -24zM56 0v500h67v-500h-67z" />
    <glyph glyph-name="Imacron" unicode="&#x12a;" horiz-adv-x="191" 
d="M61 0v700h70v-700h-70zM-12 761v62h216v-62h-216z" />
    <glyph glyph-name="imacron" unicode="&#x12b;" horiz-adv-x="178" 
d="M55 0v500h67v-500h-67zM-12 585v58h203v-58h-203z" />
    <glyph glyph-name="Ibreve" unicode="&#x12c;" horiz-adv-x="191" 
d="M-24 853l34 18q13 -35 36 -57t53 -22q55 0 84 79l33 -14q-13 -62 -45.5 -94.5t-72.5 -32.5q-38 0 -72.5 31.5t-49.5 91.5zM61 0v700h70v-700h-70z" />
    <glyph glyph-name="ibreve" unicode="&#x12d;" horiz-adv-x="178" 
d="M-16 700l35 15q24 -78 74 -78q46 0 68 78l34 -13q-4 -56 -32.5 -92.5t-70.5 -36.5q-40 0 -70 33.5t-38 93.5zM56 0v500h67v-500h-67z" />
    <glyph glyph-name="Iogonek" unicode="&#x12e;" horiz-adv-x="191" 
d="M61 0v700h70v-700h-11q-38 -35 -38 -89q0 -51 38 -51q11 0 23 4l10 -37q-19 -23 -61 -23q-34 0 -55.5 23t-21.5 63q0 72 60 110h-14z" />
    <glyph glyph-name="iogonek" unicode="&#x12f;" horiz-adv-x="178" 
d="M55 0v500h67v-500h-11q-38 -36 -38 -89q0 -21 10.5 -36t26.5 -15q12 0 26 10l9 -43q-19 -23 -64 -23q-33 0 -51.5 23.5t-18.5 64.5q0 71 54 108h-10zM44 652q0 25 12 38.5t32 13.5t33 -13.5t13 -38.5q0 -24 -12.5 -36.5t-33.5 -12.5q-44 0 -44 49z" />
    <glyph glyph-name="Idotaccent" unicode="&#x130;" horiz-adv-x="191" 
d="M61 0v700h70v-700h-70zM47 797q0 22 13 37t35 15t35.5 -15t13.5 -37q0 -23 -13 -38t-36 -15t-35.5 15t-12.5 38z" />
    <glyph glyph-name="dotlessi" unicode="&#x131;" horiz-adv-x="178" 
d="M56 0v500h67v-500h-67z" />
    <glyph glyph-name="Jcircumflex" unicode="&#x134;" horiz-adv-x="205" 
d="M79 169v531h70v-541q0 -88 -21.5 -128.5t-80.5 -40.5q-41 0 -68 16l16 61q16 -12 40 -12q29 0 36.5 26t7.5 88zM6 769l87 101h44l83 -102v-21h-55l-39 49l-12 35l-13 -34l-42 -50h-53v22z" />
    <glyph glyph-name="jcircumflex" unicode="&#x135;" horiz-adv-x="177" 
d="M-6 550l81 182h37l72 -182h-56l-26 66l-12 58l-13 -58l-30 -66h-53zM56 2v498h67v-527q0 -185 -100 -185q-7 0 -23 2v63q35 0 45.5 34t10.5 115z" />
    <glyph glyph-name="Kcommaaccent" unicode="&#x136;" horiz-adv-x="406" 
d="M302 0l-155 324h-27v-324h-70v700h70v-326l26 14l142 312h80l-145 -302l-31 -32l35 -40l161 -326h-86zM157 -102q0 21 11 34t27 13q47 0 47 -75q0 -45 -19.5 -75t-40.5 -40l-25 23q34 32 34 78h-4q-12 0 -21 11t-9 31z" />
    <glyph glyph-name="kcommaaccent" unicode="&#x137;" horiz-adv-x="319" 
d="M238 0l-97 225h-29v-225h-67v700h67v-426l26 14l89 212h75l-92 -203l-29 -32l34 -38l100 -227h-77zM119 -102q0 21 11 34t27 13q47 0 47 -75q0 -45 -19.5 -75t-40.5 -40l-25 23q34 32 34 78h-4q-12 0 -21 11t-9 31z" />
    <glyph glyph-name="kgreenlandic" unicode="&#x138;" horiz-adv-x="318" 
d="M238 0l-97 225h-29v-225h-67v500h67v-226l27 14l93 212h70l-93 -201l-29 -34l35 -39l100 -226h-77z" />
    <glyph glyph-name="Lacute" unicode="&#x139;" horiz-adv-x="340" 
d="M330 65v-65h-280v700h70v-635h210zM58 752l74 118h88v-21l-107 -97h-55z" />
    <glyph glyph-name="lacute" unicode="&#x13a;" horiz-adv-x="191" 
d="M116 700v-585q0 -62 28 -62q21 0 38 9l6 -54q-20 -17 -67 -17q-72 0 -72 101v608h67zM56 752l74 118h88v-21l-107 -97h-55z" />
    <glyph glyph-name="Lcommaaccent" unicode="&#x13b;" horiz-adv-x="340" 
d="M130 -102q0 21 11 34t27 13q47 0 47 -75q0 -45 -19.5 -75t-40.5 -40l-25 23q34 32 34 78h-4q-12 0 -21 11t-9 31zM330 65v-65h-280v700h70v-635h210z" />
    <glyph glyph-name="lcommaaccent" unicode="&#x13c;" horiz-adv-x="191" 
d="M116 700v-585q0 -62 28 -62q21 0 38 9l6 -54q-20 -17 -67 -17q-72 0 -72 101v608h67zM76 -102q0 21 11 34t27 13q47 0 47 -75q0 -45 -19.5 -75t-40.5 -40l-25 23q34 32 34 78h-4q-12 0 -21 11t-9 31z" />
    <glyph glyph-name="Lcaron" unicode="&#x13d;" horiz-adv-x="340" 
d="M330 65v-65h-280v700h70v-635h210zM235 700h66q-3 -52 -23.5 -108t-37.5 -79l-28 13q23 74 23 174z" />
    <glyph glyph-name="lcaron" unicode="&#x13e;" horiz-adv-x="191" 
d="M116 700v-585q0 -62 28 -62q21 0 38 9l6 -54q-20 -17 -67 -17q-72 0 -72 101v608h67zM161 700h66q-3 -52 -23.5 -108t-37.5 -79l-28 13q23 74 23 174z" />
    <glyph glyph-name="Ldot" unicode="&#x13f;" horiz-adv-x="340" 
d="M205 395q0 24 11.5 38.5t31.5 14.5q21 0 33 -14.5t12 -38.5q0 -23 -12.5 -36.5t-32.5 -13.5q-43 0 -43 50zM329 65v-65h-280v700h70v-635h210z" />
    <glyph glyph-name="ldot" unicode="&#x140;" horiz-adv-x="213" 
d="M149 363q0 52 40 52q19 0 30 -14t11 -38q0 -23 -11 -36t-30 -13t-29.5 13t-10.5 36zM116 700v-585q0 -62 28 -62q21 0 38 9l6 -54q-20 -17 -67 -17q-72 0 -72 101v608h67z" />
    <glyph glyph-name="Lslash" unicode="&#x141;" horiz-adv-x="342" 
d="M13 211v81l39 42v366h70v-290l75 81v-85l-75 -80v-261h210v-65h-280v252z" />
    <glyph glyph-name="lslash" unicode="&#x142;" horiz-adv-x="192" 
d="M4 209v81l48 52v358h67v-286l69 75v-85l-69 -73v-216q0 -62 28 -62q21 0 38 9l6 -54q-20 -17 -67 -17q-72 0 -72 101v168z" />
    <glyph glyph-name="Nacute" unicode="&#x143;" horiz-adv-x="439" 
d="M343 -11l-201 444l-34 118h-3l12 -118v-433h-67v711h46l202 -444l32 -113h4l-11 113v433h67v-711h-47zM195 752l74 118h88v-21l-107 -97h-55z" />
    <glyph glyph-name="nacute" unicode="&#x144;" horiz-adv-x="359" 
d="M319 0h-67v320q0 72 -13.5 101t-47.5 29q-55 0 -79 -69v-381h-67v500h50l10 -47h3q38 59 105 59q54 0 80 -38.5t26 -133.5v-340zM159 571l37 149h71v-21l-69 -128h-39z" />
    <glyph glyph-name="Ncommaaccent" unicode="&#x145;" horiz-adv-x="439" 
d="M343 -11l-201 444l-34 118h-3l12 -118v-433h-67v711h46l202 -444l32 -113h4l-11 113v433h67v-711h-47zM184 -102q0 21 11 34t27 13q47 0 47 -75q0 -45 -19.5 -75t-40.5 -40l-25 23q34 32 34 78h-4q-12 0 -21 11t-9 31z" />
    <glyph glyph-name="ncommaaccent" unicode="&#x146;" horiz-adv-x="359" 
d="M319 0h-67v320q0 72 -13.5 101t-47.5 29q-55 0 -79 -69v-381h-67v500h50l10 -47h3q38 59 105 59q54 0 80 -38.5t26 -133.5v-340zM138 -102q0 21 11 34t27 13q47 0 47 -75q0 -45 -19.5 -75t-40.5 -40l-25 23q34 32 34 78h-4q-12 0 -21 11t-9 31z" />
    <glyph glyph-name="Ncaron" unicode="&#x147;" horiz-adv-x="439" 
d="M343 -11l-201 444l-34 118h-3l12 -118v-433h-67v711h46l202 -444l32 -113h4l-11 113v433h67v-711h-47zM332 848l-87 -102h-49l-83 103v21h60l37 -50l12 -34l13 33l39 51h58v-22z" />
    <glyph glyph-name="ncaron" unicode="&#x148;" horiz-adv-x="359" 
d="M319 0h-67v320q0 72 -13.5 101t-47.5 29q-55 0 -79 -69v-381h-67v500h50l10 -47h3q38 59 105 59q54 0 80 -38.5t26 -133.5v-340zM280 732l-82 -182h-39l-76 182h61l25 -66l13 -58l13 58l29 66h56z" />
    <glyph glyph-name="napostrophe" unicode="&#x149;" horiz-adv-x="365" 
d="M325 0h-67v320q0 72 -13.5 101t-47.5 29q-55 0 -79 -69v-381h-67v500h50l10 -47h3q38 59 105 59q54 0 80 -38.5t26 -133.5v-340zM-28 659q0 22 12 35.5t30 13.5q47 0 47 -65q0 -96 -64 -140l-23 26q36 30 36 82h-4q-12 0 -23 12.5t-11 35.5z" />
    <glyph glyph-name="Eng" unicode="&#x14a;" horiz-adv-x="439" 
d="M323 0v32l-181 401l-34 117h-3l12 -117v-433h-67v711h46l202 -444l32 -113h4l-11 113v433h67v-730q0 -94 -24 -138t-77 -44q-6 0 -22 2v63h6q31 2 40.5 35.5t9.5 111.5z" />
    <glyph glyph-name="eng" unicode="&#x14b;" horiz-adv-x="359" 
d="M252 0v320q0 72 -13.5 101t-47.5 29q-55 0 -79 -69v-381h-67v500h50l10 -47h3q38 59 105 59q54 0 80 -38.5t26 -133.5v-370q0 -91 -24 -133.5t-75 -42.5q-7 0 -23 2v63q35 0 45 31t10 110z" />
    <glyph glyph-name="Omacron" unicode="&#x14c;" horiz-adv-x="447" 
d="M33 350q0 182 45.5 272t144.5 90q104 0 147.5 -92t43.5 -270q0 -182 -46 -272t-145 -90q-103 0 -146.5 92t-43.5 270zM105 350q0 -84 10.5 -147.5t38 -106.5t69.5 -43q119 0 119 297q0 131 -28 214t-91 83q-118 0 -118 -297zM115 761v62h216v-62h-216z" />
    <glyph glyph-name="omacron" unicode="&#x14d;" horiz-adv-x="353" 
d="M28 250q0 262 149 262q77 0 112.5 -61.5t35.5 -200.5t-37.5 -200.5t-110.5 -61.5q-77 0 -113 61.5t-36 200.5zM96 250q0 -200 81 -200q41 0 60.5 47t19.5 153q0 200 -80 200q-81 0 -81 -200zM75 585v58h203v-58h-203z" />
    <glyph glyph-name="Obreve" unicode="&#x14e;" horiz-adv-x="447" 
d="M33 350q0 182 45.5 272t144.5 90q104 0 147.5 -92t43.5 -270q0 -182 -46 -272t-145 -90q-103 0 -146.5 92t-43.5 270zM105 350q0 -84 10.5 -147.5t38 -106.5t69.5 -43q119 0 119 297q0 131 -28 214t-91 83q-118 0 -118 -297zM103 853l34 18q13 -35 36 -57t53 -22
q55 0 84 79l33 -14q-13 -62 -45.5 -94.5t-72.5 -32.5q-38 0 -72.5 31.5t-49.5 91.5z" />
    <glyph glyph-name="obreve" unicode="&#x14f;" horiz-adv-x="353" 
d="M28 250q0 262 149 262q77 0 112.5 -61.5t35.5 -200.5t-37.5 -200.5t-110.5 -61.5q-77 0 -113 61.5t-36 200.5zM96 250q0 -200 81 -200q41 0 60.5 47t19.5 153q0 200 -80 200q-81 0 -81 -200zM71 700l35 15q24 -78 74 -78q46 0 68 78l34 -13q-4 -56 -32.5 -92.5
t-70.5 -36.5q-40 0 -70 33.5t-38 93.5z" />
    <glyph glyph-name="Ohungarumlaut" unicode="&#x150;" horiz-adv-x="447" 
d="M33 350q0 182 45.5 272t144.5 90q104 0 147.5 -92t43.5 -270q0 -182 -46 -272t-145 -90q-103 0 -146.5 92t-43.5 270zM105 350q0 -84 10.5 -147.5t38 -106.5t69.5 -43q119 0 119 297q0 131 -28 214t-91 83q-118 0 -118 -297zM147 741l41 109h73v-16l-66 -93h-48zM239 741
l66 109h76v-16l-93 -93h-49z" />
    <glyph glyph-name="ohungarumlaut" unicode="&#x151;" horiz-adv-x="353" 
d="M28 250q0 262 149 262q77 0 112.5 -61.5t35.5 -200.5t-37.5 -200.5t-110.5 -61.5q-77 0 -113 61.5t-36 200.5zM96 250q0 -200 81 -200q41 0 60.5 47t19.5 153q0 200 -80 200q-81 0 -81 -200zM106 571l23 129h63v-16l-48 -113h-38zM186 571l48 129h68v-16l-76 -113h-40z
" />
    <glyph glyph-name="OE" unicode="&#x152;" horiz-adv-x="609" 
d="M309 69v557q-33 21 -86 21q-118 0 -118 -297q0 -130 30 -213.5t93 -83.5q47 0 81 16zM309 0q-36 -12 -87 -12q-189 0 -189 362t189 362q37 0 87 -12h260v-65h-190v-243h173v-65h-173v-262h193v-65h-263z" />
    <glyph glyph-name="oe" unicode="&#x153;" horiz-adv-x="559" 
d="M96 250q0 -86 20 -143t61 -57q78 0 78 200q0 87 -18.5 143.5t-59.5 56.5q-81 0 -81 -200zM290 70q-34 -82 -114 -82q-148 0 -148 262q0 126 39 194t110 68q81 0 113 -81q36 81 113 81q128 0 128 -183q0 -48 -5 -87h-204q2 -193 101 -193q21 0 44 9.5t35 23.5l24 -50
q-41 -44 -121 -44q-40 0 -70.5 22.5t-44.5 59.5zM403 451q-72 0 -80 -153h145q0 153 -65 153z" />
    <glyph glyph-name="Racute" unicode="&#x154;" horiz-adv-x="395" 
d="M50 0v693q55 15 120 15q164 0 164 -192q0 -164 -102 -197l32 -39l110 -280h-79l-118 307l-57 15v-322h-70zM176 643q-40 0 -56 -6v-268h45q97 0 97 143q0 59 -21.5 95t-64.5 36zM134 752l74 118h88v-21l-107 -97h-55z" />
    <glyph glyph-name="racute" unicode="&#x155;" horiz-adv-x="225" 
d="M223 500l-12 -70q-19 8 -37 8q-24 0 -40.5 -15t-21.5 -41v-382h-67v500h48l11 -48h3q24 56 75 56q21 0 41 -8zM90 571l37 149h71v-21l-69 -128h-39z" />
    <glyph glyph-name="Rcommaaccent" unicode="&#x156;" horiz-adv-x="395" 
d="M50 0v693q55 15 120 15q164 0 164 -192q0 -164 -102 -197l32 -39l110 -280h-79l-118 307l-57 15v-322h-70zM176 643q-40 0 -56 -6v-268h45q97 0 97 143q0 59 -21.5 95t-64.5 36zM160 -102q0 21 11 34t27 13q47 0 47 -75q0 -45 -19.5 -75t-40.5 -40l-25 23q34 32 34 78h-4
q-12 0 -21 11t-9 31z" />
    <glyph glyph-name="rcommaaccent" unicode="&#x157;" horiz-adv-x="225" 
d="M223 500l-12 -70q-19 8 -37 8q-24 0 -40.5 -15t-21.5 -41v-382h-67v500h48l11 -48h3q24 56 75 56q21 0 41 -8zM47 -102q0 21 11 34t27 13q47 0 47 -75q0 -45 -19.5 -75t-40.5 -40l-25 23q34 32 34 78h-4q-12 0 -21 11t-9 31z" />
    <glyph glyph-name="Rcaron" unicode="&#x158;" horiz-adv-x="395" 
d="M50 0v693q55 15 120 15q164 0 164 -192q0 -164 -102 -197l32 -39l110 -280h-79l-118 307l-57 15v-322h-70zM176 643q-40 0 -56 -6v-268h45q97 0 97 143q0 59 -21.5 95t-64.5 36zM279 848l-87 -102h-49l-83 103v21h60l37 -50l12 -34l13 33l39 51h58v-22z" />
    <glyph glyph-name="rcaron" unicode="&#x159;" horiz-adv-x="225" 
d="M223 500l-12 -70q-19 8 -37 8q-24 0 -40.5 -15t-21.5 -41v-382h-67v500h48l11 -48h3q24 56 75 56q21 0 41 -8zM224 732l-82 -182h-39l-76 182h61l25 -66l13 -58l13 58l29 66h56z" />
    <glyph glyph-name="Sacute" unicode="&#x15a;" horiz-adv-x="350" 
d="M253 165q0 41 -22 79.5t-54 69.5l-64 66q-32 34 -54 79.5t-22 97.5q0 79 42.5 117t111.5 38q76 0 123 -31l-22 -63q-39 29 -100 29q-43 0 -64 -23.5t-21 -64.5q0 -35 22 -70.5t54 -67t64 -66.5t54 -83t22 -102q0 -86 -44.5 -134t-125.5 -48q-83 0 -129 35l24 66
q45 -36 104 -36q49 0 75 28.5t26 83.5zM155 752l74 118h88v-21l-107 -97h-55z" />
    <glyph glyph-name="sacute" unicode="&#x15b;" horiz-adv-x="276" 
d="M186 113q0 35 -16 62.5t-38 47.5l-46 41q-23 21 -39 53t-16 74q0 58 30.5 89.5t84.5 31.5q62 0 100 -25l-18 -57q-35 20 -73 20q-57 0 -57 -58q0 -27 16 -50.5t38 -43.5l46 -42q23 -23 39 -59.5t16 -81.5q0 -53 -33.5 -90t-93.5 -37q-62 0 -104 26l19 61q41 -25 81 -25
q28 0 46 16.5t18 46.5zM117 571l37 149h71v-21l-69 -128h-39z" />
    <glyph glyph-name="Scircumflex" unicode="&#x15c;" horiz-adv-x="350" 
d="M253 165q0 41 -22 79.5t-54 69.5l-64 66q-32 34 -54 79.5t-22 97.5q0 79 42.5 117t111.5 38q76 0 123 -31l-22 -63q-39 29 -100 29q-43 0 -64 -23.5t-21 -64.5q0 -35 22 -70.5t54 -67t64 -66.5t54 -83t22 -102q0 -86 -44.5 -134t-125.5 -48q-83 0 -129 35l24 66
q45 -36 104 -36q49 0 75 28.5t26 83.5zM82 769l87 101h44l83 -102v-21h-55l-39 49l-12 35l-13 -34l-42 -50h-53v22z" />
    <glyph glyph-name="scircumflex" unicode="&#x15d;" horiz-adv-x="276" 
d="M186 113q0 35 -16 62.5t-38 47.5l-46 41q-23 21 -39 53t-16 74q0 58 30.5 89.5t84.5 31.5q62 0 100 -25l-18 -57q-35 20 -73 20q-57 0 -57 -58q0 -27 16 -50.5t38 -43.5l46 -42q23 -23 39 -59.5t16 -81.5q0 -53 -33.5 -90t-93.5 -37q-62 0 -104 26l19 61q41 -25 81 -25
q28 0 46 16.5t18 46.5zM49 550l81 182h37l72 -182h-56l-26 66l-12 58l-13 -58l-30 -66h-53z" />
    <glyph glyph-name="Scedilla" unicode="&#x15e;" horiz-adv-x="350" 
d="M253 165q0 41 -22 79.5t-54 69.5l-64 66q-32 34 -54 79.5t-22 97.5q0 79 42.5 117t111.5 38q76 0 123 -31l-22 -63q-39 29 -100 29q-43 0 -64 -23.5t-21 -64.5q0 -35 22 -70.5t54 -67t64 -66.5t54 -83t22 -102q0 -77 -36 -124t-102 -56l-12 -33q54 -15 54 -75
q0 -40 -25 -65t-65 -25q-12 0 -32 4l6 39q5 -1 15 -1q40 0 40 39q0 28 -56 37l29 78q-74 3 -115 35l24 66q45 -36 104 -36q49 0 75 28.5t26 83.5z" />
    <glyph glyph-name="scedilla" unicode="&#x15f;" horiz-adv-x="276" 
d="M186 113q0 35 -16 62.5t-38 47.5l-46 41q-23 21 -39 53t-16 74q0 58 30.5 89.5t84.5 31.5q62 0 100 -25l-18 -57q-35 20 -73 20q-57 0 -57 -58q0 -27 16 -50.5t39 -43.5l45 -42q23 -23 39 -59.5t16 -81.5q0 -46 -25.5 -81t-72.5 -44l-12 -33q54 -15 54 -75q0 -40 -25 -65
t-65 -25q-12 0 -32 4l6 39q5 -1 15 -1q40 0 40 39q0 28 -56 37l29 78q-49 3 -87 26l19 61q41 -25 81 -25q28 0 46 16.5t18 46.5z" />
    <glyph glyph-name="Scaron" unicode="&#x160;" horiz-adv-x="350" 
d="M253 165q0 41 -22 79.5t-54 69.5l-64 66q-32 34 -54 79.5t-22 97.5q0 79 42.5 117t111.5 38q76 0 123 -31l-22 -63q-39 29 -100 29q-43 0 -64 -23.5t-21 -64.5q0 -35 22 -70.5t54 -67t64 -66.5t54 -83t22 -102q0 -86 -44.5 -134t-125.5 -48q-83 0 -129 35l24 66
q45 -36 104 -36q49 0 75 28.5t26 83.5zM299 848l-87 -102h-49l-83 103v21h60l37 -50l12 -34l13 33l39 51h58v-22z" />
    <glyph glyph-name="scaron" unicode="&#x161;" horiz-adv-x="276" 
d="M186 113q0 35 -16 62.5t-38 47.5l-46 41q-23 21 -39 53t-16 74q0 58 30.5 89.5t84.5 31.5q62 0 100 -25l-18 -57q-35 20 -73 20q-57 0 -57 -58q0 -27 16 -50.5t38 -43.5l46 -42q23 -23 39 -59.5t16 -81.5q0 -53 -33.5 -90t-93.5 -37q-62 0 -104 26l19 61q41 -25 81 -25
q28 0 46 16.5t18 46.5zM238 732l-82 -182h-39l-76 182h61l25 -66l13 -58l13 58l29 66h56z" />
    <glyph glyph-name="Tcedilla" unicode="&#x162;" horiz-adv-x="370" 
d="M360 700v-65h-140v-635h-13l-16 -43q54 -15 54 -75q0 -40 -25 -65t-65 -25q-12 0 -32 4l6 39q5 -1 15 -1q40 0 40 39q0 28 -56 37l34 90h-12v635h-140v65h350z" />
    <glyph glyph-name="tcedilla" unicode="&#x163;" horiz-adv-x="226" 
d="M7 438v62h49v99l67 23v-122h85v-62h-85v-313q0 -72 35 -72q24 0 51 11l12 -54q-26 -14 -62 -19l-13 -34q54 -15 54 -75q0 -40 -25 -65t-65 -25q-12 0 -32 4l6 39q5 -1 15 -1q40 0 40 39q0 28 -56 37l31 82q-58 13 -58 126v320h-49z" />
    <glyph glyph-name="Tcaron" unicode="&#x164;" horiz-adv-x="370" 
d="M360 700v-65h-140v-635h-70v635h-140v65h350zM294 848l-87 -102h-49l-83 103v21h60l37 -50l12 -34l13 33l39 51h58v-22z" />
    <glyph glyph-name="tcaron" unicode="&#x165;" horiz-adv-x="227" 
d="M7 438v62h49v99l67 23v-122h85v-62h-85v-313q0 -72 35 -72q24 0 51 11l12 -54q-35 -19 -86 -19q-41 0 -60 30.5t-19 96.5v320h-49zM171 714h66q-3 -52 -23.5 -108t-37.5 -79l-28 13q23 74 23 174z" />
    <glyph glyph-name="Tbar" unicode="&#x166;" horiz-adv-x="390" 
d="M370 700v-65h-140v-238h138v-65h-138v-332h-70v332h-138v65h138v238h-140v65h350z" />
    <glyph glyph-name="tbar" unicode="&#x167;" horiz-adv-x="248" 
d="M20 440v60h49v99l67 23v-122h86v-60h-86v-152h85v-59h-85v-83q0 -52 8 -74t27 -22q25 0 51 17l13 -57q-35 -22 -87 -22q-42 0 -60.5 35t-18.5 115v91h-49v59h49v152h-49z" />
    <glyph glyph-name="Utilde" unicode="&#x168;" horiz-adv-x="421" 
d="M307 251v449h67v-470q0 -126 -39 -182.5t-120 -56.5q-90 0 -129 53.5t-39 168.5v487h70v-449q0 -108 21 -151.5t78 -43.5q53 0 72 44.5t19 150.5zM117 746l-25 30q44 61 88 61q18 0 48 -15.5t43 -15.5q19 0 37 22l26 -33q-37 -51 -75 -51q-17 0 -47 15.5t-45 15.5
q-24 0 -50 -29z" />
    <glyph glyph-name="utilde" unicode="&#x169;" horiz-adv-x="355" 
d="M40 500h67v-323q0 -70 12 -98.5t39 -28.5q30 0 51.5 27.5t32.5 65.5v357h67v-358q0 -84 9 -142h-48l-15 64h-3q-15 -32 -42 -54t-63 -22q-55 0 -81 35.5t-26 136.5v340zM89 621l-24 30q43 60 78 60q17 0 42 -19.5t39 -19.5q17 0 33 19l22 -31q-38 -52 -71 -52
q-16 0 -41.5 18.5t-37.5 18.5q-20 0 -40 -24z" />
    <glyph glyph-name="Umacron" unicode="&#x16a;" horiz-adv-x="421" 
d="M307 251v449h67v-470q0 -126 -39 -182.5t-120 -56.5q-90 0 -129 53.5t-39 168.5v487h70v-449q0 -108 21 -151.5t78 -43.5q53 0 72 44.5t19 150.5zM104 761v62h216v-62h-216z" />
    <glyph glyph-name="umacron" unicode="&#x16b;" horiz-adv-x="355" 
d="M40 500h67v-323q0 -70 12 -98.5t39 -28.5q30 0 51.5 27.5t32.5 65.5v357h67v-358q0 -84 9 -142h-48l-15 64h-3q-15 -32 -42 -54t-63 -22q-55 0 -81 35.5t-26 136.5v340zM74 585v58h203v-58h-203z" />
    <glyph glyph-name="Ubreve" unicode="&#x16c;" horiz-adv-x="421" 
d="M307 251v449h67v-470q0 -126 -39 -182.5t-120 -56.5q-90 0 -129 53.5t-39 168.5v487h70v-449q0 -108 21 -151.5t78 -43.5q53 0 72 44.5t19 150.5zM91 853l34 18q13 -35 36 -57t53 -22q55 0 84 79l33 -14q-13 -62 -45.5 -94.5t-72.5 -32.5q-38 0 -72.5 31.5t-49.5 91.5z
" />
    <glyph glyph-name="ubreve" unicode="&#x16d;" horiz-adv-x="355" 
d="M40 500h67v-323q0 -70 12 -98.5t39 -28.5q30 0 51.5 27.5t32.5 65.5v357h67v-358q0 -84 9 -142h-48l-15 64h-3q-15 -32 -42 -54t-63 -22q-55 0 -81 35.5t-26 136.5v340zM65 700l35 15q24 -78 74 -78q46 0 68 78l34 -13q-4 -56 -32.5 -92.5t-70.5 -36.5q-40 0 -70 33.5
t-38 93.5z" />
    <glyph glyph-name="Uring" unicode="&#x16e;" horiz-adv-x="421" 
d="M134 768q0 39 19.5 62t58.5 23q38 0 58 -22t20 -63q0 -38 -20 -60.5t-58 -22.5t-58 22t-20 61zM183 768q0 -43 29 -43t29 43q0 45 -29 45t-29 -45zM307 251v449h67v-470q0 -126 -39 -182.5t-120 -56.5q-90 0 -129 53.5t-39 168.5v487h70v-449q0 -108 21 -151.5t78 -43.5
q53 0 72 44.5t19 150.5z" />
    <glyph glyph-name="uring" unicode="&#x16f;" horiz-adv-x="355" 
d="M40 500h67v-323q0 -70 12 -98.5t39 -28.5q30 0 51.5 27.5t32.5 65.5v357h67v-358q0 -84 9 -142h-48l-15 64h-3q-15 -32 -42 -54t-63 -22q-55 0 -81 35.5t-26 136.5v340zM101 643q0 42 18.5 65t52.5 23q71 0 71 -88q0 -40 -19 -63.5t-52 -23.5q-71 0 -71 87zM145 643
q0 -48 27 -48t27 48q0 49 -27 49t-27 -49z" />
    <glyph glyph-name="Uhungarumlaut" unicode="&#x170;" horiz-adv-x="421" 
d="M307 251v449h67v-470q0 -126 -39 -182.5t-120 -56.5q-90 0 -129 53.5t-39 168.5v487h70v-449q0 -108 21 -151.5t78 -43.5q53 0 72 44.5t19 150.5zM128 741l41 109h73v-16l-66 -93h-48zM220 741l66 109h76v-16l-93 -93h-49z" />
    <glyph glyph-name="uhungarumlaut" unicode="&#x171;" horiz-adv-x="355" 
d="M40 500h67v-323q0 -70 12 -98.5t39 -28.5q30 0 51.5 27.5t32.5 65.5v357h67v-358q0 -84 9 -142h-48l-15 64h-3q-15 -32 -42 -54t-63 -22q-55 0 -81 35.5t-26 136.5v340zM106 571l23 129h63v-16l-48 -113h-38zM186 571l48 129h68v-16l-76 -113h-40z" />
    <glyph glyph-name="Uogonek" unicode="&#x172;" horiz-adv-x="421" 
d="M307 251v449h67v-470q0 -186 -93 -227q-39 -34 -39 -91q0 -52 38 -52q8 0 23 5l10 -38q-21 -23 -64 -23q-34 0 -54 24t-20 62q0 61 46 101h-6q-90 0 -129 53.5t-39 168.5v487h70v-449q0 -108 21 -151.5t78 -43.5q53 0 72 44.5t19 150.5z" />
    <glyph glyph-name="uogonek" unicode="&#x173;" horiz-adv-x="355" 
d="M40 500h67v-323q0 -70 12 -98.5t39 -28.5q30 0 51.5 27.5t32.5 65.5v357h67v-358q0 -84 9 -142h-11q-45 -36 -45 -91q0 -21 10.5 -36.5t26.5 -15.5q13 0 26 9l10 -41q-19 -24 -65 -24q-32 0 -51 24t-19 65q0 80 67 116l-12 58h-3q-15 -32 -42 -54t-63 -22q-55 0 -81 35.5
t-26 136.5v340z" />
    <glyph glyph-name="Wcircumflex" unicode="&#x174;" horiz-adv-x="554" 
d="M79 700l72 -459l10 -118h2l9 120l88 457h46l85 -458l10 -119h1l11 120l68 457h70l-128 -711h-46l-87 455l-10 108h-3l-11 -109l-87 -454h-47l-129 711h76zM176 769l87 101h44l83 -102v-21h-55l-39 49l-12 35l-13 -34l-42 -50h-53v22z" />
    <glyph glyph-name="wcircumflex" unicode="&#x175;" horiz-adv-x="481" 
d="M221 500h49l69 -292l14 -96h2l11 98l53 290h60l-106 -511h-42l-79 327l-9 85h-3l-9 -87l-76 -325h-43l-110 511h70l60 -291l10 -97h2l13 99zM147 550l81 182h37l72 -182h-56l-26 66l-12 58l-13 -58l-30 -66h-53z" />
    <glyph glyph-name="Ycircumflex" unicode="&#x176;" horiz-adv-x="377" 
d="M154 0v278l-151 422h80l98 -304l11 -61h2l10 63l96 302h74l-150 -421v-279h-70zM83 769l87 101h44l83 -102v-21h-55l-39 49l-12 35l-13 -34l-42 -50h-53v22z" />
    <glyph glyph-name="ycircumflex" unicode="&#x177;" horiz-adv-x="309" 
d="M78 500l74 -324l17 -96h3l11 97l60 323h66l-97 -449l-16 -73l-16 -60.5t-17.5 -52.5t-19.5 -37t-24 -25.5t-28 -7.5q-27 0 -42 9l11 65q10 -2 13 -2q45 0 63 133l-134 500h76zM68 550l81 182h37l72 -182h-56l-26 66l-12 58l-13 -58l-30 -66h-53z" />
    <glyph glyph-name="Ydieresis" unicode="&#x178;" horiz-adv-x="377" 
d="M154 0v278l-151 422h80l98 -304l11 -61h2l10 63l96 302h74l-150 -421v-279h-70zM84 794q0 21 11 34t31 13q19 0 30 -13t11 -34t-11 -33.5t-30 -12.5q-42 0 -42 46zM217 794q0 21 11 34t30 13q41 0 41 -47q0 -46 -41 -46q-19 0 -30 12.5t-11 33.5z" />
    <glyph glyph-name="Zacute" unicode="&#x179;" horiz-adv-x="360" 
d="M23 0v65l221 530l27 40h-248v65h314v-65l-222 -533l-26 -37h248v-65h-314zM144 752l74 118h88v-21l-107 -97h-55z" />
    <glyph glyph-name="zacute" unicode="&#x17a;" horiz-adv-x="295" 
d="M25 0v62l151 333l30 43h-181v62h244v-62l-153 -336l-29 -40h182v-62h-244zM122 571l37 149h71v-21l-69 -128h-39z" />
    <glyph glyph-name="Zdotaccent" unicode="&#x17b;" horiz-adv-x="360" 
d="M23 0v65l221 530l27 40h-248v65h314v-65l-222 -533l-26 -37h248v-65h-314zM133 797q0 22 13 37t35 15t35.5 -15t13.5 -37q0 -23 -13 -38t-36 -15t-35.5 15t-12.5 38z" />
    <glyph glyph-name="zdotaccent" unicode="&#x17c;" horiz-adv-x="295" 
d="M25 0v62l151 333l30 43h-181v62h244v-62l-153 -336l-29 -40h182v-62h-244zM105 652q0 25 12 38.5t32 13.5t33 -13.5t13 -38.5q0 -24 -12.5 -36.5t-33.5 -12.5q-44 0 -44 49z" />
    <glyph glyph-name="Zcaron" unicode="&#x17d;" horiz-adv-x="360" 
d="M23 0v65l221 530l27 40h-248v65h314v-65l-222 -533l-26 -37h248v-65h-314zM287 848l-87 -102h-49l-83 103v21h60l37 -50l12 -34l13 33l39 51h58v-22z" />
    <glyph glyph-name="zcaron" unicode="&#x17e;" horiz-adv-x="295" 
d="M25 0v62l151 333l30 43h-181v62h244v-62l-153 -336l-29 -40h182v-62h-244zM247 732l-82 -182h-39l-76 182h61l25 -66l13 -58l13 58l29 66h56z" />
    <glyph glyph-name="longs" unicode="&#x17f;" horiz-adv-x="174" 
d="M12 438v62h48v28q0 93 23 135.5t75 42.5q50 0 80 -16l-16 -56q-23 10 -49 10q-29 0 -37.5 -29t-8.5 -114v-501h-67v438h-48z" />
    <glyph glyph-name="uni018F" unicode="&#x18f;" horiz-adv-x="420" 
d="M318 326h-214q-3 -39 -3 -72q0 -90 25.5 -147t76.5 -57q113 0 115 276zM39 388h278q-5 131 -35.5 195t-95.5 64q-50 0 -102 -40l-22 61q66 44 135 44q98 0 144 -85.5t46 -276.5q0 -362 -186 -362q-84 0 -127 72.5t-43 201.5q0 54 8 126z" />
    <glyph glyph-name="florin" unicode="&#x192;" 
d="M310 438h-88l-50 -472q-9 -82 -33.5 -128t-74.5 -46q-60 0 -89 18l19 59q28 -15 58 -15q24 0 37 36.5t21 117.5l43 430h-54v62h63l7 67q9 77 31 111t71 34q53 0 89 -18l-18 -57q-26 13 -57 13q-24 0 -34 -25t-16 -84l-4 -41h79v-62z" />
    <glyph glyph-name="uni01DD" unicode="&#x1dd;" horiz-adv-x="334" 
d="M63 423l-24 51q45 38 119 38q148 0 148 -262t-145 -262q-61 0 -97 51t-36 158q0 29 5 79h206q-2 91 -24.5 132.5t-73.5 41.5q-47 0 -78 -27zM162 50q76 0 76 169h-146v-22q0 -67 19.5 -107t50.5 -40z" />
    <glyph glyph-name="Gcaron" unicode="&#x1e6;" horiz-adv-x="402" 
d="M209 307v42h161v-309q-47 -52 -136 -52q-201 0 -201 362q0 186 57 274t149 88q69 0 114 -24l-16 -64q-37 23 -90 23q-64 0 -103 -71t-39 -226q0 -297 139 -297q40 0 68 25v211zM346 848l-87 -102h-49l-83 103v21h60l37 -50l12 -34l13 33l39 51h58v-22z" />
    <glyph glyph-name="gcaron" unicode="&#x1e7;" horiz-adv-x="353" 
d="M309 479v-502q0 -189 -140 -189q-74 0 -116 28l21 59q46 -25 87 -25q45 0 63.5 34t18.5 117v29h-3q-27 -41 -84 -41q-65 0 -96.5 63t-31.5 196q0 128 41.5 194t120.5 66q66 0 119 -29zM174 51q51 0 68 61v320q-21 14 -56 14q-42 0 -66 -48.5t-24 -148.5q0 -198 78 -198z
M277 732l-82 -182h-39l-76 182h61l25 -66l13 -58l13 58l29 66h56z" />
    <glyph glyph-name="uni01F4" unicode="&#x1f4;" horiz-adv-x="402" 
d="M209 307v42h161v-309q-47 -52 -136 -52q-201 0 -201 362q0 186 57 274t149 88q69 0 114 -24l-16 -64q-37 23 -90 23q-64 0 -103 -71t-39 -226q0 -297 139 -297q40 0 68 25v211zM201 752l74 118h88v-21l-107 -97h-55z" />
    <glyph glyph-name="uni01F5" unicode="&#x1f5;" horiz-adv-x="353" 
d="M309 479v-502q0 -189 -140 -189q-74 0 -116 28l21 59q46 -25 87 -25q45 0 63.5 34t18.5 117v29h-3q-27 -41 -84 -41q-65 0 -96.5 63t-31.5 196q0 128 41.5 194t120.5 66q66 0 119 -29zM174 51q51 0 68 61v320q-21 14 -56 14q-42 0 -66 -48.5t-24 -148.5q0 -198 78 -198z
M165 571l37 149h71v-21l-69 -128h-39z" />
    <glyph glyph-name="Aringacute" unicode="&#x1fa;" horiz-adv-x="389" 
d="M117 768q0 39 19.5 62t58.5 23q38 0 58 -22t20 -63q0 -65 -52 -80l166 -688h-73l-45 198h-154l-43 -198h-69l164 688q-50 15 -50 80zM177 477l-46 -217h124l-46 219l-15 105h-2zM166 768q0 -43 29 -43t29 43q0 45 -29 45t-29 -45zM155 882l74 118h88v-21l-107 -97h-55z
" />
    <glyph glyph-name="aringacute" unicode="&#x1fb;" horiz-adv-x="327" 
d="M66 421l-22 53q49 34 130 34q63 0 86.5 -39t23.5 -113q0 -41 -2 -117.5t-2 -108.5q0 -84 10 -132h-51l-15 50h-3q-29 -54 -97 -54q-46 0 -74 37.5t-28 102.5q0 152 163 152q21 0 32 -1q2 40 2 54q0 58 -14 82.5t-48 24.5q-53 0 -91 -25zM144 56q52 0 74 51v123
q-11 2 -32 2q-96 0 -96 -90q0 -42 14.5 -64t39.5 -22zM91 641q0 42 18.5 65t52.5 23q71 0 71 -88q0 -40 -19 -63.5t-52 -23.5q-71 0 -71 87zM135 641q0 -48 27 -48t27 48q0 49 -27 49t-27 -49zM124 752l74 118h88v-21l-107 -97h-55z" />
    <glyph glyph-name="AEacute" unicode="&#x1fc;" horiz-adv-x="561" 
d="M261 580h-2l-21 -94l-82 -223h105v317zM261 0v201h-130l-73 -201h-73l274 700h262v-65h-190v-243h173v-65h-173v-262h193v-65h-263zM276 752l74 118h88v-21l-107 -97h-55z" />
    <glyph glyph-name="aeacute" unicode="&#x1fd;" horiz-adv-x="520" 
d="M145 54q29 0 47 19t26 47v115q-16 2 -25 2q-103 0 -103 -92q0 -37 15.5 -64t39.5 -27zM244 65h-4q-36 -73 -112 -73q-48 0 -77 40t-29 106q0 82 40.5 117.5t116.5 35.5q12 0 38 -2q2 38 2 51q0 59 -13.5 82.5t-48.5 23.5q-53 0 -96 -34l-19 53q49 43 131 43q68 0 89 -63
q32 67 103 67q127 0 127 -186q0 -48 -5 -87h-205q1 -98 23.5 -143.5t74.5 -45.5q49 0 78 27l24 -51q-45 -38 -119 -38q-87 0 -119 77zM365 450q-75 0 -81 -156h145v18q0 66 -17 102t-47 36zM236 571l37 149h71v-21l-69 -128h-39z" />
    <glyph glyph-name="Oslashacute" unicode="&#x1fe;" horiz-adv-x="447" 
d="M33 350q0 182 45.5 272t144.5 90q71 0 114 -46l21 47l45 -21l-33 -73q44 -87 44 -269t-46 -272t-145 -90q-69 0 -112 43l-19 -43l-48 22l32 71q-43 86 -43 269zM105 350q0 -103 15 -170l182 409q-29 58 -79 58q-118 0 -118 -297zM342 350q0 98 -16 169l-181 -411
q31 -55 78 -55q119 0 119 297zM189 752l74 118h88v-21l-107 -97h-55z" />
    <glyph glyph-name="oslashacute" unicode="&#x1ff;" horiz-adv-x="361" 
d="M34 250q0 262 148 262q47 0 80 -27l15 30l47 -25l-26 -52q33 -66 33 -188q0 -262 -149 -262q-50 0 -84 29l-17 -31l-47 27l28 56q-28 63 -28 181zM263 250q0 59 -8 107l-128 -271q20 -36 55 -36q41 0 61 47.5t20 152.5zM102 250q0 -68 6 -102l125 271q-20 31 -51 31
q-80 0 -80 -200zM152 571l37 149h71v-21l-69 -128h-39z" />
    <glyph glyph-name="Scommaaccent" unicode="&#x218;" horiz-adv-x="350" 
d="M253 165q0 41 -22 79.5t-54 69.5l-64 66q-32 34 -54 79.5t-22 97.5q0 79 42.5 117t111.5 38q76 0 123 -31l-22 -63q-39 29 -100 29q-43 0 -64 -23.5t-21 -64.5q0 -35 22 -70.5t54 -67t64 -66.5t54 -83t22 -102q0 -86 -44.5 -134t-125.5 -48q-83 0 -129 35l24 66
q45 -36 104 -36q49 0 75 28.5t26 83.5zM124 -102q0 21 11 34t27 13q47 0 47 -75q0 -45 -19.5 -75t-40.5 -40l-25 23q34 32 34 78h-4q-12 0 -21 11t-9 31z" />
    <glyph glyph-name="scommaaccent" unicode="&#x219;" horiz-adv-x="276" 
d="M186 113q0 35 -16 62.5t-38 47.5l-46 41q-23 21 -39 53t-16 74q0 58 30.5 89.5t84.5 31.5q62 0 100 -25l-18 -57q-35 20 -73 20q-57 0 -57 -58q0 -27 16 -50.5t38 -43.5l46 -42q23 -23 39 -59.5t16 -81.5q0 -53 -33.5 -90t-93.5 -37q-62 0 -104 26l19 61q41 -25 81 -25
q28 0 46 16.5t18 46.5zM91 -102q0 21 11 34t27 13q47 0 47 -75q0 -45 -19.5 -75t-40.5 -40l-25 23q34 32 34 78h-4q-12 0 -21 11t-9 31z" />
    <glyph glyph-name="Tcommaaccent" unicode="&#x21a;" horiz-adv-x="370" 
d="M360 700v-65h-140v-635h-70v635h-140v65h350zM144 -102q0 21 11 34t27 13q47 0 47 -75q0 -45 -19.5 -75t-40.5 -40l-25 23q34 32 34 78h-4q-12 0 -21 11t-9 31z" />
    <glyph glyph-name="tcommaaccent" unicode="&#x21b;" horiz-adv-x="226" 
d="M7 438v62h49v99l67 23v-122h85v-62h-85v-313q0 -72 35 -72q24 0 51 11l12 -54q-35 -19 -86 -19q-41 0 -60 30.5t-19 96.5v320h-49zM85 -102q0 21 11 34t27 13q47 0 47 -75q0 -45 -19.5 -75t-40.5 -40l-25 23q34 32 34 78h-4q-12 0 -21 11t-9 31z" />
    <glyph glyph-name="uni0237" unicode="&#x237;" horiz-adv-x="177" 
d="M56 2v498h67v-527q0 -185 -100 -185q-7 0 -23 2v63q35 0 45.5 34t10.5 115z" />
    <glyph glyph-name="uni0259" unicode="&#x259;" horiz-adv-x="334" 
d="M63 423l-24 51q45 38 119 38q148 0 148 -262t-145 -262q-61 0 -97 51t-36 158q0 29 5 79h206q-2 91 -24.5 132.5t-73.5 41.5q-47 0 -78 -27zM162 50q76 0 76 169h-146v-22q0 -67 19.5 -107t50.5 -40z" />
    <glyph glyph-name="afii57929" unicode="&#x2bc;" horiz-adv-x="136" 
d="M23 659q0 22 12 35.5t30 13.5q47 0 47 -65q0 -96 -64 -140l-23 26q36 30 36 82h-4q-12 0 -23 12.5t-11 35.5z" />
    <glyph glyph-name="circumflex" unicode="&#x2c6;" horiz-adv-x="310" 
d="M60 550l81 182h37l72 -182h-56l-26 66l-12 58l-13 -58l-30 -66h-53z" />
    <glyph glyph-name="caron" unicode="&#x2c7;" horiz-adv-x="317" 
d="M257 732l-82 -182h-39l-76 182h61l25 -66l13 -58l13 58l29 66h56z" />
    <glyph glyph-name="breve" unicode="&#x2d8;" horiz-adv-x="331" 
d="M60 700l35 15q24 -78 74 -78q46 0 68 78l34 -13q-4 -56 -32.5 -92.5t-70.5 -36.5q-40 0 -70 33.5t-38 93.5z" />
    <glyph glyph-name="dotaccent" unicode="&#x2d9;" horiz-adv-x="210" 
d="M60 652q0 25 12 38.5t32 13.5t33 -13.5t13 -38.5q0 -24 -12.5 -36.5t-33.5 -12.5q-44 0 -44 49z" />
    <glyph glyph-name="ring" unicode="&#x2da;" horiz-adv-x="262" 
d="M60 643q0 42 18.5 65t52.5 23q71 0 71 -88q0 -40 -19 -63.5t-52 -23.5q-71 0 -71 87zM104 643q0 -48 27 -48t27 48q0 49 -27 49t-27 -49z" />
    <glyph glyph-name="ogonek" unicode="&#x2db;" horiz-adv-x="258" 
d="M134 10h43q-50 -33 -50 -97q0 -53 38 -53q11 0 23 5l10 -37q-21 -23 -60 -23q-36 0 -57 23.5t-21 60.5q0 81 74 121z" />
    <glyph glyph-name="tilde" unicode="&#x2dc;" horiz-adv-x="334" 
d="M84 621l-24 30q43 60 78 60q16 0 42 -19.5t39 -19.5q17 0 33 19l22 -31q-38 -52 -71 -52q-16 0 -41.5 18.5t-37.5 18.5q-20 0 -40 -24z" />
    <glyph glyph-name="hungarumlaut" unicode="&#x2dd;" horiz-adv-x="316" 
d="M60 571l23 129h63v-16l-48 -113h-38zM140 571l48 129h68v-16l-76 -113h-40z" />
    <glyph glyph-name="gravecomb" unicode="&#x300;" horiz-adv-x="2" 
d="M-178 720l42 -149h-38l-78 128v21h74z" />
    <glyph glyph-name="acutecomb" unicode="&#x301;" horiz-adv-x="2" 
d="M-203 571l37 149h71v-21l-69 -128h-39z" />
    <glyph glyph-name="uni0394" unicode="&#x394;" horiz-adv-x="378" 
d="M371 0h-362v37l162 674h35l165 -674v-37zM169 459l-90 -399h219l-95 401l-15 121h-3z" />
    <glyph glyph-name="uni0394" unicode="&#x2206;" horiz-adv-x="378" 
d="M371 0h-362v37l162 674h35l165 -674v-37zM169 459l-90 -399h219l-95 401l-15 121h-3z" />
    <glyph glyph-name="uni03A9" unicode="&#x3a9;" horiz-adv-x="518" 
d="M44 0v62h73l60 -10v26l-34 11q-42 31 -70.5 109t-28.5 178q0 157 58.5 246.5t156.5 89.5q101 0 158 -93t57 -247q0 -100 -29 -174.5t-68 -107.5l-36 -12v-26l60 10h73v-62h-192v109q45 14 82.5 83t37.5 185q0 69 -14 129t-48 102t-82 42q-67 0 -104.5 -72.5t-37.5 -203.5
q0 -115 36.5 -184t83.5 -81v-109h-192z" />
    <glyph glyph-name="uni03A9" unicode="&#x2126;" horiz-adv-x="518" 
d="M44 0v62h73l60 -10v26l-34 11q-42 31 -70.5 109t-28.5 178q0 157 58.5 246.5t156.5 89.5q101 0 158 -93t57 -247q0 -100 -29 -174.5t-68 -107.5l-36 -12v-26l60 10h73v-62h-192v109q45 14 82.5 83t37.5 185q0 69 -14 129t-48 102t-82 42q-67 0 -104.5 -72.5t-37.5 -203.5
q0 -115 36.5 -184t83.5 -81v-109h-192z" />
    <glyph glyph-name="pi" unicode="&#x3c0;" horiz-adv-x="438" 
d="M352 438v-329q0 -51 21 -51q10 0 29 7l13 -52q-34 -17 -71 -17q-33 0 -46 27.5t-13 82.5v332h-111v-438h-67v438h-10q-28 0 -46 -40l-36 39q25 63 94 63h298v-62h-55z" />
    <glyph glyph-name="afii10023" unicode="&#x401;" horiz-adv-x="350" 
d="M50 0v700h259v-65h-189v-243h173v-65h-173v-262h193v-65h-263zM70 794q0 21 11 34t31 13q19 0 30 -13t11 -34t-11 -33.5t-30 -12.5q-42 0 -42 46zM203 794q0 21 11 34t30 13q41 0 41 -47q0 -46 -41 -46q-19 0 -30 12.5t-11 33.5z" />
    <glyph glyph-name="afii10051" unicode="&#x402;" horiz-adv-x="483" 
d="M220 350v-350h-70v635h-140v65h350v-65h-140v-221q36 23 93 23q137 0 137 -211q0 -120 -36 -177t-117 -57q-37 0 -46 3v64q12 -2 43 -2q45 0 64.5 39.5t19.5 122.5q0 84 -22.5 118.5t-66.5 34.5q-29 0 -69 -22z" />
    <glyph glyph-name="afii10052" unicode="&#x403;" horiz-adv-x="295" 
d="M305 700v-65h-185v-635h-70v700h255zM129 752l74 118h88v-21l-107 -97h-55z" />
    <glyph glyph-name="afii10053" unicode="&#x404;" horiz-adv-x="384" 
d="M341 85l16 -60q-40 -37 -124 -37q-200 0 -200 362q0 191 55 276.5t146 85.5q71 0 117 -24l-17 -64q-37 23 -93 23q-125 0 -135 -254h195v-65h-196q3 -135 41.5 -205t106.5 -70q43 0 88 32z" />
    <glyph glyph-name="afii10054" unicode="&#x405;" horiz-adv-x="350" 
d="M253 165q0 41 -22 79.5t-54 69.5l-64 66q-32 34 -54 79.5t-22 97.5q0 79 42.5 117t111.5 38q76 0 123 -31l-22 -63q-39 29 -100 29q-43 0 -64 -23.5t-21 -64.5q0 -35 22 -70.5t54 -67t64 -66.5t54 -83t22 -102q0 -86 -44.5 -134t-125.5 -48q-83 0 -129 35l24 66
q45 -36 104 -36q49 0 75 28.5t26 83.5z" />
    <glyph glyph-name="afii10055" unicode="&#x406;" horiz-adv-x="191" 
d="M61 0v700h70v-700h-70z" />
    <glyph glyph-name="afii10056" unicode="&#x407;" horiz-adv-x="192" 
d="M9 793q0 22 10.5 35t28.5 13t28 -13t10 -35q0 -47 -38 -47q-18 0 -28.5 12.5t-10.5 34.5zM106 793q0 22 10 35t28 13t28.5 -13t10.5 -35t-10.5 -34.5t-28.5 -12.5q-38 0 -38 47zM61 0v700h70v-700h-70z" />
    <glyph glyph-name="afii10057" unicode="&#x408;" horiz-adv-x="205" 
d="M79 169v531h70v-541q0 -88 -21.5 -128.5t-80.5 -40.5q-41 0 -68 16l16 61q16 -12 40 -12q29 0 36.5 26t7.5 88z" />
    <glyph glyph-name="afii10058" unicode="&#x409;" horiz-adv-x="614" 
d="M292 5v630h-119q-13 -433 -49 -548q-27 -92 -85 -92q-23 0 -43 10l9 65q7 -3 14 -3q26 0 42 52q40 124 45 581h256v-272q29 9 67 9q164 0 164 -210q0 -121 -45.5 -178t-138.5 -57q-68 0 -117 13zM415 57q106 0 106 163q0 83 -27.5 117.5t-78.5 34.5q-35 0 -53 -9v-300
q18 -6 53 -6z" />
    <glyph glyph-name="afii10059" unicode="&#x40a;" horiz-adv-x="639" 
d="M317 6v334h-197v-340h-70v700h70v-295h197v295h70v-295q27 9 68 9q76 0 119.5 -43t43.5 -155q0 -118 -46 -171t-136 -53q-72 0 -119 14zM443 57q103 0 103 152q0 79 -26.5 109.5t-76.5 30.5q-38 0 -56 -9v-277q14 -6 56 -6z" />
    <glyph glyph-name="afii10060" unicode="&#x40b;" horiz-adv-x="499" 
d="M220 330v-330h-70v635h-140v65h350v-65h-140v-237q48 42 114 42q63 0 94 -43t31 -150v-247h-70v237q0 78 -17 108t-58 30q-59 0 -94 -45z" />
    <glyph glyph-name="afii10061" unicode="&#x40c;" horiz-adv-x="406" 
d="M302 0l-155 324h-27v-324h-70v700h70v-326l26 14l142 312h80l-145 -302l-31 -32l35 -40l161 -326h-86zM155 752l74 118h88v-21l-107 -97h-55z" />
    <glyph glyph-name="afii10062" unicode="&#x40e;" horiz-adv-x="369" 
d="M81 700l107 -351l14 -90h4l13 92l82 349h71l-118 -455q-39 -154 -62 -202t-68 -48q-39 0 -64 21l20 62q18 -16 42 -16q31 0 49 118l-170 520h80zM80 855l66 15q5 -82 55 -82t55 81l59 -13q-13 -121 -115 -121q-51 0 -83.5 29.5t-36.5 90.5z" />
    <glyph glyph-name="afii10145" unicode="&#x40f;" horiz-adv-x="429" 
d="M180 0h-130v700h70v-635h189v635h70v-700h-132l-10 -179h-44z" />
    <glyph glyph-name="afii10017" unicode="&#x410;" horiz-adv-x="389" 
d="M314 0l-45 198h-154l-43 -198h-69l170 711h43l171 -711h-73zM177 477l-46 -217h124l-46 219l-15 105h-2z" />
    <glyph glyph-name="afii10018" unicode="&#x411;" horiz-adv-x="368" 
d="M50 5v695h264v-65h-194v-219q31 9 61 9q79 0 122 -45.5t43 -158.5q0 -229 -173 -229q-77 0 -123 13zM178 57q96 0 96 150q0 92 -25.5 122.5t-78.5 30.5q-36 0 -50 -8v-289q12 -6 58 -6z" />
    <glyph glyph-name="afii10019" unicode="&#x412;" 
d="M341 541q0 -57 -21 -105t-65 -66v-4q100 -26 100 -167q0 -104 -48 -155.5t-128 -51.5q-87 0 -129 13v689q58 14 131 14q74 0 117 -35t43 -132zM184 57q45 0 72 37t27 101q0 76 -29.5 103t-81.5 27h-52v-261q15 -7 64 -7zM120 387h32q28 0 50 5q30 14 48.5 49t18.5 82
q0 120 -87 120q-48 0 -62 -5v-251z" />
    <glyph glyph-name="afii10020" unicode="&#x413;" horiz-adv-x="295" 
d="M305 700v-65h-185v-635h-70v700h255z" />
    <glyph glyph-name="afii10021" unicode="&#x414;" horiz-adv-x="447" 
d="M431 65v-194h-49l-10 129h-311l-10 -129h-49v194h48q10 22 22.5 82t26.5 212t14 341h258v-635h60zM121 65h180v570h-121q-8 -403 -59 -570z" />
    <glyph glyph-name="afii10022" unicode="&#x415;" horiz-adv-x="350" 
d="M50 0v700h259v-65h-189v-243h173v-65h-173v-262h193v-65h-263z" />
    <glyph glyph-name="afii10024" unicode="&#x416;" horiz-adv-x="540" 
d="M234 386v314h67v-326l26 14l117 312h77l-121 -304l-29 -32l35 -40l136 -324h-85l-129 325h-27v-325h-67v337l-26 -14l-129 -323h-81l135 314l33 37l-32 35l-127 314h82l117 -314h28z" />
    <glyph glyph-name="afii10025" unicode="&#x417;" horiz-adv-x="354" 
d="M118 335h-31v62h19q42 0 55 5q32 12 53.5 45t21.5 78q0 122 -92 122q-51 0 -91 -25l-19 57q49 33 126 33q148 0 148 -172q0 -53 -21 -97t-62 -65v-5q45 -12 71 -55t26 -114q0 -110 -49 -163t-129 -53q-81 0 -122 26l19 65q41 -26 104 -26q48 0 76.5 39.5t28.5 110.5
q0 123 -103 131q-11 1 -29 1z" />
    <glyph glyph-name="afii10026" unicode="&#x418;" horiz-adv-x="444" 
d="M325 0v447l7 100h-4l-28 -104l-200 -443h-50v700h70v-453l-8 -100h3l29 104l202 449h49v-700h-70z" />
    <glyph glyph-name="afii10027" unicode="&#x419;" horiz-adv-x="444" 
d="M325 0v447l7 100h-4l-28 -104l-200 -443h-50v700h70v-453l-8 -100h3l29 104l202 449h49v-700h-70zM108 855l66 15q5 -82 55 -82t55 81l59 -13q-13 -121 -115 -121q-51 0 -83.5 29.5t-36.5 90.5z" />
    <glyph glyph-name="afii10028" unicode="&#x41a;" horiz-adv-x="406" 
d="M302 0l-155 324h-27v-324h-70v700h70v-326l26 14l142 312h80l-145 -302l-31 -32l35 -40l161 -326h-86z" />
    <glyph glyph-name="afii10029" unicode="&#x41b;" horiz-adv-x="411" 
d="M292 0v635h-119q-13 -433 -49 -548q-27 -92 -85 -92q-23 0 -43 10l9 65q7 -3 14 -3q26 0 42 52q40 124 45 581h256v-700h-70z" />
    <glyph glyph-name="afii10030" unicode="&#x41c;" horiz-adv-x="524" 
d="M404 0v452l10 108h-4l-27 -103l-110 -294h-24l-115 294l-27 103h-4l14 -108v-452h-67v700h65l130 -333l20 -85h1l19 86l124 332h65v-700h-70z" />
    <glyph glyph-name="afii10031" unicode="&#x41d;" horiz-adv-x="437" 
d="M317 0v326h-197v-326h-70v700h70v-309h197v309h70v-700h-70z" />
    <glyph glyph-name="afii10032" unicode="&#x41e;" horiz-adv-x="447" 
d="M33 350q0 182 45.5 272t144.5 90q104 0 147.5 -92t43.5 -270q0 -182 -46 -272t-145 -90q-103 0 -146.5 92t-43.5 270zM105 350q0 -84 10.5 -147.5t38 -106.5t69.5 -43q119 0 119 297q0 131 -28 214t-91 83q-118 0 -118 -297z" />
    <glyph glyph-name="afii10033" unicode="&#x41f;" horiz-adv-x="429" 
d="M309 0v635h-189v-635h-70v700h329v-700h-70z" />
    <glyph glyph-name="afii10034" unicode="&#x420;" horiz-adv-x="372" 
d="M50 0v692q48 16 117 16q184 0 184 -215q0 -118 -51 -174.5t-128 -56.5q-40 0 -52 4v-266h-70zM172 643q-37 0 -52 -5v-306q9 -5 45 -5q114 0 114 167q0 149 -107 149z" />
    <glyph glyph-name="afii10035" unicode="&#x421;" horiz-adv-x="372" 
d="M336 85l16 -60q-38 -37 -119 -37q-200 0 -200 362q0 191 55 276.5t146 85.5q66 0 112 -24l-17 -64q-37 23 -88 23q-62 0 -99 -71t-37 -226q0 -146 37 -221.5t107 -75.5q42 0 87 32z" />
    <glyph glyph-name="afii10036" unicode="&#x422;" horiz-adv-x="370" 
d="M360 700v-65h-140v-635h-70v635h-140v65h350z" />
    <glyph glyph-name="afii10037" unicode="&#x423;" horiz-adv-x="369" 
d="M81 700l107 -351l14 -90h4l13 92l82 349h71l-118 -455q-39 -154 -62 -202t-68 -48q-39 0 -64 21l20 62q18 -16 42 -16q31 0 49 118l-170 520h80z" />
    <glyph glyph-name="afii10038" unicode="&#x424;" horiz-adv-x="520" 
d="M226 -20v98q-20 -5 -58 -5q-145 0 -145 277q0 142 41.5 215t116.5 73q32 0 45 -4v86h69v-89q17 7 58 7q145 0 145 -278q0 -144 -42.5 -215.5t-112.5 -71.5q-33 0 -48 7v-100h-69zM338 573q-33 0 -46 -7v-425q8 -3 38 -3q98 0 98 222q0 213 -90 213zM185 138q32 0 43 6
v425q-13 4 -39 4q-96 0 -96 -223q0 -212 92 -212z" />
    <glyph glyph-name="afii10039" unicode="&#x425;" horiz-adv-x="412" 
d="M14 0l147 356l-134 344h82l85 -237l16 -60l16 60l89 237h76l-139 -337l145 -363h-80l-94 251l-18 63l-18 -63l-96 -251h-77z" />
    <glyph glyph-name="afii10040" unicode="&#x426;" horiz-adv-x="451" 
d="M435 65v-194h-49l-10 129h-326v700h70v-635h185v635h70v-635h60z" />
    <glyph glyph-name="afii10041" unicode="&#x427;" horiz-adv-x="399" 
d="M41 700h70v-253q0 -71 18.5 -97.5t57.5 -26.5q26 0 51.5 13t41.5 34v330h70v-700h-70v298q-42 -40 -107 -40q-60 0 -96 36t-36 134v272z" />
    <glyph glyph-name="afii10042" unicode="&#x428;" horiz-adv-x="573" 
d="M524 0h-474v700h70v-635h132v635h70v-635h132v635h70v-700z" />
    <glyph glyph-name="afii10043" unicode="&#x429;" horiz-adv-x="600" 
d="M525 0h-475v700h70v-635h131v635h70v-635h132v635h70v-635h61v-194h-49z" />
    <glyph glyph-name="afii10044" unicode="&#x42a;" horiz-adv-x="426" 
d="M104 5v630h-105v65h175v-272q29 9 68 9q75 0 119 -46.5t44 -163.5q0 -123 -46 -179t-138 -56q-70 0 -117 13zM228 57q105 0 105 163q0 85 -27.5 118.5t-77.5 33.5q-40 0 -54 -9v-300q18 -6 54 -6z" />
    <glyph glyph-name="afii10045" unicode="&#x42b;" horiz-adv-x="516" 
d="M396 0v700h70v-700h-70zM50 5v695h70v-272q27 9 58 9q74 0 116.5 -45.5t42.5 -164.5q0 -122 -43.5 -178.5t-134.5 -56.5q-62 0 -109 13zM165 57q100 0 100 163q0 86 -25 119t-75 33q-31 0 -45 -9v-299q14 -7 45 -7z" />
    <glyph glyph-name="afii10046" unicode="&#x42c;" horiz-adv-x="372" 
d="M50 5v695h70v-272q29 9 67 9q164 0 164 -210q0 -121 -45.5 -178t-138.5 -57q-68 0 -117 13zM173 57q106 0 106 163q0 83 -27.5 117.5t-78.5 34.5q-35 0 -53 -9v-300q18 -6 53 -6z" />
    <glyph glyph-name="afii10047" unicode="&#x42d;" horiz-adv-x="380" 
d="M94 326v62h181q-5 259 -136 259q-53 0 -97 -32l-23 59q54 38 126 38q99 0 150.5 -84.5t51.5 -274.5q0 -365 -211 -365q-68 0 -113 25l19 65q42 -25 97 -25q62 0 98.5 66.5t38.5 206.5h-182z" />
    <glyph glyph-name="afii10048" unicode="&#x42e;" horiz-adv-x="590" 
d="M120 700v-309h73q3 160 46.5 240.5t135.5 80.5q52 0 88 -24.5t56 -73.5t29 -113t9 -151q0 -182 -43 -272t-140 -90q-96 0 -138 86.5t-44 251.5h-72v-326h-70v700h70zM260 350q0 -297 115 -297q60 0 85 71t25 226q0 137 -24 217t-86 80q-60 0 -87.5 -72.5t-27.5 -224.5z
" />
    <glyph glyph-name="afii10049" unicode="&#x42f;" horiz-adv-x="380" 
d="M330 693v-693h-70v309l-60 -21l-107 -288h-80l99 255l39 42q-105 32 -105 200q0 211 179 211q63 0 105 -15zM218 643q-100 0 -100 -146q0 -147 102 -147h40v287q-12 6 -42 6z" />
    <glyph glyph-name="afii10065" unicode="&#x430;" horiz-adv-x="327" 
d="M66 421l-22 53q49 34 130 34q63 0 86.5 -39t23.5 -113q0 -41 -2 -117.5t-2 -108.5q0 -84 10 -132h-51l-15 50h-3q-29 -54 -97 -54q-46 0 -74 37.5t-28 102.5q0 152 163 152q21 0 32 -1q2 40 2 54q0 58 -14 82.5t-48 24.5q-53 0 -91 -25zM144 56q52 0 74 51v123
q-11 2 -32 2q-96 0 -96 -90q0 -42 14.5 -64t39.5 -22z" />
    <glyph glyph-name="afii10066" unicode="&#x431;" horiz-adv-x="354" 
d="M87 418q20 44 46 62.5t65 18.5q128 0 128 -238q0 -273 -148 -273q-77 0 -113.5 72t-36.5 243q0 100 9.5 170.5t23.5 110t39.5 63t48 31t59.5 12.5q72 10 90 36l3 -69q-13 -16 -33.5 -22.5t-64.5 -11.5q-56 -6 -83.5 -50.5t-35.5 -154.5h3zM96 249q0 -90 20.5 -144.5
t60.5 -54.5q81 0 81 204q0 183 -74 183q-43 0 -65.5 -49.5t-22.5 -138.5z" />
    <glyph glyph-name="afii10067" unicode="&#x432;" horiz-adv-x="330" 
d="M45 1v498q80 8 118 8q66 0 96 -30t30 -93q0 -88 -61 -118v-4q40 -11 57 -40.5t17 -80.5q0 -77 -37.5 -112.5t-114.5 -35.5q-45 0 -105 8zM112 231v-172q20 -4 46 -4q76 0 76 92q0 84 -71 84h-51zM112 286h55q22 0 38.5 24t16.5 57q0 41 -13.5 59.5t-47.5 18.5
q-10 0 -49 -3v-156z" />
    <glyph glyph-name="afii10068" unicode="&#x433;" horiz-adv-x="241" 
d="M244 500v-62h-132v-438h-67v500h199z" />
    <glyph glyph-name="afii10069" unicode="&#x434;" horiz-adv-x="363" 
d="M352 62v-189h-48l-9 127h-237l-10 -127h-47v189h38q10 19 20 62t20.5 145t10.5 231h213v-438h49zM107 62h129v376h-84q-10 -270 -45 -376z" />
    <glyph glyph-name="afii10070" unicode="&#x435;" horiz-adv-x="334" 
d="M272 80l24 -51q-43 -41 -115 -41q-78 0 -115.5 69t-37.5 193q0 127 39 194.5t111 67.5q128 0 128 -183q0 -48 -5 -87h-205q2 -192 101 -192q47 0 75 30zM178 450q-73 0 -80 -151h145v18q0 65 -17.5 99t-47.5 34z" />
    <glyph glyph-name="afii10072" unicode="&#x436;" horiz-adv-x="446" 
d="M188 235l-30 -14l-86 -221h-72l96 229l22 30l-33 38l-78 203h69l79 -216h33v216h65v-226l29 14l80 212h68l-82 -203l-25 -32l33 -40l90 -225h-75l-86 225h-32v-225h-65v235z" />
    <glyph glyph-name="afii10073" unicode="&#x437;" horiz-adv-x="284" 
d="M109 226h-35v59h43q23 0 41 25t18 56q0 77 -64 77q-45 0 -75 -22l-19 53q42 31 110 31q55 0 85 -30.5t30 -90.5q0 -86 -59 -116v-4q72 -22 72 -124q0 -66 -36.5 -106.5t-107.5 -40.5q-59 0 -96 23l17 59q30 -20 76 -20q79 0 79 91q0 80 -79 80z" />
    <glyph glyph-name="afii10074" unicode="&#x438;" horiz-adv-x="358" 
d="M246 0v281l9 88h-4l-30 -99l-128 -270h-48v500h67v-290l-9 -85h4l29 97l131 278h46v-500h-67z" />
    <glyph glyph-name="afii10075" unicode="&#x439;" horiz-adv-x="358" 
d="M246 0v281l9 88h-4l-30 -99l-128 -270h-48v500h67v-290l-9 -85h4l29 97l131 278h46v-500h-67zM74 686l55 15q3 -42 18.5 -63.5t36.5 -21.5q20 0 35.5 22.5t19.5 61.5l50 -13q-6 -59 -36 -92t-71 -33q-42 0 -72.5 30t-35.5 94z" />
    <glyph glyph-name="afii10076" unicode="&#x43a;" horiz-adv-x="318" 
d="M238 0l-97 225h-29v-225h-67v500h67v-226l27 14l93 212h70l-93 -201l-29 -34l35 -39l100 -226h-77z" />
    <glyph glyph-name="afii10077" unicode="&#x43b;" horiz-adv-x="335" 
d="M223 0v438h-82q-5 -234 -24.5 -338t-77.5 -104q-31 0 -45 9l9 60q10 -2 14 -2q21 0 33 31t20 127.5t11 278.5h209v-500h-67z" />
    <glyph glyph-name="afii10078" unicode="&#x43c;" horiz-adv-x="429" 
d="M319 0v297l6 95h-5l-23 -91l-73 -188h-24l-76 188l-23 91h-5l8 -94v-298h-59v500h67l85 -211l18 -71h2l19 73l79 209h69v-500h-65z" />
    <glyph glyph-name="afii10079" unicode="&#x43d;" horiz-adv-x="355" 
d="M243 0v225h-131v-225h-67v500h67v-213h131v213h67v-500h-67z" />
    <glyph glyph-name="afii10080" unicode="&#x43e;" horiz-adv-x="353" 
d="M28 250q0 262 149 262q77 0 112.5 -61.5t35.5 -200.5t-37.5 -200.5t-110.5 -61.5q-77 0 -113 61.5t-36 200.5zM96 250q0 -200 81 -200q41 0 60.5 47t19.5 153q0 200 -80 200q-81 0 -81 -200z" />
    <glyph glyph-name="afii10081" unicode="&#x43f;" horiz-adv-x="351" 
d="M239 0v438h-127v-438h-67v500h261v-500h-67z" />
    <glyph glyph-name="afii10082" unicode="&#x440;" horiz-adv-x="356" 
d="M45 -200v700h48l10 -49h2q33 61 96 61q65 0 96 -60t31 -192q0 -127 -40 -199.5t-110 -72.5q-40 0 -66 15v-203h-67zM184 450q-54 0 -72 -75v-301q22 -24 59 -24q42 0 65.5 55.5t23.5 155.5q0 189 -76 189z" />
    <glyph glyph-name="afii10083" unicode="&#x441;" horiz-adv-x="285" 
d="M255 73l18 -53q-39 -32 -100 -32q-145 0 -145 262q0 127 37.5 194.5t107.5 67.5q61 0 95 -23l-18 -56q-31 17 -68 17q-86 0 -86 -200t94 -200q38 0 65 23z" />
    <glyph glyph-name="afii10084" unicode="&#x442;" horiz-adv-x="265" 
d="M264 500v-62h-98v-438h-67v438h-98v62h263z" />
    <glyph glyph-name="afii10085" unicode="&#x443;" horiz-adv-x="309" 
d="M78 500l74 -324l17 -96h3l11 97l60 323h66l-97 -449l-16 -73l-16 -60.5t-17.5 -52.5t-19.5 -37t-24 -25.5t-28 -7.5q-27 0 -42 9l11 65q10 -2 13 -2q45 0 63 133l-134 500h76z" />
    <glyph glyph-name="afii10086" unicode="&#x444;" horiz-adv-x="452" 
d="M193 -200v196q-15 -8 -45 -8q-124 0 -124 262q0 258 138 258q19 0 31 -4v196h66v-197q20 5 38 5q68 0 99.5 -55.5t31.5 -192.5q0 -272 -133 -272q-23 0 -36 7v-195h-66zM283 449q-16 0 -26 -5v-394q8 -3 30 -3q74 0 74 213q0 100 -17.5 144.5t-60.5 44.5zM165 47
q16 0 30 5v393q-13 4 -28 4q-76 0 -76 -199q0 -203 74 -203z" />
    <glyph glyph-name="afii10087" unicode="&#x445;" horiz-adv-x="336" 
d="M13 0l113 256l-105 244h77l58 -147l14 -55l16 55l59 147h71l-106 -240l113 -260h-72l-69 161l-16 59l-16 -59l-67 -161h-70z" />
    <glyph glyph-name="afii10088" unicode="&#x446;" horiz-adv-x="363" 
d="M351 62v-189h-46l-11 127h-249v500h67v-438h125v438h67v-438h47z" />
    <glyph glyph-name="afii10089" unicode="&#x447;" horiz-adv-x="325" 
d="M26 500h67v-154q0 -53 10 -77.5t41 -24.5q45 0 69 26v230h67v-500h-67v209q-32 -27 -84 -27q-50 0 -76.5 31.5t-26.5 105.5v181z" />
    <glyph glyph-name="afii10090" unicode="&#x448;" horiz-adv-x="489" 
d="M444 0h-399v500h67v-438h99v438h67v-438h99v438h67v-500z" />
    <glyph glyph-name="afii10091" unicode="&#x449;" horiz-adv-x="504" 
d="M492 62v-192h-47l-10 130h-390v500h67v-438h99v438h67v-438h99v438h67v-438h48z" />
    <glyph glyph-name="afii10092" unicode="&#x44a;" horiz-adv-x="339" 
d="M139 250v-188q23 -6 42 -6q73 0 73 101q0 99 -72 99q-26 0 -43 -6zM139 500v-191q29 7 58 7q65 0 95 -40.5t30 -108.5q0 -91 -36.5 -132t-117.5 -41q-51 0 -96 6v438h-73v62h140z" />
    <glyph glyph-name="afii10093" unicode="&#x44b;" horiz-adv-x="447" 
d="M112 250v-188q22 -6 42 -6q36 0 51.5 24.5t15.5 76.5q0 99 -65 99q-27 0 -44 -6zM112 500v-191q29 7 60 7q117 0 117 -149q0 -91 -34 -132t-112 -41q-53 0 -98 6v500h67zM335 0v500h67v-500h-67z" />
    <glyph glyph-name="afii10094" unicode="&#x44c;" horiz-adv-x="312" 
d="M112 249v-187q23 -6 43 -6q72 0 72 101q0 99 -71 99q-28 0 -44 -7zM112 500v-191q29 7 60 7q64 0 93.5 -40.5t29.5 -108.5q0 -91 -35.5 -132t-114.5 -41q-55 0 -100 6v500h67z" />
    <glyph glyph-name="afii10095" unicode="&#x44d;" horiz-adv-x="302" 
d="M74 222v60h132q-3 168 -88 168q-45 0 -76 -24l-23 54q42 32 109 32q73 0 109 -63.5t36 -198.5q0 -262 -156 -262q-58 0 -98 20l18 61q32 -19 74 -19q92 0 95 172h-132z" />
    <glyph glyph-name="afii10096" unicode="&#x44e;" horiz-adv-x="478" 
d="M310 -10q-70 0 -102.5 58t-36.5 178h-59v-226h-67v500h67v-212h60q6 114 39.5 168t100.5 54q72 0 105 -64.5t33 -195.5q0 -136 -34.5 -198t-105.5 -62zM236 250q0 -198 75 -198q37 0 54 45t17 153q0 198 -71 198q-75 0 -75 -198z" />
    <glyph glyph-name="afii10097" unicode="&#x44f;" horiz-adv-x="322" 
d="M213 0v207l-48 -12l-78 -195h-76l72 172l28 36q-35 9 -56.5 43.5t-21.5 90.5q0 88 38.5 128.5t113.5 40.5q49 0 95 -13v-498h-67zM183 250l30 2v190q-12 7 -36 7q-76 0 -76 -102q0 -46 22.5 -71.5t59.5 -25.5z" />
    <glyph glyph-name="afii10071" unicode="&#x451;" horiz-adv-x="334" 
d="M272 80l24 -51q-43 -41 -115 -41q-78 0 -115.5 69t-37.5 193q0 127 39 194.5t111 67.5q128 0 128 -183q0 -48 -5 -87h-205q2 -192 101 -192q47 0 75 30zM178 450q-73 0 -80 -151h145v18q0 65 -17.5 99t-47.5 34zM68 633q0 22 11 35t28 13t27.5 -13t10.5 -35
q0 -21 -10.5 -33.5t-27.5 -12.5t-28 12.5t-11 33.5zM202 633q0 22 10.5 35t27.5 13t27.5 -13t10.5 -35q0 -21 -10.5 -33.5t-27.5 -12.5t-27.5 12.5t-10.5 33.5z" />
    <glyph glyph-name="afii10099" unicode="&#x452;" horiz-adv-x="364" 
d="M-1 443v57h52v200h67v-200h104v-57h-104v-134h2q36 51 100 51q54 0 79 -37t25 -124v-229q0 -91 -24 -133.5t-75 -42.5q-7 0 -23 2v63q35 0 45 31t10 110v164q0 78 -12.5 106t-49.5 28q-26 0 -46.5 -17t-30.5 -45v-236h-67v443h-52z" />
    <glyph glyph-name="afii10100" unicode="&#x453;" horiz-adv-x="241" 
d="M244 500v-62h-132v-438h-67v500h199zM111 571l37 149h71v-21l-69 -128h-39z" />
    <glyph glyph-name="afii10101" unicode="&#x454;" horiz-adv-x="304" 
d="M269 74l17 -56q-34 -28 -101 -28q-79 0 -118 68.5t-39 191.5q0 125 43 192.5t120 67.5q56 0 90 -19l-18 -60q-26 17 -70 17q-42 0 -67.5 -42.5t-29.5 -122.5h144v-59h-145q4 -76 29.5 -124t74.5 -48q45 0 70 22z" />
    <glyph glyph-name="afii10102" unicode="&#x455;" horiz-adv-x="276" 
d="M186 113q0 35 -16 62.5t-38 47.5l-46 41q-23 21 -39 53t-16 74q0 58 30.5 89.5t84.5 31.5q62 0 100 -25l-18 -57q-35 20 -73 20q-57 0 -57 -58q0 -27 16 -50.5t38 -43.5l46 -42q23 -23 39 -59.5t16 -81.5q0 -53 -33.5 -90t-93.5 -37q-62 0 -104 26l19 61q41 -25 81 -25
q28 0 46 16.5t18 46.5z" />
    <glyph glyph-name="afii10103" unicode="&#x456;" horiz-adv-x="178" 
d="M55 0v500h67v-500h-67zM44 652q0 25 12 38.5t32 13.5t33 -13.5t13 -38.5q0 -24 -12.5 -36.5t-33.5 -12.5q-44 0 -44 49z" />
    <glyph glyph-name="afii10104" unicode="&#x457;" horiz-adv-x="195" 
d="M17 652q0 47 36 47t36 -47q0 -45 -36 -45t-36 45zM106 652q0 47 36 47t36 -47q0 -45 -36 -45t-36 45zM59 0v500h67v-500h-67z" />
    <glyph glyph-name="afii10105" unicode="&#x458;" horiz-adv-x="177" 
d="M56 2v498h67v-527q0 -185 -100 -185q-7 0 -23 2v63q35 0 45.5 34t10.5 115zM44 652q0 25 12 38.5t32 13.5t33 -13.5t13 -38.5q0 -24 -12.5 -36.5t-33.5 -12.5q-44 0 -44 49z" />
    <glyph glyph-name="afii10106" unicode="&#x459;" horiz-adv-x="490" 
d="M290 500v-191q29 7 60 7q64 0 93.5 -40.5t29.5 -108.5q0 -91 -35.5 -132t-114.5 -41q-55 0 -100 6v438h-82q-5 -234 -24.5 -338t-77.5 -104q-31 0 -45 9l9 60q10 -2 14 -2q21 0 33 31t20 127.5t11 278.5h209zM290 249v-187q22 -6 43 -6q72 0 72 101q0 99 -71 99
q-28 0 -44 -7z" />
    <glyph glyph-name="afii10107" unicode="&#x45a;" horiz-adv-x="510" 
d="M309 243v-183q21 -4 44 -4q72 0 72 99q0 51 -17 72.5t-54 21.5q-27 0 -45 -6zM309 500v-198q25 6 60 6q124 0 124 -141q0 -91 -36 -132t-115 -41q-55 0 -100 6v230h-130v-230h-67v500h67v-208h130v208h67z" />
    <glyph glyph-name="afii10108" unicode="&#x45b;" horiz-adv-x="364" 
d="M-1 443v57h52v200h67v-200h104v-57h-104v-135h2q36 52 100 52q54 0 79 -39.5t25 -134.5v-186h-67v173q0 68 -12.5 96.5t-49.5 28.5q-26 0 -47 -18t-30 -48v-232h-67v443h-52z" />
    <glyph glyph-name="afii10109" unicode="&#x45c;" horiz-adv-x="318" 
d="M238 0l-97 225h-29v-225h-67v500h67v-226l27 14l93 212h70l-93 -201l-29 -34l35 -39l100 -226h-77zM129 571l37 149h71v-21l-69 -128h-39z" />
    <glyph glyph-name="afii10110" unicode="&#x45e;" horiz-adv-x="309" 
d="M78 500l74 -324l17 -96h3l11 97l60 323h66l-97 -449l-16 -73l-16 -60.5t-17.5 -52.5t-19.5 -37t-24 -25.5t-28 -7.5q-27 0 -42 9l11 65q10 -2 13 -2q45 0 63 133l-134 500h76zM53 686l55 15q3 -42 18.5 -63.5t36.5 -21.5q20 0 35.5 22.5t19.5 61.5l50 -13q-6 -59 -36 -92
t-71 -33q-42 0 -72.5 30t-35.5 94z" />
    <glyph glyph-name="afii10193" unicode="&#x45f;" horiz-adv-x="350" 
d="M141 0h-96v500h67v-438h126v438h67v-500h-97l-10 -179h-44z" />
    <glyph glyph-name="afii10146" unicode="&#x462;" horiz-adv-x="417" 
d="M0 554v62h96v105h70v-105h134v-62h-134v-127q24 8 67 8q76 0 120 -47t44 -162q0 -120 -45.5 -177t-138.5 -57q-72 0 -117 13v549h-96zM220 57q105 0 105 163q0 85 -27.5 117.5t-78.5 32.5q-35 0 -53 -9v-298q18 -6 54 -6z" />
    <glyph glyph-name="afii10194" unicode="&#x463;" horiz-adv-x="339" 
d="M-1 440v60h73v200h67v-200h105v-60h-105v-131q29 7 59 7q64 0 94 -40.5t30 -108.5q0 -91 -36.5 -132t-116.5 -41q-52 0 -97 6v440h-73zM139 250v-190q20 -4 42 -4q36 0 54.5 27.5t18.5 74.5q0 42 -19 70t-53 28q-26 0 -43 -6z" />
    <glyph glyph-name="afii10147" unicode="&#x472;" horiz-adv-x="447" 
d="M33 350q0 182 45.5 272t144.5 90q104 0 147.5 -92t43.5 -270q0 -182 -46 -272t-145 -90q-103 0 -146.5 92t-43.5 270zM223 53q113 0 119 270h-237q2 -120 31 -195t87 -75zM223 647q-110 0 -118 -259h236q-3 116 -31.5 187.5t-86.5 71.5z" />
    <glyph glyph-name="afii10195" unicode="&#x473;" horiz-adv-x="353" 
d="M28 250q0 262 149 262q148 0 148 -262t-148 -262q-149 0 -149 262zM96 278h161q-4 172 -80 172q-75 0 -81 -172zM257 220h-161q2 -85 24.5 -127.5t56.5 -42.5q77 0 80 170z" />
    <glyph glyph-name="afii10148" unicode="&#x474;" horiz-adv-x="404" 
d="M329 519l-115 -530h-42l-175 711h79l104 -477l15 -107h1l11 108l48 251q20 102 36.5 151t35 65t51.5 16q37 0 64 -18l-19 -63q-21 14 -38 14q-30 0 -56 -121z" />
    <glyph glyph-name="afii10196" unicode="&#x475;" horiz-adv-x="337" 
d="M275 356l-96 -367h-34l-143 511h76l72 -285l15 -103h2l12 105l19 86q12 55 21.5 88t22 62t28.5 41.5t37 12.5q30 0 45 -9l-10 -63q-12 5 -19 5q-26 0 -48 -84z" />
    <glyph glyph-name="uni048A" unicode="&#x48a;" horiz-adv-x="461" 
d="M325 0v447l7 100h-4l-28 -104l-200 -443h-50v700h70v-453l-8 -100h3l29 104l202 449h49v-638h67v-22l-62 -170h-47l30 130h-58zM106 855l66 15q5 -82 55 -82t55 81l59 -13q-13 -121 -115 -121q-51 0 -83.5 29.5t-36.5 90.5z" />
    <glyph glyph-name="uni048B" unicode="&#x48b;" horiz-adv-x="376" 
d="M246 0v281l9 88h-4l-30 -99l-128 -270h-48v500h67v-290l-9 -85h4l29 97l131 278h46v-438h64v-22l-62 -170h-47l30 130h-52zM76 686l55 15q3 -42 18.5 -63.5t36.5 -21.5q20 0 35.5 22.5t19.5 61.5l50 -13q-6 -59 -36 -92t-71 -33q-42 0 -72.5 30t-35.5 94z" />
    <glyph glyph-name="uni048C" unicode="&#x48c;" horiz-adv-x="417" 
d="M0 554v62h96v105h70v-105h134v-62h-134v-127q24 8 67 8q76 0 120 -47t44 -162q0 -120 -45.5 -177t-138.5 -57q-72 0 -117 13v549h-96zM220 57q105 0 105 163q0 85 -27.5 117.5t-78.5 32.5q-35 0 -53 -9v-298q18 -6 54 -6z" />
    <glyph glyph-name="uni048D" unicode="&#x48d;" horiz-adv-x="339" 
d="M-1 440v60h73v200h67v-200h105v-60h-105v-131q29 7 59 7q64 0 94 -40.5t30 -108.5q0 -91 -36.5 -132t-116.5 -41q-52 0 -97 6v440h-73zM139 250v-190q20 -4 42 -4q36 0 54.5 27.5t18.5 74.5q0 42 -19 70t-53 28q-26 0 -43 -6z" />
    <glyph glyph-name="uni048E" unicode="&#x48e;" horiz-adv-x="372" 
d="M50 0v692q48 16 117 16q184 0 184 -215q0 -129 -66 -190l51 -89l-47 -32l-53 91q-28 -11 -64 -11q-40 0 -52 4v-266h-70zM156 433l33 29l56 -101q34 42 34 133q0 149 -107 149q-37 0 -52 -5v-306q9 -5 45 -5q28 0 46 9z" />
    <glyph glyph-name="uni048F" unicode="&#x48f;" horiz-adv-x="356" 
d="M45 -200v700h48l10 -49h2q33 61 96 61q65 0 96 -60t31 -192q0 -152 -57 -225l39 -63l-44 -33l-38 60q-24 -11 -50 -11q-40 0 -66 15v-203h-67zM156 133l30 25l42 -69q32 58 32 172q0 189 -76 189q-54 0 -72 -75v-301q22 -24 59 -24q18 0 30 8z" />
    <glyph glyph-name="afii10050" unicode="&#x490;" horiz-adv-x="295" 
d="M305 635h-185v-635h-70v700h197l11 134h47v-199z" />
    <glyph glyph-name="afii10098" unicode="&#x491;" horiz-adv-x="241" 
d="M244 634v-196h-132v-438h-67v500h141l11 134h47z" />
    <glyph glyph-name="uni0492" unicode="&#x492;" horiz-adv-x="322" 
d="M326 700v-65h-185v-254h138v-59h-138v-322h-70v322h-66v59h66v319h255z" />
    <glyph glyph-name="uni0493" unicode="&#x493;" horiz-adv-x="248" 
d="M249 500v-62h-132v-159h115v-57h-115v-222h-67v222h-50v57h50v221h199z" />
    <glyph glyph-name="uni0494" unicode="&#x494;" horiz-adv-x="382" 
d="M120 290v-290h-70v700h255v-65h-185v-280q35 21 90 21q66 0 103.5 -52t37.5 -184q0 -139 -37.5 -203.5t-118.5 -64.5q-26 0 -44 3v65q12 -3 46 -3q82 0 82 195q0 98 -22.5 138.5t-66.5 40.5q-37 0 -70 -21z" />
    <glyph glyph-name="uni0495" unicode="&#x495;" horiz-adv-x="351" 
d="M112 194v-194h-67v500h199v-62h-132v-186q46 21 82 21q59 0 93 -49t34 -179q0 -132 -34 -192.5t-110 -60.5q-36 0 -45 3v62q9 -3 43 -3q78 0 78 183q0 99 -20.5 136.5t-60.5 37.5q-29 0 -60 -17z" />
    <glyph glyph-name="uni0496" unicode="&#x496;" horiz-adv-x="572" 
d="M234 386v314h67v-326l26 14l117 312h77l-121 -304l-29 -32l35 -40l108 -259h53v-194h-49l-10 129h-51l-129 325h-27v-325h-67v337l-26 -14l-129 -323h-81l135 314l33 37l-32 35l-127 314h82l117 -314h28z" />
    <glyph glyph-name="uni0497" unicode="&#x497;" horiz-adv-x="473" 
d="M371 0l-86 225h-32v-225h-65v235l-30 -14l-86 -221h-72l96 229l22 30l-33 38l-78 203h69l79 -216h33v216h65v-226l29 14l80 212h68l-82 -203l-25 -32l33 -40l65 -163h50v-189h-46l-11 127h-43z" />
    <glyph glyph-name="uni0498" unicode="&#x498;" horiz-adv-x="354" 
d="M118 335h-31v62h19q42 0 55 5q32 12 53.5 45t21.5 78q0 122 -92 122q-51 0 -91 -25l-19 57q49 33 126 33q148 0 148 -172q0 -53 -21 -97t-62 -65v-5q45 -12 71 -55t26 -114q0 -98 -39.5 -151t-105.5 -63l-9 -169h-44l-12 167q-57 4 -90 26l19 65q41 -26 104 -26
q48 0 76.5 39.5t28.5 110.5q0 123 -103 131q-11 1 -29 1z" />
    <glyph glyph-name="uni0499" unicode="&#x499;" horiz-adv-x="284" 
d="M109 226h-35v59h43q23 0 41 25t18 56q0 77 -64 77q-45 0 -75 -22l-19 53q42 31 110 31q55 0 85 -30.5t30 -90.5q0 -86 -59 -116v-4q72 -22 72 -124q0 -55 -26 -94t-77 -50l-10 -175h-44l-13 172q-42 5 -70 23l17 59q30 -20 76 -20q79 0 79 91q0 80 -79 80z" />
    <glyph glyph-name="uni049A" unicode="&#x49a;" horiz-adv-x="423" 
d="M302 0l-155 324h-27v-324h-70v700h70v-326l26 14l142 312h80l-145 -302l-31 -32l35 -40l128 -261h62v-194h-49l-10 129h-56z" />
    <glyph glyph-name="uni049B" unicode="&#x49b;" horiz-adv-x="338" 
d="M238 0l-97 225h-29v-225h-67v500h67v-226l27 14l93 212h70l-93 -201l-29 -34l35 -39l72 -164h46v-189h-46l-11 127h-38z" />
    <glyph glyph-name="uni049C" unicode="&#x49c;" horiz-adv-x="449" 
d="M143 195v129h-23v-324h-70v700h70v-326l23 3v128h51v-120l14 3l126 312h77l-128 -301l-31 -33l35 -40l144 -326h-83l-137 324h-17v-129h-51z" />
    <glyph glyph-name="uni049D" unicode="&#x49d;" horiz-adv-x="354" 
d="M131 98v127h-19v-225h-67v500h67v-226l19 3v125h44v-117l16 3l75 212h70l-75 -201l-31 -34l35 -39l83 -226h-75l-79 225h-19v-127h-44z" />
    <glyph glyph-name="uni049E" unicode="&#x49e;" horiz-adv-x="446" 
d="M0 570v62h89v68h70v-68h73v-60h-73v-198l30 14l139 312h79l-142 -301l-32 -33l35 -40l160 -326h-86l-153 324h-30v-324h-70v570h-89z" />
    <glyph glyph-name="uni049F" unicode="&#x49f;" horiz-adv-x="319" 
d="M-6 556v57h52v87h67v-87h104v-57h-104v-282l26 14l89 212h75l-92 -203l-29 -32l34 -38l100 -227h-77l-97 225h-29v-225h-67v556h-52z" />
    <glyph glyph-name="uni04A0" unicode="&#x4a0;" horiz-adv-x="462" 
d="M105 0v635h-105v65h175v-326l26 14l142 312h80l-145 -302l-30 -32l34 -40l162 -326h-87l-154 324h-28v-324h-70z" />
    <glyph glyph-name="uni04A1" unicode="&#x4a1;" horiz-adv-x="344" 
d="M139 500v-226l27 13l92 213h70l-92 -201l-30 -33l36 -40l100 -226h-77l-96 225h-30v-225h-67v438h-73v62h140z" />
    <glyph glyph-name="uni04A2" unicode="&#x4a2;" horiz-adv-x="466" 
d="M317 0v326h-197v-326h-70v700h70v-309h197v309h70v-635h62v-194h-49l-10 129h-73z" />
    <glyph glyph-name="uni04A3" unicode="&#x4a3;" horiz-adv-x="368" 
d="M243 0v225h-131v-225h-67v500h67v-213h131v213h67v-438h51v-189h-46l-11 127h-61z" />
    <glyph glyph-name="uni04A4" unicode="&#x4a4;" horiz-adv-x="563" 
d="M573 700v-65h-186v-635h-70v326h-197v-326h-70v700h70v-309h197v309h256z" />
    <glyph glyph-name="uni04A5" unicode="&#x4a5;" horiz-adv-x="440" 
d="M443 500v-62h-133v-438h-67v225h-131v-225h-67v500h67v-213h131v213h200z" />
    <glyph glyph-name="uni04A6" unicode="&#x4a6;" horiz-adv-x="642" 
d="M379 290v-290h-70v635h-189v-635h-70v700h329v-345q42 21 90 21q66 0 103.5 -52.5t37.5 -184.5q0 -138 -36.5 -202.5t-118.5 -64.5q-35 0 -44 3v65q9 -3 46 -3q81 0 81 194q0 98 -22 139t-66 41q-41 0 -71 -21z" />
    <glyph glyph-name="uni04A7" unicode="&#x4a7;" horiz-adv-x="543" 
d="M306 194v-194h-67v438h-127v-438h-67v500h261v-244q47 17 82 17q127 0 127 -227q0 -132 -34 -193t-111 -61q-34 0 -44 3v62q10 -3 44 -3q77 0 77 183q0 96 -20.5 135t-59.5 39q-30 0 -61 -17z" />
    <glyph glyph-name="uni04A8" unicode="&#x4a8;" horiz-adv-x="549" 
d="M233 712v-65q-128 0 -128 -296q0 -132 38.5 -215t103.5 -83q23 0 33 6q-38 40 -60.5 123t-22.5 180q0 157 42 237.5t117 80.5q152 0 152 -282q0 -118 -29 -210t-72 -132q8 -3 21 -3q40 0 68 28l21 -59q-32 -34 -91 -34q-53 0 -87 30q-39 -30 -93 -30q-104 0 -158.5 94.5
t-54.5 267.5q0 362 200 362zM269 354q0 -81 20.5 -158t59.5 -113q36 33 61.5 114.5t25.5 194.5q0 223 -80 223q-40 0 -63.5 -65.5t-23.5 -195.5z" />
    <glyph glyph-name="uni04A9" unicode="&#x4a9;" horiz-adv-x="449" 
d="M179 512v-62q-83 -2 -83 -200q0 -91 25.5 -145.5t72.5 -54.5q23 0 30 11q-22 23 -37 78.5t-15 123.5q0 237 125 237q62 0 91 -59t29 -156q0 -76 -22 -142t-51 -88q9 -7 21 -7q29 0 47 25l22 -50q-25 -35 -78 -35q-49 0 -73 34q-34 -34 -95 -34q-78 0 -119 67t-41 195
q0 262 151 262zM240 256q0 -57 13 -108.5t35 -76.5q26 22 43.5 81.5t17.5 132.5q0 67 -14 110t-39 43q-33 0 -44.5 -45t-11.5 -137z" />
    <glyph glyph-name="uni04AA" unicode="&#x4aa;" horiz-adv-x="372" 
d="M336 85l16 -60q-32 -31 -88 -37l-9 -167h-44l-13 168q-165 29 -165 361q0 191 55 276.5t146 85.5q66 0 112 -24l-17 -64q-37 23 -88 23q-62 0 -99 -71t-37 -226q0 -146 37 -221.5t107 -75.5q42 0 87 32z" />
    <glyph glyph-name="uni04AB" unicode="&#x4ab;" horiz-adv-x="285" 
d="M255 73l18 -53q-25 -21 -65 -29l-9 -170h-44l-14 170q-113 24 -113 259q0 127 37.5 194.5t107.5 67.5q61 0 95 -23l-18 -56q-31 17 -68 17q-86 0 -86 -200t94 -200q38 0 65 23z" />
    <glyph glyph-name="uni04AC" unicode="&#x4ac;" horiz-adv-x="370" 
d="M150 0v635h-140v65h350v-65h-140v-570h63v-194h-49l-10 129h-74z" />
    <glyph glyph-name="uni04AD" unicode="&#x4ad;" horiz-adv-x="265" 
d="M99 0v438h-98v62h263v-62h-98v-376h48v-189h-46l-11 127h-58z" />
    <glyph glyph-name="uni04AE" unicode="&#x4ae;" horiz-adv-x="377" 
d="M154 0v278l-151 422h80l98 -304l11 -61h2l10 63l96 302h74l-150 -421v-279h-70z" />
    <glyph glyph-name="uni04AF" unicode="&#x4af;" horiz-adv-x="320" 
d="M130 0l-128 500h77l72 -316l15 -114h2l14 116l64 314h72l-121 -500v-200h-67v200z" />
    <glyph glyph-name="uni04B0" unicode="&#x4b0;" horiz-adv-x="377" 
d="M54 228v56h98l-149 416h80l98 -304l11 -61h2l10 63l96 302h74l-148 -416h98v-56h-100v-228h-70v228h-100z" />
    <glyph glyph-name="uni04B1" unicode="&#x4b1;" horiz-adv-x="320" 
d="M51 -57v57h79l-128 500h77l72 -316l15 -114h2l14 116l64 314h72l-121 -500h77v-57h-77v-143h-67v143h-79z" />
    <glyph glyph-name="uni04B2" unicode="&#x4b2;" horiz-adv-x="441" 
d="M14 0l147 356l-134 344h82l85 -237l16 -60l16 60l89 237h76l-139 -337l118 -298h65v-194h-49l-11 129h-58l-94 251l-18 63l-18 -63l-96 -251h-77z" />
    <glyph glyph-name="uni04B3" unicode="&#x4b3;" horiz-adv-x="352" 
d="M251 0l-69 161l-16 59l-16 -59l-67 -161h-70l113 256l-105 244h77l58 -147l14 -55l16 55l59 147h71l-106 -240l86 -198h51v-189h-46l-11 127h-39z" />
    <glyph glyph-name="uni04B4" unicode="&#x4b4;" horiz-adv-x="552" 
d="M535 65v-194h-49l-10 129h-326v635h-140v65h317v-65h-107v-570h185v635h70v-635h60z" />
    <glyph glyph-name="uni04B5" unicode="&#x4b5;" horiz-adv-x="418" 
d="M406 62v-189h-47l-10 127h-250v438h-98v62h244v-62h-79v-376h125v438h67v-438h48z" />
    <glyph glyph-name="uni04B6" unicode="&#x4b6;" horiz-adv-x="428" 
d="M41 700h70v-253q0 -71 18.5 -97.5t57.5 -26.5q26 0 51.5 13t41.5 34v330h70v-635h62v-194h-49l-10 129h-73v298q-42 -40 -107 -40q-60 0 -96 36t-36 134v272z" />
    <glyph glyph-name="uni04B7" unicode="&#x4b7;" horiz-adv-x="342" 
d="M26 500h67v-154q0 -53 10 -77.5t41 -24.5q45 0 69 26v230h67v-438h51v-189h-46l-11 127h-61v209q-32 -27 -84 -27q-50 0 -76.5 31.5t-26.5 105.5v181z" />
    <glyph glyph-name="uni04B8" unicode="&#x4b8;" horiz-adv-x="413" 
d="M179 145v113q-69 0 -103.5 39t-34.5 137v266h70v-250q0 -66 16 -95t52 -32v132h51v-126q41 11 64 40v331h70v-700h-70v299q-26 -23 -64 -34v-120h-51z" />
    <glyph glyph-name="uni04B9" unicode="&#x4b9;" horiz-adv-x="338" 
d="M139 68v108h-5q-56 0 -82 38t-26 134v152h67v-146q0 -54 9.5 -83t36.5 -33v135h45v-132q29 9 42 27v232h67v-500h-67v209q-15 -15 -42 -25v-116h-45z" />
    <glyph glyph-name="uni04BA" unicode="&#x4ba;" horiz-adv-x="400" 
d="M358 0h-70v239q0 74 -16 106.5t-58 32.5q-59 0 -94 -45v-333h-70v700h70v-299q52 42 112 42q64 0 95 -42t31 -151v-250z" />
    <glyph glyph-name="uni04BB" unicode="&#x4bb;" horiz-adv-x="359" 
d="M319 0h-67v318q0 69 -13 100.5t-49 31.5q-27 0 -48.5 -20.5t-29.5 -51.5v-378h-67v700h67v-239h2q40 51 100 51q55 0 80 -39.5t25 -133.5v-339z" />
    <glyph glyph-name="uni04BC" unicode="&#x4bc;" horiz-adv-x="519" 
d="M476 320h-276q5 -135 38.5 -201t100.5 -66q46 0 98 41l22 -60q-56 -46 -132 -46q-191 0 -197 332h-23q-57 0 -82 27.5t-25 84.5q0 53 24 87h61q-23 -33 -23 -78q0 -28 11.5 -41.5t46.5 -13.5h10q4 157 50.5 241.5t133.5 84.5q84 0 126.5 -69.5t42.5 -199.5q0 -61 -7 -123
zM199 385h213q3 35 3 66q0 85 -25 140.5t-75 55.5q-109 0 -116 -262z" />
    <glyph glyph-name="uni04BD" unicode="&#x4bd;" horiz-adv-x="416" 
d="M352 80l24 -51q-43 -41 -115 -41q-76 0 -114 67t-39 187h-8q-97 0 -97 110q0 61 37 102h63q-42 -36 -42 -98q0 -56 42 -56h6q7 103 46 157.5t103 54.5q128 0 128 -183q0 -48 -5 -87h-205q2 -192 101 -192q47 0 75 30zM258 450q-73 0 -80 -151h145v18q0 65 -17.5 99
t-47.5 34z" />
    <glyph glyph-name="uni04BE" unicode="&#x4be;" horiz-adv-x="519" 
d="M476 320h-276q5 -135 38.5 -201t100.5 -66q46 0 98 41l22 -60q-45 -38 -99 -46l-9 -167h-44l-13 168q-160 27 -164 331h-23q-57 0 -82 27.5t-25 84.5q0 53 24 87h61q-23 -33 -23 -78q0 -28 11.5 -41.5t46.5 -13.5h10q4 157 50.5 241.5t133.5 84.5q84 0 126.5 -69.5
t42.5 -199.5q0 -61 -7 -123zM199 385h213q3 35 3 66q0 85 -25 140.5t-75 55.5q-109 0 -116 -262z" />
    <glyph glyph-name="uni04BF" unicode="&#x4bf;" horiz-adv-x="416" 
d="M352 80l24 -51q-30 -28 -80 -38l-9 -170h-44l-13 169q-120 24 -122 252h-8q-97 0 -97 110q0 61 37 102h63q-42 -36 -42 -98q0 -56 42 -56h6q7 103 46 157.5t103 54.5q128 0 128 -183q0 -48 -5 -87h-205q2 -192 101 -192q47 0 75 30zM258 450q-73 0 -80 -151h145v18
q0 65 -17.5 99t-47.5 34z" />
    <glyph glyph-name="uni04C0" unicode="&#x4c0;" horiz-adv-x="191" 
d="M61 0v700h70v-700h-70z" />
    <glyph glyph-name="uni04C3" unicode="&#x4c3;" horiz-adv-x="400" 
d="M284 71q0 142 -30.5 197.5t-104.5 55.5h-29v-324h-70v700h70v-326l26 14l142 312h80l-140 -286l-38 -38h37q70 -23 98.5 -87.5t28.5 -212.5v-19q0 -141 -35 -204.5t-104 -63.5q-14 0 -21 1v64q52 0 71 48.5t19 168.5z" />
    <glyph glyph-name="uni04C4" unicode="&#x4c4;" horiz-adv-x="322" 
d="M230 17q0 107 -22.5 155.5t-68.5 49.5h-27v-222h-67v500h67v-235l26 13l93 222h71l-93 -211l-26 -26l28 -5q50 -19 68.5 -77t18.5 -148v-17q0 -225 -121 -225q-13 0 -27 3v63q4 -1 11 -1q69 0 69 161z" />
    <glyph glyph-name="uni04C5" unicode="&#x4c5;" horiz-adv-x="425" 
d="M292 0v635h-119q-13 -433 -49 -548q-27 -92 -85 -92q-23 0 -43 10l9 65q7 -3 14 -3q26 0 42 52q40 124 45 581h256v-638h64v-22l-62 -170h-47l30 130h-55z" />
    <glyph glyph-name="uni04C6" unicode="&#x4c6;" horiz-adv-x="352" 
d="M223 0v438h-82q-5 -234 -24.5 -338t-77.5 -104q-31 0 -45 9l9 60q10 -2 14 -2q21 0 33 31t20 127.5t11 278.5h209v-438h63v-22l-62 -170h-47l30 130h-51z" />
    <glyph glyph-name="uni04C7" unicode="&#x4c7;" horiz-adv-x="437" 
d="M387 700v-730q0 -94 -23.5 -138t-75.5 -44q-7 0 -23 2v63q18 0 29 8t16 30t6 44t1 65v326h-197v-326h-70v700h70v-309h197v309h70z" />
    <glyph glyph-name="uni04C8" unicode="&#x4c8;" horiz-adv-x="355" 
d="M243 0v225h-131v-225h-67v500h67v-213h131v213h67v-530q0 -91 -24 -133.5t-75 -42.5q-7 0 -23 2v63q35 0 45 31t10 110z" />
    <glyph glyph-name="uni04C9" unicode="&#x4c9;" horiz-adv-x="453" 
d="M317 0v326h-197v-326h-70v700h70v-309h197v309h70v-638h67v-22l-62 -170h-47l30 130h-58z" />
    <glyph glyph-name="uni04CA" unicode="&#x4ca;" horiz-adv-x="373" 
d="M243 0v225h-131v-225h-67v500h67v-213h131v213h67v-438h64v-22l-62 -170h-47l30 130h-52z" />
    <glyph glyph-name="uni04CB" unicode="&#x4cb;" horiz-adv-x="399" 
d="M41 700h70v-253q0 -71 18.5 -98t57.5 -27q26 0 51.5 13.5t41.5 34.5v330h70v-700h-74l-10 -129h-49v194h63v233q-42 -40 -107 -40q-60 0 -96 36t-36 134v272z" />
    <glyph glyph-name="uni04CC" unicode="&#x4cc;" horiz-adv-x="325" 
d="M213 60v155q-30 -30 -87 -30q-51 0 -75.5 35.5t-24.5 129.5v150h67v-136q0 -59 10 -88t41 -29q46 0 69 25v228h67v-500h-65l-10 -127h-47v187h55z" />
    <glyph glyph-name="uni04CD" unicode="&#x4cd;" horiz-adv-x="541" 
d="M404 0v452l10 108h-4l-27 -103l-110 -294h-24l-115 294l-27 103h-4l14 -108v-452h-67v700h65l130 -333l20 -85h1l19 86l124 332h65v-638h68v-22l-62 -170h-47l30 130h-59z" />
    <glyph glyph-name="uni04CE" unicode="&#x4ce;" horiz-adv-x="446" 
d="M319 0v297l6 95h-5l-23 -91l-73 -188h-24l-76 188l-23 91h-5l8 -94v-298h-59v500h67l85 -211l18 -71h2l19 73l79 209h69v-438h63v-22l-62 -170h-47l30 130h-49z" />
    <glyph glyph-name="uni04CF" unicode="&#x4cf;" horiz-adv-x="169" 
d="M51 0v700h67v-700h-67z" />
    <glyph glyph-name="uni04D0" unicode="&#x4d0;" horiz-adv-x="389" 
d="M314 0l-45 198h-154l-43 -198h-69l170 711h43l171 -711h-73zM177 477l-46 -217h124l-46 219l-15 105h-2zM76 855l66 15q5 -82 55 -82t55 81l59 -13q-13 -121 -115 -121q-51 0 -83.5 29.5t-36.5 90.5z" />
    <glyph glyph-name="uni04D1" unicode="&#x4d1;" horiz-adv-x="327" 
d="M66 421l-22 53q49 34 130 34q63 0 86.5 -39t23.5 -113q0 -41 -2 -117.5t-2 -108.5q0 -84 10 -132h-51l-15 50h-3q-29 -54 -97 -54q-46 0 -74 37.5t-28 102.5q0 152 163 152q21 0 32 -1q2 40 2 54q0 58 -14 82.5t-48 24.5q-53 0 -91 -25zM144 56q52 0 74 51v123
q-11 2 -32 2q-96 0 -96 -90q0 -42 14.5 -64t39.5 -22zM57 686l55 15q3 -42 18.5 -63.5t36.5 -21.5q20 0 35.5 22.5t19.5 61.5l50 -13q-6 -59 -36 -92t-71 -33q-42 0 -72.5 30t-35.5 94z" />
    <glyph glyph-name="uni04D2" unicode="&#x4d2;" horiz-adv-x="389" 
d="M314 0l-45 198h-154l-43 -198h-69l170 711h43l171 -711h-73zM177 477l-46 -217h124l-46 219l-15 105h-2zM87 794q0 21 11 34t31 13q19 0 30 -13t11 -34t-11 -33.5t-30 -12.5q-42 0 -42 46zM220 794q0 21 11 34t30 13q41 0 41 -47q0 -46 -41 -46q-19 0 -30 12.5t-11 33.5z
" />
    <glyph glyph-name="uni04D3" unicode="&#x4d3;" horiz-adv-x="327" 
d="M66 421l-22 53q49 34 130 34q63 0 86.5 -39t23.5 -113q0 -41 -2 -117.5t-2 -108.5q0 -84 10 -132h-51l-15 50h-3q-29 -54 -97 -54q-46 0 -74 37.5t-28 102.5q0 152 163 152q21 0 32 -1q2 40 2 54q0 58 -14 82.5t-48 24.5q-53 0 -91 -25zM144 56q52 0 74 51v123
q-11 2 -32 2q-96 0 -96 -90q0 -42 14.5 -64t39.5 -22zM58 633q0 22 11 35t28 13t27.5 -13t10.5 -35q0 -21 -10.5 -33.5t-27.5 -12.5t-28 12.5t-11 33.5zM192 633q0 22 10.5 35t27.5 13t27.5 -13t10.5 -35q0 -21 -10.5 -33.5t-27.5 -12.5t-27.5 12.5t-10.5 33.5z" />
    <glyph glyph-name="uni04D4" unicode="&#x4d4;" horiz-adv-x="561" 
d="M261 580h-2l-21 -94l-82 -223h105v317zM261 0v201h-130l-73 -201h-73l274 700h262v-65h-190v-243h173v-65h-173v-262h193v-65h-263z" />
    <glyph glyph-name="uni04D5" unicode="&#x4d5;" horiz-adv-x="520" 
d="M145 54q29 0 47 19t26 47v115q-16 2 -25 2q-103 0 -103 -92q0 -37 15.5 -64t39.5 -27zM244 65h-4q-36 -73 -112 -73q-48 0 -77 40t-29 106q0 82 40.5 117.5t116.5 35.5q12 0 38 -2q2 38 2 51q0 59 -13.5 82.5t-48.5 23.5q-53 0 -96 -34l-19 53q49 43 131 43q68 0 89 -63
q32 67 103 67q127 0 127 -186q0 -48 -5 -87h-205q1 -98 23.5 -143.5t74.5 -45.5q49 0 78 27l24 -51q-45 -38 -119 -38q-87 0 -119 77zM365 450q-75 0 -81 -156h145v18q0 66 -17 102t-47 36z" />
    <glyph glyph-name="uni04D6" unicode="&#x4d6;" horiz-adv-x="350" 
d="M50 0v700h259v-65h-189v-243h173v-65h-173v-262h193v-65h-263zM61 855l66 15q5 -82 55 -82t55 81l59 -13q-13 -121 -115 -121q-51 0 -83.5 29.5t-36.5 90.5z" />
    <glyph glyph-name="uni04D7" unicode="&#x4d7;" horiz-adv-x="334" 
d="M272 80l24 -51q-43 -41 -115 -41q-78 0 -115.5 69t-37.5 193q0 127 39 194.5t111 67.5q128 0 128 -183q0 -48 -5 -87h-205q2 -192 101 -192q47 0 75 30zM178 450q-73 0 -80 -151h145v18q0 65 -17.5 99t-47.5 34zM66 686l55 15q3 -42 18.5 -63.5t36.5 -21.5
q20 0 35.5 22.5t19.5 61.5l50 -13q-6 -59 -36 -92t-71 -33q-42 0 -72.5 30t-35.5 94z" />
    <glyph glyph-name="uni04D8" unicode="&#x4d8;" horiz-adv-x="420" 
d="M318 326h-214q-3 -39 -3 -72q0 -90 25.5 -147t76.5 -57q113 0 115 276zM39 388h278q-5 131 -35.5 195t-95.5 64q-50 0 -102 -40l-22 61q66 44 135 44q98 0 144 -85.5t46 -276.5q0 -362 -186 -362q-84 0 -127 72.5t-43 201.5q0 54 8 126z" />
    <glyph glyph-name="afii10846" unicode="&#x4d9;" horiz-adv-x="334" 
d="M63 423l-24 51q45 38 119 38q148 0 148 -262t-145 -262q-61 0 -97 51t-36 158q0 29 5 79h206q-2 91 -24.5 132.5t-73.5 41.5q-47 0 -78 -27zM162 50q76 0 76 169h-146v-22q0 -67 19.5 -107t50.5 -40z" />
    <glyph glyph-name="uni04DA" unicode="&#x4da;" horiz-adv-x="420" 
d="M318 326h-214q-3 -39 -3 -72q0 -90 25.5 -147t76.5 -57q113 0 115 276zM39 388h278q-5 131 -35.5 195t-95.5 64q-50 0 -102 -40l-22 61q66 44 135 44q98 0 144 -85.5t46 -276.5q0 -362 -186 -362q-84 0 -127 72.5t-43 201.5q0 54 8 126zM94 794q0 21 11 34t31 13
q19 0 30 -13t11 -34t-11 -33.5t-30 -12.5q-42 0 -42 46zM227 794q0 21 11 34t30 13q41 0 41 -47q0 -46 -41 -46q-19 0 -30 12.5t-11 33.5z" />
    <glyph glyph-name="uni04DB" unicode="&#x4db;" horiz-adv-x="334" 
d="M63 423l-24 51q45 38 119 38q148 0 148 -262t-145 -262q-61 0 -97 51t-36 158q0 29 5 79h206q-2 91 -24.5 132.5t-73.5 41.5q-47 0 -78 -27zM162 50q76 0 76 169h-146v-22q0 -67 19.5 -107t50.5 -40zM56 633q0 22 11 35t28 13t27.5 -13t10.5 -35q0 -21 -10.5 -33.5
t-27.5 -12.5t-28 12.5t-11 33.5zM190 633q0 22 10.5 35t27.5 13t27.5 -13t10.5 -35q0 -21 -10.5 -33.5t-27.5 -12.5t-27.5 12.5t-10.5 33.5z" />
    <glyph glyph-name="uni04DC" unicode="&#x4dc;" horiz-adv-x="540" 
d="M234 386v314h67v-326l26 14l117 312h77l-121 -304l-29 -32l35 -40l136 -324h-85l-129 325h-27v-325h-67v337l-26 -14l-129 -323h-81l135 314l33 37l-32 35l-127 314h82l117 -314h28zM161 794q0 21 11 34t31 13q19 0 30 -13t11 -34t-11 -33.5t-30 -12.5q-42 0 -42 46z
M294 794q0 21 11 34t30 13q41 0 41 -47q0 -46 -41 -46q-19 0 -30 12.5t-11 33.5z" />
    <glyph glyph-name="uni04DD" unicode="&#x4dd;" horiz-adv-x="446" 
d="M188 235l-30 -14l-86 -221h-72l96 229l22 30l-33 38l-78 203h69l79 -216h33v216h65v-226l29 14l80 212h68l-82 -203l-25 -32l33 -40l90 -225h-75l-86 225h-32v-225h-65v235zM118 633q0 22 11 35t28 13t27.5 -13t10.5 -35q0 -21 -10.5 -33.5t-27.5 -12.5t-28 12.5
t-11 33.5zM252 633q0 22 10.5 35t27.5 13t27.5 -13t10.5 -35q0 -21 -10.5 -33.5t-27.5 -12.5t-27.5 12.5t-10.5 33.5z" />
    <glyph glyph-name="uni04DE" unicode="&#x4de;" horiz-adv-x="354" 
d="M118 335h-31v62h19q42 0 55 5q32 12 53.5 45t21.5 78q0 122 -92 122q-51 0 -91 -25l-19 57q49 33 126 33q148 0 148 -172q0 -53 -21 -97t-62 -65v-5q45 -12 71 -55t26 -114q0 -110 -49 -163t-129 -53q-81 0 -122 26l19 65q41 -26 104 -26q48 0 76.5 39.5t28.5 110.5
q0 123 -103 131q-11 1 -29 1zM53 794q0 21 11 34t31 13q19 0 30 -13t11 -34t-11 -33.5t-30 -12.5q-42 0 -42 46zM186 794q0 21 11 34t30 13q41 0 41 -47q0 -46 -41 -46q-19 0 -30 12.5t-11 33.5z" />
    <glyph glyph-name="uni04DF" unicode="&#x4df;" horiz-adv-x="284" 
d="M109 226h-35v59h43q23 0 41 25t18 56q0 77 -64 77q-45 0 -75 -22l-19 53q42 31 110 31q55 0 85 -30.5t30 -90.5q0 -86 -59 -116v-4q72 -22 72 -124q0 -66 -36.5 -106.5t-107.5 -40.5q-59 0 -96 23l17 59q30 -20 76 -20q79 0 79 91q0 80 -79 80zM22 633q0 22 11 35t28 13
t27.5 -13t10.5 -35q0 -21 -10.5 -33.5t-27.5 -12.5t-28 12.5t-11 33.5zM156 633q0 22 10.5 35t27.5 13t27.5 -13t10.5 -35q0 -21 -10.5 -33.5t-27.5 -12.5t-27.5 12.5t-10.5 33.5z" />
    <glyph glyph-name="uni04E0" unicode="&#x4e0;" horiz-adv-x="368" 
d="M149 53q56 0 84 41.5t28 110.5q0 138 -122 138h-58v27l118 231l30 43l-40 -9h-153v65h277v-29l-128 -244l-26 -31v-2l25 7q65 0 106 -49t41 -139q0 -108 -46.5 -166.5t-132.5 -58.5q-78 0 -121 30l18 66q44 -31 100 -31z" />
    <glyph glyph-name="uni04E1" unicode="&#x4e1;" horiz-adv-x="316" 
d="M117 -146q47 0 76 41.5t29 107.5q0 145 -105 145h-45v25l94 228l32 44l-44 -7h-131v62h247v-28l-102 -239l-26 -29v-2l25 6q53 -6 87.5 -55.5t34.5 -138.5q0 -106 -47 -164t-125 -58q-59 0 -97 21l20 60q32 -19 77 -19z" />
    <glyph glyph-name="uni04E2" unicode="&#x4e2;" horiz-adv-x="444" 
d="M325 0v447l7 100h-4l-28 -104l-200 -443h-50v700h70v-453l-8 -100h3l29 104l202 449h49v-700h-70zM116 761v62h216v-62h-216z" />
    <glyph glyph-name="uni04E3" unicode="&#x4e3;" horiz-adv-x="358" 
d="M246 0v281l9 88h-4l-30 -99l-128 -270h-48v500h67v-290l-9 -85h4l29 97l131 278h46v-500h-67zM79 585v58h203v-58h-203z" />
    <glyph glyph-name="uni04E4" unicode="&#x4e4;" horiz-adv-x="444" 
d="M325 0v447l7 100h-4l-28 -104l-200 -443h-50v700h70v-453l-8 -100h3l29 104l202 449h49v-700h-70zM120 794q0 21 11 34t31 13q19 0 30 -13t11 -34t-11 -33.5t-30 -12.5q-42 0 -42 46zM253 794q0 21 11 34t30 13q41 0 41 -47q0 -46 -41 -46q-19 0 -30 12.5t-11 33.5z" />
    <glyph glyph-name="uni04E5" unicode="&#x4e5;" horiz-adv-x="358" 
d="M246 0v281l9 88h-4l-30 -99l-128 -270h-48v500h67v-290l-9 -85h4l29 97l131 278h46v-500h-67zM76 633q0 22 11 35t28 13t27.5 -13t10.5 -35q0 -21 -10.5 -33.5t-27.5 -12.5t-28 12.5t-11 33.5zM210 633q0 22 10.5 35t27.5 13t27.5 -13t10.5 -35q0 -21 -10.5 -33.5
t-27.5 -12.5t-27.5 12.5t-10.5 33.5z" />
    <glyph glyph-name="uni04E6" unicode="&#x4e6;" horiz-adv-x="447" 
d="M33 350q0 182 45.5 272t144.5 90q104 0 147.5 -92t43.5 -270q0 -182 -46 -272t-145 -90q-103 0 -146.5 92t-43.5 270zM105 350q0 -84 10.5 -147.5t38 -106.5t69.5 -43q119 0 119 297q0 131 -28 214t-91 83q-118 0 -118 -297zM116 794q0 21 11 34t31 13q19 0 30 -13
t11 -34t-11 -33.5t-30 -12.5q-42 0 -42 46zM249 794q0 21 11 34t30 13q41 0 41 -47q0 -46 -41 -46q-19 0 -30 12.5t-11 33.5z" />
    <glyph glyph-name="uni04E7" unicode="&#x4e7;" horiz-adv-x="353" 
d="M28 250q0 262 149 262q77 0 112.5 -61.5t35.5 -200.5t-37.5 -200.5t-110.5 -61.5q-77 0 -113 61.5t-36 200.5zM96 250q0 -200 81 -200q41 0 60.5 47t19.5 153q0 200 -80 200q-81 0 -81 -200zM70 633q0 22 11 35t28 13t27.5 -13t10.5 -35q0 -21 -10.5 -33.5t-27.5 -12.5
t-28 12.5t-11 33.5zM204 633q0 22 10.5 35t27.5 13t27.5 -13t10.5 -35q0 -21 -10.5 -33.5t-27.5 -12.5t-27.5 12.5t-10.5 33.5z" />
    <glyph glyph-name="uni04E8" unicode="&#x4e8;" horiz-adv-x="447" 
d="M33 350q0 182 45.5 272t144.5 90q104 0 147.5 -92t43.5 -270q0 -182 -46 -272t-145 -90q-103 0 -146.5 92t-43.5 270zM223 53q113 0 119 270h-237q2 -120 31 -195t87 -75zM223 647q-110 0 -118 -259h236q-3 116 -31.5 187.5t-86.5 71.5z" />
    <glyph glyph-name="uni04E9" unicode="&#x4e9;" horiz-adv-x="353" 
d="M28 250q0 262 149 262q148 0 148 -262t-148 -262q-149 0 -149 262zM96 278h161q-4 172 -80 172q-75 0 -81 -172zM257 220h-161q2 -85 24.5 -127.5t56.5 -42.5q77 0 80 170z" />
    <glyph glyph-name="uni04EA" unicode="&#x4ea;" horiz-adv-x="447" 
d="M33 350q0 182 45.5 272t144.5 90q104 0 147.5 -92t43.5 -270q0 -182 -46 -272t-145 -90q-103 0 -146.5 92t-43.5 270zM223 53q113 0 119 270h-237q2 -120 31 -195t87 -75zM223 647q-110 0 -118 -259h236q-3 116 -31.5 187.5t-86.5 71.5zM116 794q0 21 11 34t31 13
q19 0 30 -13t11 -34t-11 -33.5t-30 -12.5q-42 0 -42 46zM249 794q0 21 11 34t30 13q41 0 41 -47q0 -46 -41 -46q-19 0 -30 12.5t-11 33.5z" />
    <glyph glyph-name="uni04EB" unicode="&#x4eb;" horiz-adv-x="353" 
d="M28 250q0 262 149 262q148 0 148 -262t-148 -262q-149 0 -149 262zM96 278h161q-4 172 -80 172q-75 0 -81 -172zM257 220h-161q2 -85 24.5 -127.5t56.5 -42.5q77 0 80 170zM70 633q0 22 11 35t28 13t27.5 -13t10.5 -35q0 -21 -10.5 -33.5t-27.5 -12.5t-28 12.5t-11 33.5z
M204 633q0 22 10.5 35t27.5 13t27.5 -13t10.5 -35q0 -21 -10.5 -33.5t-27.5 -12.5t-27.5 12.5t-10.5 33.5z" />
    <glyph glyph-name="uni04EC" unicode="&#x4ec;" horiz-adv-x="380" 
d="M94 326v62h181q-5 259 -136 259q-53 0 -97 -32l-23 59q54 38 126 38q99 0 150.5 -84.5t51.5 -274.5q0 -365 -211 -365q-68 0 -113 25l19 65q42 -25 97 -25q62 0 98.5 66.5t38.5 206.5h-182zM47 794q0 21 11 34t31 13q19 0 30 -13t11 -34t-11 -33.5t-30 -12.5
q-42 0 -42 46zM180 794q0 21 11 34t30 13q41 0 41 -47q0 -46 -41 -46q-19 0 -30 12.5t-11 33.5z" />
    <glyph glyph-name="uni04ED" unicode="&#x4ed;" horiz-adv-x="302" 
d="M74 222v60h132q-3 168 -88 168q-45 0 -76 -24l-23 54q42 32 109 32q73 0 109 -63.5t36 -198.5q0 -262 -156 -262q-58 0 -98 20l18 61q32 -19 74 -19q92 0 95 172h-132zM23 633q0 22 10.5 35t28.5 13q17 0 27.5 -13t10.5 -35q0 -21 -10.5 -33.5t-27.5 -12.5t-28 12.5
t-11 33.5zM157 633q0 22 10.5 35t27.5 13t27.5 -13t10.5 -35q0 -21 -10.5 -33.5t-27.5 -12.5t-27.5 12.5t-10.5 33.5z" />
    <glyph glyph-name="uni04EE" unicode="&#x4ee;" horiz-adv-x="369" 
d="M81 700l107 -351l14 -90h4l13 92l82 349h71l-118 -455q-39 -154 -62 -202t-68 -48q-39 0 -64 21l20 62q18 -16 42 -16q31 0 49 118l-170 520h80zM87 761v62h216v-62h-216z" />
    <glyph glyph-name="uni04EF" unicode="&#x4ef;" horiz-adv-x="309" 
d="M78 500l74 -324l17 -96h3l11 97l60 323h66l-97 -449l-16 -73l-16 -60.5t-17.5 -52.5t-19.5 -37t-24 -25.5t-28 -7.5q-27 0 -42 9l11 65q10 -2 13 -2q45 0 63 133l-134 500h76zM56 585v58h203v-58h-203z" />
    <glyph glyph-name="uni04F0" unicode="&#x4f0;" horiz-adv-x="369" 
d="M81 700l107 -351l14 -90h4l13 92l82 349h71l-118 -455q-39 -154 -62 -202t-68 -48q-39 0 -64 21l20 62q18 -16 42 -16q31 0 49 118l-170 520h80zM87 794q0 21 11 34t31 13q19 0 30 -13t11 -34t-11 -33.5t-30 -12.5q-42 0 -42 46zM220 794q0 21 11 34t30 13q41 0 41 -47
q0 -46 -41 -46q-19 0 -30 12.5t-11 33.5z" />
    <glyph glyph-name="uni04F1" unicode="&#x4f1;" horiz-adv-x="309" 
d="M78 500l74 -324l17 -96h3l11 97l60 323h66l-97 -449l-16 -73l-16 -60.5t-17.5 -52.5t-19.5 -37t-24 -25.5t-28 -7.5q-27 0 -42 9l11 65q10 -2 13 -2q45 0 63 133l-134 500h76zM58 633q0 22 11 35t28 13t27.5 -13t10.5 -35q0 -21 -10.5 -33.5t-27.5 -12.5t-28 12.5
t-11 33.5zM192 633q0 22 10.5 35t27.5 13t27.5 -13t10.5 -35q0 -21 -10.5 -33.5t-27.5 -12.5t-27.5 12.5t-10.5 33.5z" />
    <glyph glyph-name="uni04F2" unicode="&#x4f2;" horiz-adv-x="369" 
d="M81 700l107 -351l14 -90h4l13 92l82 349h71l-118 -455q-39 -154 -62 -202t-68 -48q-39 0 -64 21l20 62q18 -16 42 -16q31 0 49 118l-170 520h80zM111 741l41 109h73v-16l-66 -93h-48zM203 741l66 109h76v-16l-93 -93h-49z" />
    <glyph glyph-name="uni04F3" unicode="&#x4f3;" horiz-adv-x="309" 
d="M78 500l74 -324l17 -96h3l11 97l60 323h66l-97 -449l-16 -73l-16 -60.5t-17.5 -52.5t-19.5 -37t-24 -25.5t-28 -7.5q-27 0 -42 9l11 65q10 -2 13 -2q45 0 63 133l-134 500h76zM97 571l23 129h63v-16l-48 -113h-38zM177 571l48 129h68v-16l-76 -113h-40z" />
    <glyph glyph-name="uni04F4" unicode="&#x4f4;" horiz-adv-x="399" 
d="M41 700h70v-253q0 -71 18.5 -97.5t57.5 -26.5q26 0 51.5 13t41.5 34v330h70v-700h-70v298q-42 -40 -107 -40q-60 0 -96 36t-36 134v272zM91 794q0 21 11 34t31 13q19 0 30 -13t11 -34t-11 -33.5t-30 -12.5q-42 0 -42 46zM224 794q0 21 11 34t30 13q41 0 41 -47
q0 -46 -41 -46q-19 0 -30 12.5t-11 33.5z" />
    <glyph glyph-name="uni04F5" unicode="&#x4f5;" horiz-adv-x="325" 
d="M26 500h67v-154q0 -53 10 -77.5t41 -24.5q45 0 69 26v230h67v-500h-67v209q-32 -27 -84 -27q-50 0 -76.5 31.5t-26.5 105.5v181zM49 633q0 22 10.5 35t28.5 13q17 0 27.5 -13t10.5 -35q0 -21 -10.5 -33.5t-27.5 -12.5t-28 12.5t-11 33.5zM183 633q0 22 10.5 35t27.5 13
t27.5 -13t10.5 -35q0 -21 -10.5 -33.5t-27.5 -12.5t-27.5 12.5t-10.5 33.5z" />
    <glyph glyph-name="uni04F6" unicode="&#x4f6;" horiz-adv-x="295" 
d="M50 0v700h255v-65h-185v-570h63v-194h-49l-10 129h-74z" />
    <glyph glyph-name="uni04F7" unicode="&#x4f7;" horiz-adv-x="242" 
d="M45 0v500h199v-62h-132v-376h51v-189h-46l-11 127h-61z" />
    <glyph glyph-name="uni04F8" unicode="&#x4f8;" horiz-adv-x="516" 
d="M396 0v700h70v-700h-70zM50 5v695h70v-272q27 9 58 9q74 0 116.5 -45.5t42.5 -164.5q0 -122 -43.5 -178.5t-134.5 -56.5q-62 0 -109 13zM165 57q100 0 100 163q0 86 -25 119t-75 33q-31 0 -45 -9v-299q14 -7 45 -7zM149 794q0 21 11 34t31 13q19 0 30 -13t11 -34
t-11 -33.5t-30 -12.5q-42 0 -42 46zM282 794q0 21 11 34t30 13q41 0 41 -47q0 -46 -41 -46q-19 0 -30 12.5t-11 33.5z" />
    <glyph glyph-name="uni04F9" unicode="&#x4f9;" horiz-adv-x="447" 
d="M112 250v-188q22 -6 42 -6q36 0 51.5 24.5t15.5 76.5q0 99 -65 99q-27 0 -44 -6zM112 500v-191q29 7 60 7q117 0 117 -149q0 -91 -34 -132t-112 -41q-53 0 -98 6v500h67zM335 0v500h67v-500h-67zM114 633q0 22 11 35t28 13t27.5 -13t10.5 -35q0 -21 -10.5 -33.5
t-27.5 -12.5t-28 12.5t-11 33.5zM248 633q0 22 10.5 35t27.5 13t27.5 -13t10.5 -35q0 -21 -10.5 -33.5t-27.5 -12.5t-27.5 12.5t-10.5 33.5z" />
    <glyph glyph-name="uni04FC" unicode="&#x4fc;" horiz-adv-x="408" 
d="M309 -47q0 71 -32 159l-53 138l-19 64l-18 -63l-96 -251h-77l147 356l-134 344h82l85 -237l16 -60l16 60l89 237h76l-139 -337l87 -215q40 -100 40 -184q0 -91 -26 -132t-81 -41q-14 0 -21 1v64q36 0 47 25t11 72z" />
    <glyph glyph-name="uni04FD" unicode="&#x4fd;" horiz-adv-x="338" 
d="M216 260l61 -134q39 -84 39 -162q0 -170 -106 -170q-8 0 -24 2v63q35 0 49 21t14 67q0 66 -32 142l-27 63l-20 62l-20 -62l-64 -152h-73l113 256l-105 244h81l54 -138l18 -66l18 66l56 138h75z" />
    <glyph glyph-name="uni04FE" unicode="&#x4fe;" horiz-adv-x="412" 
d="M30 326v65h117l-120 309h82l85 -237l16 -60l16 60l89 237h76l-128 -309h121v-65h-117l130 -326h-80l-94 251l-18 63l-18 -63l-96 -251h-77l134 326h-118z" />
    <glyph glyph-name="uni04FF" unicode="&#x4ff;" horiz-adv-x="336" 
d="M29 231v58h83l-91 211h77l58 -147l14 -55l16 55l59 147h71l-93 -211h84v-58h-85l101 -231h-72l-69 161l-16 59l-16 -59l-67 -161h-70l102 231h-86z" />
    <glyph glyph-name="uni0510" unicode="&#x510;" horiz-adv-x="377" 
d="M272 335h-31q-17 0 -28 -1q-51 -4 -77.5 -35t-26.5 -98q0 -70 28 -109t77 -39q54 0 96 30l21 -58q-49 -37 -128 -37t-122.5 52t-43.5 157q0 142 95 172v4q-40 20 -60.5 66.5t-20.5 100.5q0 88 43 130t111 42q75 0 119 -33l-19 -60q-43 28 -91 28q-91 0 -91 -114
q0 -54 23.5 -88.5t57.5 -42.5q19 -5 55 -5h13v-62z" />
    <glyph glyph-name="uni0511" unicode="&#x511;" horiz-adv-x="287" 
d="M210 226h-35q-80 0 -80 -80q0 -41 20.5 -66.5t58.5 -25.5q47 0 76 19l17 -55q-35 -26 -101 -26q-68 0 -103 39t-35 109q0 95 68 124v4q-56 28 -56 115q0 60 30 92t81 32q73 0 115 -28l-20 -56q-37 22 -75 22q-63 0 -63 -79q0 -32 18 -56.5t41 -24.5h43v-59z" />
    <glyph glyph-name="uni0512" unicode="&#x512;" horiz-adv-x="412" 
d="M362 700v-730q0 -94 -23.5 -138t-76.5 -44q-6 0 -22 2v63q34 0 43 30t9 117v635h-120q-13 -440 -47 -548q-29 -92 -86 -92q-25 0 -43 10l10 65q10 -2 14 -2q25 0 42 51q39 112 45 581h255z" />
    <glyph glyph-name="uni0513" unicode="&#x513;" horiz-adv-x="335" 
d="M223 0v438h-82q-5 -234 -24.5 -338t-77.5 -104q-31 0 -45 9l9 60q10 -2 14 -2q21 0 33 31t20 127.5t11 278.5h209v-530q0 -91 -24 -133.5t-75 -42.5q-7 0 -23 2v63q35 0 45 31t10 110z" />
    <glyph glyph-name="uni051A" unicode="&#x51a;" horiz-adv-x="447" 
d="M463 -98v-65q-28 -12 -63 -12q-47 0 -125 33t-107 33q-16 0 -31 -6v65q19 6 38 6q35 0 109.5 -32t119.5 -32q29 0 59 10zM33 350q0 182 45.5 272t144.5 90q104 0 148 -92t44 -270q0 -182 -46 -272t-146 -90q-103 0 -146.5 92t-43.5 270zM105 350q0 -84 10.5 -147.5
t38 -106.5t69.5 -43q120 0 120 297q0 62 -6 113t-19.5 93.5t-37.5 66.5t-57 24q-118 0 -118 -297z" />
    <glyph glyph-name="uni051B" unicode="&#x51b;" horiz-adv-x="353" 
d="M309 478v-678h-67v234h-3q-29 -46 -83 -46q-128 0 -128 260q0 128 42 194t123 66q69 0 116 -30zM171 50q53 0 71 71v310q-20 15 -60 15q-41 0 -63.5 -49.5t-22.5 -147.5q0 -90 18.5 -144.5t56.5 -54.5z" />
    <glyph glyph-name="uni051C" unicode="&#x51c;" horiz-adv-x="554" 
d="M79 700l72 -459l10 -118h2l9 120l88 457h46l85 -458l10 -119h1l11 120l68 457h70l-128 -711h-46l-87 455l-10 108h-3l-11 -109l-87 -454h-47l-129 711h76z" />
    <glyph glyph-name="uni051D" unicode="&#x51d;" horiz-adv-x="481" 
d="M221 500h49l69 -292l14 -96h2l11 98l53 290h60l-106 -511h-42l-79 327l-9 85h-3l-9 -87l-76 -325h-43l-110 511h70l60 -291l10 -97h2l13 99z" />
    <glyph glyph-name="uni0524" unicode="&#x524;" horiz-adv-x="458" 
d="M309 0v635h-189v-635h-70v700h329v-635h63v-194h-49l-10 129h-74z" />
    <glyph glyph-name="uni0525" unicode="&#x525;" horiz-adv-x="369" 
d="M239 0v438h-127v-438h-67v500h261v-438h51v-189h-46l-11 127h-61z" />
    <glyph glyph-name="uni0526" unicode="&#x526;" horiz-adv-x="433" 
d="M361 0h-73v239q0 74 -16 106.5t-58 32.5q-59 0 -94 -45v-333h-70v700h70v-299q52 42 112 42q64 0 95 -42t31 -151v-185h62v-194h-49z" />
    <glyph glyph-name="uni0527" unicode="&#x527;" horiz-adv-x="380" 
d="M252 0v318q0 69 -13 100.5t-49 31.5q-27 0 -48.5 -20.5t-29.5 -51.5v-378h-67v700h67v-239h2q40 51 100 51q55 0 80 -39.5t25 -133.5v-277h50v-189h-46l-11 127h-60z" />
    <glyph glyph-name="uni1E30" unicode="&#x1e30;" horiz-adv-x="406" 
d="M302 0l-155 324h-27v-324h-70v700h70v-326l26 14l142 312h80l-145 -302l-31 -32l35 -40l161 -326h-86zM147 752l74 118h88v-21l-107 -97h-55z" />
    <glyph glyph-name="uni1E31" unicode="&#x1e31;" horiz-adv-x="319" 
d="M238 0l-97 225h-29v-225h-67v700h67v-426l26 14l89 212h75l-92 -203l-29 -32l34 -38l100 -227h-77zM162 571l37 149h71v-21l-69 -128h-39z" />
    <glyph glyph-name="uni1E3E" unicode="&#x1e3e;" horiz-adv-x="524" 
d="M404 0v452l10 108h-4l-27 -103l-110 -294h-24l-115 294l-27 103h-4l14 -108v-452h-67v700h65l130 -333l20 -85h1l19 86l124 332h65v-700h-70zM223 752l74 118h88v-21l-107 -97h-55z" />
    <glyph glyph-name="uni1E3F" unicode="&#x1e3f;" horiz-adv-x="531" 
d="M302 0h-67v308q0 82 -10.5 112t-43.5 30q-25 0 -43.5 -23.5t-25.5 -54.5v-372h-67v500h49l11 -48h2q35 60 101 60q32 0 50.5 -15t30.5 -54q15 32 43 50.5t60 18.5q55 0 77.5 -35.5t22.5 -129.5v-347h-67v332q0 63 -11 90.5t-42 27.5q-27 0 -45 -19.5t-25 -51.5v-379z
M244 571l37 149h71v-21l-69 -128h-39z" />
    <glyph glyph-name="uni1E54" unicode="&#x1e54;" horiz-adv-x="372" 
d="M50 0v692q48 16 117 16q184 0 184 -215q0 -118 -51 -174.5t-128 -56.5q-40 0 -52 4v-266h-70zM172 643q-37 0 -52 -5v-306q9 -5 45 -5q114 0 114 167q0 149 -107 149zM137 752l74 118h88v-21l-107 -97h-55z" />
    <glyph glyph-name="uni1E55" unicode="&#x1e55;" horiz-adv-x="356" 
d="M45 -200v700h48l10 -49h2q33 61 96 61q65 0 96 -60t31 -192q0 -127 -40 -199.5t-110 -72.5q-40 0 -66 15v-203h-67zM184 450q-54 0 -72 -75v-301q22 -24 59 -24q42 0 65.5 55.5t23.5 155.5q0 189 -76 189zM147 571l37 149h71v-21l-69 -128h-39z" />
    <glyph glyph-name="Wgrave" unicode="&#x1e80;" horiz-adv-x="554" 
d="M79 700l72 -459l10 -118h2l9 120l88 457h46l85 -458l10 -119h1l11 120l68 457h70l-128 -711h-46l-87 455l-10 108h-3l-11 -109l-87 -454h-47l-129 711h76zM271 870l74 -118h-57l-104 97v21h87z" />
    <glyph glyph-name="wgrave" unicode="&#x1e81;" horiz-adv-x="481" 
d="M221 500h49l69 -292l14 -96h2l11 98l53 290h60l-106 -511h-42l-79 327l-9 85h-3l-9 -87l-76 -325h-43l-110 511h70l60 -291l10 -97h2l13 99zM228 720l42 -149h-38l-78 128v21h74z" />
    <glyph glyph-name="Wacute" unicode="&#x1e82;" horiz-adv-x="554" 
d="M79 700l72 -459l10 -118h2l9 120l88 457h46l85 -458l10 -119h1l11 120l68 457h70l-128 -711h-46l-87 455l-10 108h-3l-11 -109l-87 -454h-47l-129 711h76zM241 752l74 118h88v-21l-107 -97h-55z" />
    <glyph glyph-name="wacute" unicode="&#x1e83;" horiz-adv-x="481" 
d="M221 500h49l69 -292l14 -96h2l11 98l53 290h60l-106 -511h-42l-79 327l-9 85h-3l-9 -87l-76 -325h-43l-110 511h70l60 -291l10 -97h2l13 99zM216 571l37 149h71v-21l-69 -128h-39z" />
    <glyph glyph-name="Wdieresis" unicode="&#x1e84;" horiz-adv-x="554" 
d="M79 700l72 -459l10 -118h2l9 120l88 457h46l85 -458l10 -119h1l11 120l68 457h70l-128 -711h-46l-87 455l-10 108h-3l-11 -109l-87 -454h-47l-129 711h76zM175 794q0 21 11 34t31 13q19 0 30 -13t11 -34t-11 -33.5t-30 -12.5q-42 0 -42 46zM308 794q0 21 11 34t30 13
q41 0 41 -47q0 -46 -41 -46q-19 0 -30 12.5t-11 33.5z" />
    <glyph glyph-name="wdieresis" unicode="&#x1e85;" horiz-adv-x="481" 
d="M221 500h49l69 -292l14 -96h2l11 98l53 290h60l-106 -511h-42l-79 327l-9 85h-3l-9 -87l-76 -325h-43l-110 511h70l60 -291l10 -97h2l13 99zM139 653q0 22 10.5 35t28.5 13q17 0 27.5 -13t10.5 -35q0 -21 -10.5 -33.5t-27.5 -12.5t-28 12.5t-11 33.5zM273 653
q0 22 10.5 35t27.5 13t27.5 -13t10.5 -35q0 -21 -10.5 -33.5t-27.5 -12.5t-27.5 12.5t-10.5 33.5z" />
    <glyph glyph-name="uni1E9E" unicode="&#x1e9e;" horiz-adv-x="440" 
d="M168 379l113 242q-26 29 -85 29q-48 0 -63.5 -38t-15.5 -115v-497h-70v520q0 96 35 144t117 48q102 0 167 -68l-99 -213l-23 -29v-2l23 7q65 -2 102.5 -53.5t37.5 -140.5q0 -107 -44 -166t-123 -59q-62 0 -86 19l12 63q21 -17 71 -17q46 0 72 41t26 109q0 71 -32 110
t-90 39h-45v27z" />
    <glyph glyph-name="Ygrave" unicode="&#x1ef2;" horiz-adv-x="377" 
d="M154 0v278l-151 422h80l98 -304l11 -61h2l10 63l96 302h74l-150 -421v-279h-70zM161 870l74 -118h-57l-104 97v21h87z" />
    <glyph glyph-name="ygrave" unicode="&#x1ef3;" horiz-adv-x="309" 
d="M78 500l74 -324l17 -96h3l11 97l60 323h66l-97 -449l-16 -73l-16 -60.5t-17.5 -52.5t-19.5 -37t-24 -25.5t-28 -7.5q-27 0 -42 9l11 65q10 -2 13 -2q45 0 63 133l-134 500h76zM147 720l42 -149h-38l-78 128v21h74z" />
    <glyph glyph-name="uni2000" unicode="&#x2000;" horiz-adv-x="434" 
 />
    <glyph glyph-name="uni2001" unicode="&#x2001;" horiz-adv-x="539" 
 />
    <glyph glyph-name="uni2002" unicode="&#x2002;" horiz-adv-x="434" 
 />
    <glyph glyph-name="uni2003" unicode="&#x2003;" horiz-adv-x="539" 
 />
    <glyph glyph-name="uni2004" unicode="&#x2004;" horiz-adv-x="180" 
 />
    <glyph glyph-name="uni2005" unicode="&#x2005;" horiz-adv-x="135" 
 />
    <glyph glyph-name="uni2006" unicode="&#x2006;" horiz-adv-x="90" 
 />
    <glyph glyph-name="uni2007" unicode="&#x2007;" horiz-adv-x="338" 
 />
    <glyph glyph-name="uni2008" unicode="&#x2008;" horiz-adv-x="135" 
 />
    <glyph glyph-name="uni2009" unicode="&#x2009;" horiz-adv-x="108" 
 />
    <glyph glyph-name="uni200A" unicode="&#x200a;" horiz-adv-x="45" 
 />
    <glyph glyph-name="uni200B" unicode="&#x200b;" horiz-adv-x="0" 
 />
    <glyph glyph-name="uni2010" unicode="&#x2010;" horiz-adv-x="239" 
d="M39 251v65h162v-65h-162z" />
    <glyph glyph-name="uni2011" unicode="&#x2011;" horiz-adv-x="239" 
d="M39 251v65h162v-65h-162z" />
    <glyph glyph-name="figuredash" unicode="&#x2012;" horiz-adv-x="434" 
d="M75 336v64h284v-64h-284z" />
    <glyph glyph-name="endash" unicode="&#x2013;" horiz-adv-x="433" 
d="M74 256v64h284v-64h-284z" />
    <glyph glyph-name="emdash" unicode="&#x2014;" horiz-adv-x="543" 
d="M77 256v64h389v-64h-389z" />
    <glyph glyph-name="quoteleft" unicode="&#x2018;" horiz-adv-x="137" 
d="M113 623q0 -22 -12 -35.5t-30 -13.5q-47 0 -47 65q0 96 64 140l23 -26q-36 -30 -36 -82h4q12 0 23 -12.5t11 -35.5z" />
    <glyph glyph-name="quoteright" unicode="&#x2019;" horiz-adv-x="137" 
d="M24 659q0 22 12 35.5t30 13.5q47 0 47 -65q0 -96 -64 -140l-23 26q36 30 36 82h-4q-12 0 -23 12.5t-11 35.5z" />
    <glyph glyph-name="quotesinglbase" unicode="&#x201a;" horiz-adv-x="137" 
d="M24 49q0 22 12 35.5t30 13.5q47 0 47 -65q0 -96 -64 -140l-23 26q36 30 36 82h-4q-12 0 -23 12.5t-11 35.5z" />
    <glyph glyph-name="quotedblleft" unicode="&#x201c;" horiz-adv-x="248" 
d="M224 623q0 -22 -12 -35.5t-30 -13.5q-47 0 -47 65q0 96 64 140l23 -26q-36 -30 -36 -82h4q12 0 23 -12.5t11 -35.5zM113 623q0 -22 -12 -35.5t-30 -13.5q-47 0 -47 65q0 96 64 140l23 -26q-36 -30 -36 -82h4q12 0 23 -12.5t11 -35.5z" />
    <glyph glyph-name="quotedblright" unicode="&#x201d;" horiz-adv-x="248" 
d="M24 659q0 22 12 35.5t30 13.5q47 0 47 -65q0 -96 -64 -140l-23 26q36 30 36 82h-4q-12 0 -23 12.5t-11 35.5zM135 659q0 22 12 35.5t30 13.5q47 0 47 -65q0 -96 -64 -140l-23 26q36 30 36 82h-4q-12 0 -23 12.5t-11 35.5z" />
    <glyph glyph-name="quotedblbase" unicode="&#x201e;" horiz-adv-x="248" 
d="M135 49q0 22 12 35.5t30 13.5q47 0 47 -65q0 -96 -64 -140l-23 26q36 30 36 82h-4q-12 0 -23 12.5t-11 35.5zM24 49q0 22 12 35.5t30 13.5q47 0 47 -65q0 -96 -64 -140l-23 26q36 30 36 82h-4q-12 0 -23 12.5t-11 35.5z" />
    <glyph glyph-name="dagger" unicode="&#x2020;" horiz-adv-x="325" 
d="M25 435v62h81l32 -11l-9 47v167h67v-167l-9 -47l31 11h82v-62h-83l-30 11l9 -42v-404l-11 -200h-46l-10 200v404l9 42l-32 -11h-81z" />
    <glyph glyph-name="daggerdbl" unicode="&#x2021;" horiz-adv-x="325" 
d="M129 271v134l9 41l-32 -11h-81v62h81l32 -11l-9 46v168h67v-168l-9 -46l31 11h82v-62h-83l-30 11l9 -41v-134l-9 -41l30 11h83v-62h-82l-31 11l9 -46v-144l-11 -200h-46l-10 200v144l9 46l-32 -11h-81v62h81l32 -11z" />
    <glyph glyph-name="bullet" unicode="&#x2022;" horiz-adv-x="297" 
d="M53 311q0 63 26 101t69 38q45 0 70.5 -36.5t25.5 -102.5t-25.5 -102.5t-70.5 -36.5q-44 0 -69.5 36.5t-25.5 102.5z" />
    <glyph glyph-name="ellipsis" unicode="&#x2026;" horiz-adv-x="580" 
d="M453 43q0 55 44 55q45 0 45 -55t-45 -55q-44 0 -44 55zM253 43q0 55 44 55q45 0 45 -55t-45 -55q-44 0 -44 55zM53 43q0 55 44 55q45 0 45 -55t-45 -55q-44 0 -44 55z" />
    <glyph glyph-name="perthousand" unicode="&#x2030;" horiz-adv-x="799" 
d="M42 542q0 170 108 170t108 -170q0 -169 -108 -169t-108 169zM102 542q0 -116 48 -116q25 0 36.5 24t11.5 92q0 67 -12 92t-36 25t-36 -25t-12 -92zM297 169q0 170 108 170t108 -170q0 -169 -108 -169t-108 169zM357 169q0 -116 48 -116q25 0 36.5 24t11.5 92q0 67 -12 92
t-36 25t-36 -25t-12 -92zM547 169q0 170 108 170t108 -170q0 -169 -108 -169t-108 169zM607 169q0 -116 48 -116q25 0 36.5 24t11.5 92q0 67 -12 92t-36 25t-36 -25t-12 -92zM74 12l361 701l44 -24l-360 -701z" />
    <glyph glyph-name="guilsinglleft" unicode="&#x2039;" horiz-adv-x="200" 
d="M132 38l-109 221l105 230l48 -26l-70 -162l-32 -41l32 -36l75 -159z" />
    <glyph glyph-name="guilsinglright" unicode="&#x203a;" horiz-adv-x="200" 
d="M69 489l109 -221l-105 -230l-48 26l69 162l32 41l-32 36l-75 158z" />
    <glyph glyph-name="uni203D" unicode="&#x203d;" horiz-adv-x="310" 
d="M109 415v228q-27 -9 -49 -28l-23 53q30 27 72 37v45h65v-38q57 -1 88 -42.5t31 -110.5q0 -52 -15 -95t-36 -74l-42 -60q-21 -30 -36 -69t-15 -84h-56q-1 8 -1 23q0 65 28 119zM166 406l-1 -15q20 30 30 47.5t20 48.5t10 63q0 93 -59 100v-244zM84 43q0 55 44 55
q45 0 45 -55t-45 -55q-44 0 -44 55z" />
    <glyph glyph-name="fraction" unicode="&#x2044;" horiz-adv-x="123" 
d="M-116 10l309 703l47 -20l-308 -705z" />
    <glyph glyph-name="uni2070" unicode="&#x2070;" horiz-adv-x="284" 
d="M28 590q0 118 29 167.5t85 49.5q59 0 86 -48.5t27 -168.5q0 -118 -28.5 -167.5t-84.5 -49.5q-58 0 -86 50.5t-28 166.5zM87 590q0 -86 13 -123.5t42 -37.5q28 0 41 34t13 127q0 86 -12.5 123.5t-41.5 37.5q-28 0 -41.5 -33.5t-13.5 -127.5z" />
    <glyph glyph-name="uni2074" unicode="&#x2074;" horiz-adv-x="284" 
d="M268 530v-53h-51v-97h-58v97h-135v31l146 298h47v-276h51zM159 530v123l7 55h-4l-15 -53l-45 -99l-23 -30l34 4h46z" />
    <glyph glyph-name="uni2075" unicode="&#x2075;" horiz-adv-x="284" 
d="M113 429q27 0 43 22t16 58q0 81 -63 81l-42 -3v213h155v-56h-106v-105l23 2q43 0 67.5 -34.5t24.5 -94.5q0 -66 -33 -102.5t-81 -36.5q-38 0 -72 16l15 52q24 -12 53 -12z" />
    <glyph glyph-name="uni2076" unicode="&#x2076;" horiz-adv-x="284" 
d="M249 507q0 -57 -28.5 -95t-74.5 -38q-48 0 -77.5 39t-29.5 109q0 119 47 197t121 88l8 -50q-45 -11 -76 -53.5t-40 -105.5q20 41 64 41q38 0 62 -36.5t24 -95.5zM190 502q0 36 -12 60t-35 24q-33 0 -45 -35v-37q0 -38 12 -62.5t36 -24.5q18 0 31 21t13 54z" />
    <glyph glyph-name="uni2077" unicode="&#x2077;" horiz-adv-x="284" 
d="M124 380h-56l100 339l25 31l-32 -6h-119v56h198v-29z" />
    <glyph glyph-name="uni2078" unicode="&#x2078;" horiz-adv-x="284" 
d="M41 482q0 73 57 115q-50 39 -50 104q0 49 26.5 77.5t69.5 28.5q40 0 66 -27t26 -69q0 -69 -49 -111q56 -45 56 -110q0 -56 -27 -86.5t-77 -30.5q-44 0 -71 30.5t-27 78.5zM186 488q0 22 -7.5 38.5t-15.5 24.5t-25 22q-40 -32 -40 -82q0 -28 12 -46.5t31 -18.5
q20 0 32.5 17t12.5 45zM104 702q0 -44 46 -81q30 34 30 80q0 24 -10 38.5t-27 14.5q-19 0 -29 -15.5t-10 -36.5z" />
    </font>
</defs>
</svg>
